<?xml version="1.0" encoding="utf-8"?>
<svg height="100%" preserveAspectRatio="xMidYMid meet" viewBox="0 0 2944 1840" width="100%" xmlns="http://www.w3.org/2000/svg">
<!-- Generator: Adobe Illustrator 29.6.1, SVG Export Plug-In . SVG Version: 2.1.1 Build 9)  -->
<defs>
</defs>
<rect height="100%" style="fill: #fff;" width="100%" x="0" y="0"/>
<g>
<path d="M1063.7,337.1c.3.5.6,1,.9,1.5-.3-.5-.6-1-.9-1.5Z" style="fill:#cac5d7;"/>
<path d="M1049.3,364.7c-5.7,7.1-2.9,17.1-19.9,12.8-17.1-4.3,2.8,14.2,0,19.9-2.8,5.7-25.6-5.7-25.6,0h0c0-5.7,22.8,5.7,25.6,0,2.8-5.7-17.1-24.2,0-19.9,17.1,4.3,14.2-5.7,19.9-12.8,4.6-5.8,17.7-10.6,17.9-19.1-.2,8.5-13.2,13.3-17.9,19.1Z" style="fill:#cac5d7;"/>
<path d="M1019,323.6c0-.1-.1-.2-.2-.3,0,0,.1.2.2.3Z" style="fill:#cac5d7;"/>
<path d="M1019.2,324.2c0-.2,0-.3-.1-.5,0,.1,0,.3.1.5Z" style="fill:#cac5d7;"/>
<path d="M981.8,163c.4,0,.8-.1,1.2-.1-.4,0-.8,0-1.2.1Z" style="fill:#cac5d7;"/>
<path d="M1005.6,220.4s0,0,0,0c0,0,0,0,0,0Z" style="fill:#cac5d7;"/>
<path d="M1018.2,322.7c-.2-.1-.4-.2-.6-.3.2.1.4.2.6.3Z" style="fill:#cac5d7;"/>
<path d="M1062.5,335c.2.3.4.7.5,1-.2-.3-.4-.7-.5-1Z" style="fill:#cac5d7;"/>
<path d="M1060.4,330c0,.2.1.4.2.6,0-.2-.1-.4-.2-.6Z" style="fill:#cac5d7;"/>
<path d="M1057.8,302.4c0,.3,0,.6-.1.9,0-.3,0-.6.1-.9Z" style="fill:#cac5d7;"/>
<path d="M889.8,173.4s0,0,0,0c0,0,0,0,0,0Z" style="fill:#cac5d7;"/>
<path d="M900.2,166.6c.1-.2.2-.4.3-.6,0,.2-.2.4-.3.6Z" style="fill:#cac5d7;"/>
<path d="M1017.5,322.3c-.2,0-.3-.2-.5-.2.2,0,.4.2.5.2Z" style="fill:#cac5d7;"/>
<path d="M850,191.2c-1.4.2-3.1.5-4.8,1.1,1.7-.6,3.4-.9,4.8-1.1Z" style="fill:#cac5d7;"/>
<path d="M850.5,191.2c-.2,0-.3,0-.5,0,.2,0,.3,0,.5,0Z" style="fill:#cac5d7;"/>
<path d="M850.9,191.1s0,0-.1,0c0,0,0,0,.1,0Z" style="fill:#cac5d7;"/>
<path d="M852.1,191.1c.3,0,.7,0,1.2,0-.5,0-.9,0-1.2,0s0,0,0,0Z" style="fill:#cac5d7;"/>
<path d="M946.3,350.8h0s0,0,0,0c0-6.6-4.5-8.6-4.6-12.7,0,4.1,4.6,6.1,4.6,12.7Z" style="fill:#cac5d7;"/>
<path d="M1007.9,317.5c-.1-.1-.2-.2-.4-.3.1.1.2.2.4.3Z" style="fill:#cac5d7;"/>
<path d="M890.2,172.9c0,0-.1.1-.2.2,0,0,.1-.1.2-.2Z" style="fill:#cac5d7;"/>
<path d="M980.4,163.3c0,0,.2,0,.3,0,0,0-.2,0-.3,0Z" style="fill:#cac5d7;"/>
<path d="M855.4,279.7c0,0,.1,0,.2,0,0,0,.2,0,.3,0,0,0-.2,0-.2,0,0,0-.2,0-.2,0Z" style="fill:#cac5d7;"/>
<path d="M921,155.1c0,0,.2.1.3.2,0,0-.2-.1-.3-.2Z" style="fill:#cac5d7;"/>
<path d="M979.8,120.1c3-1.7,5.3-1.6,7.3-1.2-2-.4-4.4-.5-7.4,1.2-3,1.7-6,1.2-8.7.3,2.8.9,5.8,1.4,8.8-.3Z" style="fill:#cac5d7;"/>
<path d="M1242,561.5c0-.5,0-1,0-1.6,0,0,0,0,0,0,0,0,0,0,0,0,0,.5,0,1.1,0,1.5Z" style="fill:#cac5d7;"/>
<path d="M851.5,1.1c.1,0,.2,0,.3,0-.1,0-.2,0-.3,0Z" style="fill:#cac5d7;"/>
<path d="M852.1,1.1s0,0,.1,0c0,0,0,0-.1,0Z" style="fill:#cac5d7;"/>
<path d="M1216.7,553.3s0,0,0,0c7.5,0,9.1-5.8,13.6-5.5-4.6-.4-6.2,5.5-13.7,5.5Z" style="fill:#cac5d7;"/>
<path d="M1228.6,579.9c0,.6.1,1.1.1,1.6,0-.5,0-1.1-.1-1.6,0-.3,0-.6,0-.8,0,.3,0,.5,0,.8Z" style="fill:#cac5d7;"/>
<path d="M1108,611.2c-1.1-1.6-2-4.2-2.9-7.1.9,2.9,1.8,5.5,2.9,7.1Z" style="fill:#cac5d7;"/>
<path d="M1105.1,603.9s0,0,0,0c0,0,0,0,0,0Z" style="fill:#cac5d7;"/>
<path d="M1222,601.1c0,.7.1,1.4.1,2,0-.6,0-1.3-.1-2.1,0-.7-.1-1.4-.1-2.1,0,.7,0,1.4.1,2.1Z" style="fill:#cac5d7;"/>
<path d="M1439.3,857.3c-.8.6-1.9.4-3-.2,1.1.6,2.2.8,3,.2,1.1-.9,1.9-2.6,2.6-4.5-.7,1.8-1.5,3.6-2.6,4.5Z" style="fill:#cac5d7;"/>
<path d="M1035.5,116.6c-1.1-.4-2.6-.7-4.4-.9-3.5-.4-6.3-1.1-8.5-1.9,2.2.8,5,1.5,8.5,1.9,1.8.2,3.2.5,4.3.9Z" style="fill:#cac5d7;"/>
<path d="M1059.6,145.8s0,0,0,0c-.8-.1-1.7-.4-2.7-.8,1,.4,2,.7,2.8.8h0Z" style="fill:#cac5d7;"/>
<path d="M1056.1,144.7c0,0,.1,0,.2,0,0,0-.1,0-.2,0Z" style="fill:#cac5d7;"/>
<path d="M994.9,117.5c3.2-5.6,13-12.7,16.8-12-3.8-.7-13.6,6.4-16.8,12-1.5,2.7-3.1,2.7-5,2.2,1.9.5,3.5.5,5.1-2.2Z" style="fill:#cac5d7;"/>
<path d="M1011.6,105.5c.1,0,.2,0,.3,0,0,0-.2,0-.3,0Z" style="fill:#cac5d7;"/>
<path d="M929.7,128c.2,0,.3,0,.5.1-.2,0-.3,0-.5-.1Z" style="fill:#cac5d7;"/>
<path d="M921.8,155.6c.3.2.6.3.8.4-.3-.1-.6-.3-.8-.4Z" style="fill:#cac5d7;"/>
<path d="M929,127.7c.1,0,.2.1.3.2-.1,0-.2,0-.3-.2Z" style="fill:#cac5d7;"/>
<path d="M934.1,127.9c.3,0,.7-.2,1-.3-.4.1-.7.2-1,.3Z" style="fill:#cac5d7;"/>
<path d="M711.4,88.1c8.1,0,17.5-17.5,17.5-22.9s-.8-2.8-2.1-3.6c1.3.8,2.1,1.9,2.1,3.6,0,5.4-9.4,22.9-17.5,22.9s-8.1,22.9-1.3,24.2c.2,0,.4,0,.6,0-.2,0-.4,0-.6,0-6.8-1.3-6.7-24.2,1.3-24.2Z" style="fill:#cac5d7;"/>
<path d="M726.2,94.8s0,0,0,0c2.9,0,5.1,21.3,9.1,43.3,0,0,0,0,0,0-3.9-22-6.2-43.3-9.1-43.3Z" style="fill:#cac5d7;"/>
<path d="M712.8,59.9s0,0,0,0c0,0,0,0,0,0h0Z" style="fill:#cac5d7;"/>
<path d="M738.6,136.1c-.2,0-.3,0-.5,0,.2,0,.3,0,.5,0,1.2,0,1.9-.9,2.5-2.3-.5,1.4-1.3,2.3-2.5,2.3Z" style="fill:#cac5d7;"/>
<path d="M749.2,90c-2.7,0-.9,16.8-4.4,22.2-.9,1.3-1.4,3.5-1.7,6,.3-2.5.8-4.7,1.7-6,3.5-5.3,1.8-22.2,4.4-22.2s15.8,4.4,17.6,1.9c-1.8,2.5-15.1-1.9-17.6-1.9Z" style="fill:#cac5d7;"/>
<path d="M645.9,34.9c-.1.1-.3.2-.4.3.1-.1.3-.2.4-.3Z" style="fill:#cac5d7;"/>
<path d="M711.3,112.3c0,0-.2,0-.2,0,0,0,.2,0,.2,0Z" style="fill:#cac5d7;"/>
<path d="M676.4,50.4c0-6.7-4-12.1-14.8-12.1s-10.5-7.7-15.6-3.6c5.1-4.1,6.5,3.6,15.6,3.6s14.8,5.4,14.8,12.1,10.8,10.8,10.8,10.8c0,0,0,0,0,0,0,0-10.8-4.1-10.8-10.8Z" style="fill:#cac5d7;"/>
<path d="M814.8,10.1c-1.8-4.4-12.4,2.7-18.6,8-2.9,2.4-6.3,4.3-9.1,6.6,2.9-2.3,6.3-4.2,9.1-6.6,6.2-5.3,16.8-12.4,18.6-8,1.3,3.3,9.2,6.2,10.7,4-1.6,2.1-9.4-.7-10.7-4Z" style="fill:#cac5d7;"/>
<path d="M646.8,63.9c2.3-2,6.4-.9,9.1-3.8-2.7,2.9-6.9,1.8-9.1,3.8Z" style="fill:#cac5d7;"/>
<path d="M659,16.6c0,0-.1,0-.2-.1,0,0,.1,0,.2.1Z" style="fill:#cac5d7;"/>
<path d="M246.4,35.7c0,.1,0,.2,0,.3,0-.1,0-.2,0-.3Z" style="fill:#cac5d7;"/>
<path d="M264.7,69.6c-1.2-5.2-5.5-11.2-8.6-14.2-3.6-3.6-8.4-10.7-9.6-18,1.2,7.3,6,14.4,9.6,18,3,3.1,7.3,9,8.6,14.2Z" style="fill:#cac5d7;"/>
<path d="M246.4,31.5c0-7.6-12.4-8.3-14.1-13.9,1.6,5.7,14,6.4,14.1,13.9Z" style="fill:#cac5d7;"/>
<path d="M654.3,8.3c0-.2,0-.5-.1-.7,0,.2,0,.5.1.7Z" style="fill:#cac5d7;"/>
<path d="M840.5,87.2c2-1,4.6-1.4,7.4-1.4-2.8,0-5.5.4-7.4,1.4-1.1.5-1.9.8-2.5.8.6,0,1.4-.2,2.5-.8Z" style="fill:#cac5d7;"/>
<path d="M658.7,16.3c-.1,0-.2-.2-.3-.3.1,0,.2.2.3.3Z" style="fill:#cac5d7;"/>
<path d="M659.3,16.8s0,0,0,0c0,0,0,0,0,0Z" style="fill:#cac5d7;"/>
<path d="M900.6,165.8c0,0,0-.2,0-.2,0,0,0,.2,0,.2Z" style="fill:#cac5d7;"/>
<path d="M929.8,510.3c.6-.1.8-.7,1-1.6-.2.9-.4,1.5-1,1.6-2.5.5-15.3,1.9-17.4-1.2,2.1,3.2,14.9,1.8,17.4,1.3Z" style="fill:#cac5d7;"/>
<path d="M995.8,190.4c1.4-.7,2.3-1.8,2.3-3.6,0-7.1-5.7-7.1-7.1-17.1,1.4,10,7.1,10,7.1,17.1s-.9,2.8-2.3,3.6Z" style="fill:#cac5d7;"/>
<path d="M912.4,145.8s0,0,0,0c0,0,0,0,0,0,0,0,0,0,0,0Z" style="fill:#cac5d7;"/>
<path d="M943.4,231c-.9-1.2-2.1-2.1-3.5-2.6,1.4.5,2.6,1.4,3.5,2.6.5.7,1.3,1.2,2.2,1.5-.9-.3-1.7-.8-2.2-1.5Z" style="fill:#cac5d7;"/>
<path d="M1012.5,293.3c.8-9.7-5.9-18.8-12.1-22.5,6.1,3.7,12.8,12.8,12,22.5-.8,9.9,4.7,17-2.9,25.4-.5-.3-1-.7-1.4-1,2.8,2.4,6.4,3.3,8.7,4.3-1.9-.8-4.7-1.6-7.2-3.2,7.6-8.5,2.1-15.6,2.9-25.4Z" style="fill:#cac5d7;"/>
<path d="M899.3,192.6c-2.9-6.7,0-14.4-1.9-17.2-.6-.9-2.3-2.6-4.4-4.4,2.6-1.3,5.8-2.3,7.2-4.4-1.9,2.8-7.4,3.6-9.9,6.1.7-.7,1.7-1.3,2.7-1.8,2.1,1.8,3.8,3.5,4.4,4.4,1.9,2.9-.9,10.5,1.9,17.2.5,1.1,1.1,1.7,1.8,2-.7-.4-1.3-1-1.8-2Z" style="fill:#cac5d7;"/>
<path d="M995.2,242.5c-6.7-3.9-11.5-10.5-16.3-16.3-.6-.7-1.4-1.3-2.2-1.8.9.5,1.6,1.1,2.2,1.8,4.8,5.8,9.6,12.5,16.3,16.3,6.5,3.7-4.1,23.6,1.4,26.6-5.4-3,5.2-22.9-1.3-26.6Z" style="fill:#cac5d7;"/>
<path d="M902.7,148c4.4-1.7,7.1-3.4,8.8-3.1-1.7-.3-4.4,1.3-8.8,3.1-2.5,1-4.7,1.4-6.5,1.4,1.9,0,4-.4,6.5-1.4Z" style="fill:#cac5d7;"/>
<path d="M910.1,148.5c-3.4,4.2-9.3,12.1-9.3,15.9s0,0,0,0c0,0,0,0,0,0,0-3.8,5.9-11.8,9.3-15.9Z" style="fill:#cac5d7;"/>
<path d="M907,239.6c-1.9-8.6,5.7-7.7,5.7-17.3s4.8-14.4,1.9-23.9c-.4-1.5-1.1-2.5-1.8-3.2.7.7,1.3,1.7,1.8,3.1,2.9,9.6-1.9,14.3-1.9,24s-7.7,8.6-5.7,17.3c.4,1.6,1,2.6,1.9,3-.9-.4-1.5-1.4-1.9-3Z" style="fill:#cac5d7;"/>
<path d="M900.8,165.2c0,0,0-.1,0-.2,0,0,0,.1,0,.2Z" style="fill:#cac5d7;"/>
<path d="M981,196.9c-2.8,7.1,24.2,15.6,24.2,21.3h0c0,.7.1,1.4.3,2.1-.2-.7-.3-1.4-.3-2.1,0-5.7-27-14.2-24.2-21.3.7-1.8,2.1-2.8,3.9-3.6-1.7.7-3.2,1.8-3.9,3.6Z" style="fill:#cac5d7;"/>
<path d="M945.4,138.5c0,5.7,11.4,10,11.4,17.1s3.9,7,8.2,9c-4.3-1.9-8.2-5.3-8.2-9,0-7.1-11.4-11.4-11.4-17.1s-4.2-7.5-8.1-11.9c2.2-1.1,4.4-2.7,6.1-4.8,4.4-5.3,13.3,4.4,16.9-1.8,1.4-2.5,3.6-2.3,6.2-1.4-2.6-.9-4.8-1.2-6.2,1.4-3.5,6.2-12.4-3.6-16.9,1.8-2.2,2.7-5.3,4.6-8.2,5.6.7-.2,1.4-.5,2.1-.9,3.9,4.3,8.1,8.6,8.1,11.9Z" style="fill:#cac5d7;"/>
<path d="M934.1,127.9c-1.3.3-2.5.5-3.6.3,1,.2,2.3,0,3.6-.3Z" style="fill:#cac5d7;"/>
<path d="M924.8,138.8c-2.6-2.6.7-13.4,3.3-11.7-2.6-1.8-5.9,9.1-3.3,11.7,2.7,2.7,6.2,19.5-.9,17.7-.4-.1-.8-.2-1.2-.4.4.2.8.3,1.2.4,7.1,1.8,3.6-15.1.9-17.7Z" style="fill:#cac5d7;"/>
<path d="M1018.4,322.8c.1,0,.2.2.3.3,0,0-.2-.2-.3-.3Z" style="fill:#cac5d7;"/>
<path d="M1053.6,279.4c3.2,3.2,4.8,9.6,4.8,16.2,0-6.6-1.6-13-4.8-16.2-4.3-4.3-15.7-8.5-18.5-17.1-2.6-7.7-13.3-15.5-17.4-22.2,4.1,6.7,14.9,14.4,17.4,22.2,2.9,8.5,14.2,12.8,18.5,17.1Z" style="fill:#cac5d7;"/>
<path d="M1019.2,324.9c0-.2,0-.5,0-.7,0,.2,0,.4,0,.6-.1.5,0,.9,0,1.2-.1-.3-.1-.7,0-1.2Z" style="fill:#cac5d7;"/>
<path d="M910.2,148.5s0,0,0-.1c0,0,0,0,0,.1Z" style="fill:#cac5d7;"/>
<path d="M726.2,94.8c-3.8,0-8.7,16.6-14.9,17.5,0,0-.2,0-.2,0-.1,0-.2,0-.4,0-.2,0-.4,0-.6,0-6.7-1.3-6.7-24.2,1.3-24.2s17.5-17.5,17.5-22.9-.8-2.8-2.1-3.6c-2.9-1.7-8.4-1.7-14-1.7,0,0,0,0,0,0-8.1,0-25.6,1.3-25.6,1.3,0,0,0,0,0,0,0,0,0,0,0,0,0,0-10.8-4-10.8-10.8s-4-12.1-14.8-12.1-10.5-7.6-15.6-3.6c0,0-.1,0-.2.1-.1.1-.3.2-.4.3-.8.7-1.7,1.7-2.7,3.1-8.1,10.8,17.5,10.8,14.8,18.9-.4,1.3-1,2.2-1.6,2.9-2.7,2.9-6.9,1.8-9.1,3.8-.6.6-1.1,1.4-1.4,2.7-1.3,6.7,1.4,24.2,5.4,33.6h0c3.1,7.3,7.7,25.6,7.9,41.1,6.2-1.2,9.2-4.1,15-4.1s17.2-1,17.9-8.6c.7-7.6,9-13.3,13.6-11,4.7,2.3,11.6,20.9,12,30.6.1,3.1,1.4,7.1,3.5,11.4,3.7-3.7,8-6.6,8-6.6,0,0,.9-3.4,2.4-7.1,1.1-2.8,2.5-5.8,4.1-7.7-3.9-22-6.2-43.3-9.1-43.3Z" style="fill:rgb(179, 171, 198);"/>
<path d="M650.8,100.2c-4-9.4-6.7-26.9-5.4-33.6.2-1.3.7-2.1,1.4-2.7,2.3-2,6.4-.9,9.1-3.8.6-.7,1.2-1.6,1.6-2.9,2.7-8.1-22.9-8.1-14.8-18.9,1-1.3,1.9-2.3,2.7-3.1.1-.1.3-.2.4-.3,0,0,.1-.1.2-.1,5.1-4.1,6.5,3.6,15.6,3.6s14.8,5.4,14.8,12.1,10.8,10.8,10.8,10.8c0,0,0,0,0,0,0,0,17.5-1.3,25.6-1.3h0s0,0,0,0c5.5,0,11,0,14,1.7,1.3.8,2.1,1.9,2.1,3.6,0,5.4-9.4,22.9-17.5,22.9s-8.1,22.9-1.3,24.2c.2,0,.4,0,.6,0,.1,0,.2,0,.4,0,0,0,.2,0,.2,0,6.1-.9,11.1-17.5,14.9-17.5,0,0,0,0,0,0,2.9,0,5.1,21.3,9.1,43.3.9-1.1,1.8-1.8,2.8-2,.2,0,.3,0,.5,0,1.2,0,1.9-.9,2.5-2.3,1.3-3.5,1.3-10.3,2-15.6.3-2.5.8-4.7,1.7-6,3.5-5.3,1.8-22.2,4.4-22.2s15.7,4.4,17.6,1.9c.2-.3.3-.6.2-1-.9-4.4,9.7-19.5,8-27.5-1.8-8,6.2-17.7,6.2-27.5s2.6-8.5,6-11.1c2.9-2.3,6.3-4.2,9.1-6.6,6.2-5.3,16.8-12.4,18.6-8,1.3,3.3,9.1,6.1,10.7,4,.5-.7.3-2-1-4C821.8,6,820.5,2.6,820.4,0h-102.3c-.5.2-.8.4-.8.4,0,0,6.2,13.3,2.7,19.5-.3.6-.7,1.1-1.1,1.4-4.1,3.7-12.2-1.2-21,1.3-9.8,2.7-14.2-3.6-21.3-1.8-7.1,1.8-11.5-4.4-15.1-3.5-.7.2-1.4,0-2.1-.5,0,0,0,0,0,0,0,0-.2-.1-.3-.2,0,0-.1,0-.2-.1,0,0-.1,0-.2-.1-.1,0-.2-.2-.3-.3,0,0,0,0,0,0-1.7-1.5-3.2-4.3-4-7.4,0-.1,0-.2,0-.4,0-.2,0-.5-.1-.7-.3-1.8-.3-3.7.1-5.4C654.5,1.5,654.6.7,654.6,0h-16.2c0,.4,0,.8,0,1.3,0,8,4.4,17.7-.9,23-.7.7-1.7,1.3-3,1.9-9.1,4-31.4,5.6-36,1.7-5.3-4.4-28.4-7.1-29.3-11.5-.9-4.4-8-12.4-12.4-12.4s-17.7,6.2-21.3,3.5C533.3,5.8,529.1,2.5,524.7,0H243.7c-5,4.7-11.5,11.5-11.5,16.4s0,.9.2,1.2c1.6,5.7,14,6.4,14.1,13.9,0,.3,0,.5,0,.8-.1,1.1-.1,2.2,0,3.3,0,.1,0,.2,0,.3,0,.4,0,.9.2,1.3,1.2,7.3,6,14.4,9.6,18,3,3.1,7.3,9.1,8.6,14.2.6,2.4.5,4.5-.6,6.2-3.5,5.3-8.8,6.2-16.8,4.4-8-1.8-7.1,3.6-21.3.9-14.2-2.7-15.1,8-20.4,14.2-.3.4-.8.9-1.4,1.6,6.7,5.3,9.5,14.7,20.6,19,13,5,24.6-8.3,24.6,1.3s-30.6,7.6-31.2,10.6c-.7,3,31.5,41.9,47.8,38.9,16.3-3,28.2-20.6,23.6-23.2-4.6-2.6,2.7-13.6,7-11.6,4.3,2,.7,19.2,5.6,23.2,5,4,3.3,11.3,0,20.6-3.3,9.3,3.3,27.5,4.3,37.9,1,10.3,8,25.2,10.3,40.5,2.3,15.3,12,43.2,20.9,60.1,9,16.9,15.9,50.1,21.9,58.1,6,8,21.3,32.2,21.3,47.2s16.3,35.8,21.9,39.8c5.7,4,17.9-4.7,20.9-14,3-9.3,19.9-13,20.9-20.9,1-8,2.6-14.3,8.6-15.3,6-1,6-7.3,6-15.9s.7-20.9,6.6-28.6c6-7.6,7-28.2,3.3-36.5-3.7-8.3-1.7-19.9,1.7-28.2,3.3-8.3,2-17.9,8.3-18.6,6.3-.7,15.6-6.3,22.2-15.3,6.7-9,26.9-21.3,34.2-27.2,7.3-6,29.6-25.6,36.2-36.5,6.6-11,25.6-14.6,34.2-23.6,8.6-9,5.3-13.6,7-23.2,1.7-9.6,29.5-13.6,40.2-13.6s4-.2,5.6-.5c0,0,0,0,0,0-.2-15.5-4.8-33.8-7.9-41.1h0Z" style="fill:rgb(179, 171, 198);"/>
<path d="M556.7,4c4.4,0,11.5,8,12.4,12.4.9,4.4,23.9,7.1,29.3,11.5,4.6,3.9,27,2.3,36-1.7,1.3-.6,2.3-1.2,3-1.9,5.3-5.3.9-15.1.9-23S638.4.4,638.4,0h-113.7c4.4,2.5,8.6,5.8,10.8,7.5,3.5,2.7,16.8-3.5,21.3-3.5Z" style="fill:rgb(179, 171, 198);"/>
<path d="M876,364c0-8.8-7.1-9.7-7.1-16.8s0-19.5-8.9-27.5c-8.9-8-13.3-19.5-8-24,5.2-4.3,1.1-16.1,3.3-16,0,0,.2,0,.2,0,0,0,.2,0,.2,0,2.6.3,5.8-8.1.6-10.7-5.3-2.7,0-13.3-4.4-15.1-4.4-1.8-16.8-15.9-16.8-20.4s3.6-29.3,4.4-35.5c.4-3.1,2.9-4.9,5.5-5.9,1.7-.6,3.4-.9,4.8-1.1,0,0,0,0,0,0,.2,0,.3,0,.5,0,.1,0,.2,0,.3,0,0,0,0,0,.1,0,.4,0,.8,0,1.1,0h0s0,0,0,0c.3,0,.7,0,1.2,0,3.8,0,12.5.2,15.7-5.4,3.5-6.2,18.6-7.1,20.4-11.5.1-.3.2-.5.4-.7,0,0,0,0,0,0,0,0,.1-.2.2-.3,0,0,.1-.1.2-.2,0,0,0-.1.1-.2,2.5-2.5,8-3.3,9.9-6.1,0,0,0,0,0,0,.1-.2.2-.4.3-.6,0,0,0-.1,0-.2,0,0,0-.2,0-.2,0-.1,0-.2,0-.3,0,0,0-.1,0-.2,0-.2,0-.3,0-.5,0,0,0,0,0,0,0-3.8,5.9-11.7,9.3-15.9,0,0,0,0,0,0,0,0,0,0,0-.1,1.3-1.6,2.1-2.6,2.1-2.6,0,0,0,0,0,0,0,0,0,0,0,0,0,0,0,0,0,0,.1,0,.2,0,.3,0-.3-.5-.7-.8-1.2-.9-1.7-.3-4.4,1.3-8.8,3.1-2.5,1-4.7,1.4-6.5,1.4-5.6-.1-8.2-4.3-7.4-8.8,1-6-7-6-12.5-6s-2-9,0-14.9c2-6-2-9.5-8.5-10-6.5-.5-9.5-14.4-7-18.4,1.8-2.9-5.9-5.5-13-5.4-2.8,0-5.4.5-7.4,1.4-1.1.5-1.9.8-2.5.8-3.2,0,.2-7.5-1.5-11.7-2-5,9-21.9,18.4-31.4,9.5-9.5,5.5-21.9,5.5-32.9s-3.9-10.9-8.1-11c0,0,0,0-.1,0-.1,0-.2,0-.3,0-.1,0-.2,0-.3,0s0,0-.1,0C850.3,1.1,849.5.7,848.8,0h-28.4c.1,2.6,1.5,6,4.2,10.2,1.3,2,1.5,3.3,1,4-1.6,2.2-9.4-.6-10.7-4-1.8-4.4-12.4,2.7-18.6,8-2.8,2.4-6.3,4.3-9.1,6.6-3.4,2.7-6,5.9-6,11.1,0,9.8-8,19.5-6.2,27.5,1.8,8-8.9,23.1-8,27.5,0,.4,0,.7-.2,1-1.8,2.5-15.2-1.9-17.6-1.9s-.9,16.8-4.4,22.2c-.9,1.3-1.4,3.5-1.7,6-.7,5.3-.7,12.1-2,15.6-.5,1.4-1.3,2.3-2.5,2.3s-.3,0-.5,0c-1,.2-1.9.9-2.8,2,0,0,0,0,0,0-1.6,1.9-3,4.9-4.1,7.7-1.5,3.7-2.3,7.1-2.3,7.1,0,0-4.3,2.9-8,6.6,4.3,8.9,12.3,18.6,21.1,22.2,13,5.3,21.6,31.5,25.6,45.5,4,13.9,1.3,28.2-3.3,36.2-4.7,8,1.7,8.3,9.3,12.3,7.7,4,16.3,5.3,21.9-2.7,5.7-8,17.3-13.6,18.9-22.6,1.7-9,7,4.3,11.6,9,4.7,4.7,8,13.6,9,24.9,1,11.3,2,39.5,11.6,48.5,9.6,8.9,11.3,28.6,8.6,35.5-2.6,7,5,18.9,3,26.6-.4,1.5-.8,3.7-1.3,6.1.1,0,.3,0,.4,0,8.6.4,18.8-37.1,18.8-37.1Z" style="fill:rgb(179, 171, 198);"/>
<path d="M658.7,16.3c0,0,.1,0,.2.1,0,0,.1,0,.2.1,0,0,.2.1.3.2,0,0,0,0,0,0,.7.4,1.4.6,2.1.5,3.5-.9,8,5.3,15.1,3.5,7.1-1.8,11.5,4.5,21.3,1.8,8.8-2.4,16.9,2.5,21-1.3.4-.4.8-.9,1.1-1.4,3.5-6.2-2.7-19.5-2.7-19.5C717.3.4,717.6.2,718.1,0h-56.3c-.4.8-.8,1.6-1.2,2.5-1.5,3.6-3.3,7-5,9.5.8,1.7,1.8,3.1,2.8,4,0,0,0,0,0,0,.1,0,.2.2.3.3Z" style="fill:rgb(179, 171, 198);"/>
<path d="M1059.6,145.8h0c-.8-.1-1.7-.4-2.8-.8-.2,0-.4-.2-.6-.3,0,0-.1,0-.2,0-7.3-3.2-18.7-12-18.7-15.7s6.1-9.8-1.9-12.4c-1.1-.4-2.6-.7-4.3-.9-3.5-.4-6.3-1.1-8.5-1.9-6.6-2.4-8.1-5.9-10.1-7.9-.2-.2-.4-.3-.6-.4-.1,0-.2,0-.3,0,0,0,0,0,0,0-3.8-.7-13.6,6.4-16.8,12-1.6,2.7-3.1,2.7-5.1,2.2-.8-.2-1.7-.5-2.7-.7-2-.4-4.3-.5-7.3,1.2-3,1.7-6,1.2-8.8.3-1.6-.5-3.1-1.2-4.5-1.7-2.6-.9-4.8-1.1-6.2,1.4-3.6,6.2-12.4-3.5-16.9,1.8-1.7,2-3.9,3.7-6.1,4.8,3.9,4.3,8.1,8.6,8.1,11.9,0,5.7,11.4,10,11.4,17.1s3.9,7,8.2,9c3.9,1.8,8.3,2.3,10.3,1,.9-.6,2.1-1.2,3.5-1.7.2,0,.4-.1.6-.2.3-.1.7-.2,1-.3,0,0,.2,0,.3,0,.4,0,.7-.2,1.1-.2.4,0,.8-.1,1.2-.1.4,0,.8,0,1.2,0,.2,0,.4,0,.6,0,2.2.3,4.1,1.3,5.3,3.7.2.4.4.9.5,1.4.2.5.3,1.1.4,1.7,1.4,10,7.1,10,7.1,17.1s-.9,2.8-2.3,3.6c-2.8,1.4-7.5,1.4-10.9,2.9-1.7.7-3.2,1.8-3.9,3.6-2.8,7.1,24.2,15.6,24.2,21.3s.1,1.4.3,2.1c0,0,0,0,0,.1,0,0,0,0,0,0,1.7,5.3,8.5,11.5,11,17.7.3.7.6,1.3,1,2,4.1,6.7,14.9,14.4,17.4,22.2,2.8,8.5,14.2,12.8,18.5,17.1,3.2,3.2,4.8,9.6,4.8,16.2,0,2.2-.2,4.4-.5,6.6,0,0,0,.2,0,.2,0,.3,0,.6-.1.9-.3,2.3-.5,5-.5,7.9,0,0,0,0,0,0,0,5.7.8,12.3,3.2,18.8,0,.2.1.4.2.6.6,1.5,1.2,3,2,4.4.2.3.4.7.5,1,.2.4.4.7.6,1.1.3.5.6,1,.9,1.5.1.2.2.3.3.5,1.6,2.4,2.3,4.6,2.2,6.5-.1,8.5-13.2,13.3-17.9,19.1-5.7,7.1-2.8,17.1-19.9,12.8-17.1-4.3,2.8,14.2,0,19.9-2.8,5.7-25.6-5.7-25.6,0h0c0,.4-.1.9-.4,1.3-1.5,3.2-8.1,6.9-13.5,9.5,2.5,3.2,5.9,5,9.9,7.5,5.3,3.3-6.6,9-6.3,19.6.3,10.7,8.3,13.3,11.3,9,3-4.3,15.3-14,20.3-15.6,5-1.7,0-9,5.3-8.6,5.3.3,3.7-7.6,6-12,2.3-4.3,6-2.7,13.9-2.3,8,.3,19.2-7.3,30.6-14.6,11.3-7.3,13.3-8.9,17.6-29.9,4.3-20.9-5-45.8-5.3-52.2-.3-6.3-15.6-35.5-21.3-35.2-5.7.3-31.5-26.2-36.2-30.6-4.6-4.3-3.3-11.6-10-17.3-6.6-5.6-7.3-20.2-5.6-30.5,1.7-10.3,16.3-12.6,15.9-19.6-.3-7,1.3-12.9,8.6-13.3,7.3-.3,14.3-6.3,17.6-11.6.5-.8,1.2-1.3,1.9-1.6,0,0,0,0,0,0,0,0,0,0,0,0-1.8-2.1-3.4-3.5-4.6-3.7Z" style="fill:rgb(179, 171, 198);"/>
<path d="M1003.8,397.4h0c0-5.7,22.8,5.7,25.6,0,2.8-5.7-17.1-24.2,0-19.9,17.1,4.3,14.2-5.7,19.9-12.8,4.6-5.8,17.7-10.6,17.9-19.1,0-2-.6-4.1-2.2-6.5-.1-.2-.2-.3-.3-.5-.3-.5-.6-1-.9-1.5-.2-.4-.4-.7-.6-1.1-.2-.3-.4-.7-.5-1-.7-1.5-1.4-2.9-2-4.4,0-.2-.1-.4-.2-.6-2.4-6.5-3.2-13.2-3.2-18.8-5.5,4.3-12.2,4.7-15.9,3.2-4.8-1.9-15.3-2.9-15.3,4.8s-5.9,9-6.7,6.9c-.1-.3-.1-.7,0-1.2,0-.2,0-.4,0-.6,0,0,0,0,0,0,0-.2,0-.3-.1-.5,0,0,0,0,0-.1,0-.1-.1-.2-.2-.3,0,0,0-.1-.1-.2,0,0-.2-.2-.3-.3,0,0-.1,0-.2-.1-.2-.1-.4-.2-.6-.3,0,0-.1,0-.2-.1-.2,0-.3-.2-.5-.2,0,0,0,0-.1,0-2.3-1-5.8-1.9-8.7-4.3,0,0-.1-.1-.2-.2-.1-.1-.2-.2-.4-.3-.3-.3-.6-.6-.9-.9-4.8-5.8-22,1.9-30.7-1-8.6-2.9-22,4.8-30.6,15.3-2.7,3.3-3.6,5.6-3.6,7.4,0,4.1,4.6,6.1,4.6,12.7s0,0,0,0h0c0,9.6,5.8,9.6,2.9,17.2,0,.2-.2.5-.2.7,0,0,0,0,0,0,0,0,0,0,0,0,8.5,3.7,5.1,14.3,6.1,20.2,1,6.3,9.3,2.7,13.9,2.3,4.7-.3-3,7.3,1,12,4,4.6,15.6-4,18,1.7.5,1.3,1.2,2.4,2,3.4,5.4-2.6,11.9-6.3,13.5-9.5.2-.5.4-.9.4-1.3h0Z" style="fill:rgb(179, 171, 198);"/>
<path d="M912.4,145.8s0,0,0,0c0,0-.9,1-2.1,2.6,0,0,0,0,0,.1,0,0,0,0,0,0-3.3,4.2-9.3,12.1-9.3,15.9s0,0,0,0c0,.2,0,.4,0,.5,0,0,0,.1,0,.2,0,.1,0,.2,0,.3,0,0,0,.2,0,.2,0,0,0,.1,0,.2,0,.2-.2.4-.3.6,0,0,0,0,0,0-1.4,2-4.6,3-7.2,4.4,2,1.8,3.8,3.5,4.4,4.4,1.9,2.9-.9,10.5,1.9,17.2.4,1,1.1,1.7,1.8,2,3.2,1.5,8.6-2.3,11.8.6.7.7,1.3,1.7,1.8,3.2,2.9,9.6-1.9,14.4-1.9,23.9s-7.7,8.7-5.7,17.3c.4,1.6,1,2.6,1.9,3,3.9,1.8,12-6,18.2-10.7,5.3-4,9.7-4.8,12.8-3.6,1.4.5,2.6,1.4,3.5,2.6.5.7,1.3,1.2,2.2,1.5,4,1.2,10.6-1.4,12.1-5.3,1.7-4.2,12.9-6.2,18.9-2.8.9.5,1.6,1.1,2.2,1.8,4.8,5.8,9.6,12.4,16.3,16.3,6.5,3.7-4.1,23.6,1.3,26.6.2,0,.4.2.6.2,1.1.3,2.2.8,3.3,1.5,6.1,3.7,12.9,12.8,12.1,22.5-.8,9.9,4.7,17-2.9,25.4,2.5,1.6,5.3,2.4,7.2,3.2,0,0,0,0,.1,0,.2,0,.4.2.5.2,0,0,.2,0,.2.1.2.1.4.2.6.3,0,0,.1,0,.2.1.1,0,.2.2.3.3,0,0,0,.1.1.2,0,0,.1.2.2.3,0,0,0,0,0,.1,0,.1,0,.3.1.5,0,0,0,0,0,0,0,.2,0,.4,0,.7-.1.5-.1.9,0,1.2.8,2.1,6.7-.2,6.7-6.9s10.5-6.7,15.3-4.8c3.8,1.5,10.4,1.2,15.9-3.2,0,0,0,0,0,0,0-2.9.2-5.6.5-7.9,0-.3,0-.6.1-.9,0,0,0-.2,0-.2.4-2.1.5-4.4.5-6.6,0-6.6-1.6-13-4.8-16.2-4.3-4.3-15.7-8.5-18.5-17.1-2.6-7.7-13.3-15.5-17.4-22.2-.4-.7-.8-1.4-1-2-2.5-6.2-9.3-12.4-11-17.7,0,0,0,0,0,0,0,0,0,0,0-.1-.2-.7-.3-1.4-.3-2.1h0c0-5.7-27-14.2-24.2-21.3.7-1.8,2.1-2.8,3.9-3.6,3.5-1.4,8.2-1.4,10.9-2.9,1.4-.7,2.3-1.8,2.3-3.6,0-7.1-5.7-7.1-7.1-17.1,0-.6-.2-1.2-.4-1.7-.2-.5-.3-1-.5-1.4-1.1-2.4-3.1-3.5-5.3-3.7-.2,0-.4,0-.6,0-.4,0-.8,0-1.2,0-.4,0-.8,0-1.2.1-.4,0-.7.1-1.1.2,0,0-.2,0-.3,0-.3,0-.7.2-1,.3-.2,0-.4.1-.6.2-1.3.5-2.5,1.1-3.5,1.7-2,1.4-6.4.8-10.3-1-4.3-1.9-8.2-5.2-8.2-9,0-7.1-11.4-11.4-11.4-17.1s-4.2-7.5-8.1-11.9c-.7.3-1.4.6-2.1.9,0,0,0,0,0,0-.4.1-.7.2-1,.3,0,0,0,0,0,0-1.3.3-2.5.5-3.6.3-.1,0-.2,0-.3,0-.2,0-.3,0-.5-.1-.1,0-.3-.1-.4-.2-.1,0-.2,0-.3-.2-.2-.1-.5-.3-.7-.5,0,0-.2-.1-.2-.2-2.6-1.7-5.8,9.2-3.3,11.7,2.7,2.7,6.2,19.5-.9,17.7-.4-.1-.8-.2-1.2-.4,0,0,0,0,0,0-.3-.1-.6-.3-.8-.4-.2-.1-.4-.2-.5-.3,0,0-.2-.1-.3-.2-4.1-3.1-4.9-9.3-8.2-9.2,0,0,0,0,0-.1-.1,0-.2,0-.3,0,0,0,0,0,0,0Z" style="fill:rgb(179, 171, 198);"/>
<path d="M949.2,368c2.9-7.7-2.9-7.7-2.9-17.2h0s0,0,0,0c0-6.6-4.5-8.6-4.6-12.7,0-1.8.9-4.1,3.6-7.4,8.6-10.6,22-18.2,30.6-15.3,8.6,2.9,25.9-4.8,30.7,1,.3.3.6.6.9.9.1.1.2.2.4.3,0,0,.1.1.2.2.5.4.9.7,1.4,1,7.6-8.5,2.1-15.6,2.9-25.4.8-9.7-5.9-18.7-12-22.5-1.1-.7-2.3-1.2-3.3-1.5-.2,0-.4-.1-.6-.2-5.5-3,5.2-22.9-1.4-26.6-6.7-3.8-11.5-10.5-16.3-16.3-.6-.7-1.3-1.3-2.2-1.8-6-3.4-17.2-1.4-18.9,2.8-1.6,3.9-8.2,6.5-12.1,5.3-.9-.3-1.7-.8-2.2-1.5-.9-1.2-2.1-2.1-3.5-2.6-3.1-1.2-7.5-.4-12.8,3.6-6.2,4.7-14.3,12.5-18.2,10.7-.9-.4-1.6-1.4-1.9-3-1.9-8.6,5.7-7.7,5.7-17.3s4.8-14.4,1.9-24c-.4-1.5-1.1-2.5-1.8-3.1-3.2-2.9-8.6,1-11.8-.6-.7-.3-1.3-1-1.8-2-2.8-6.7,0-14.4-1.9-17.2-.6-.9-2.3-2.6-4.4-4.4-1,.5-2,1.1-2.7,1.8,0,0,0,.1-.1.2,0,0-.1.1-.2.2,0,0-.1.2-.2.3,0,0,0,0,0,0-.2.2-.3.5-.4.7-1.8,4.4-16.8,5.3-20.4,11.5-3.2,5.5-11.9,5.4-15.7,5.4-.5,0-.9,0-1.2,0h0c-.3,0-.7,0-1.1,0,0,0,0,0-.1,0-.1,0-.2,0-.3,0-.2,0-.3,0-.5,0,0,0,0,0,0,0-1.4.2-3.1.5-4.8,1.1-2.7,1-5.1,2.8-5.5,5.9-.9,6.2-4.4,31-4.4,35.5s12.4,18.6,16.8,20.4c4.4,1.8-.9,12.4,4.4,15.1,5.2,2.6,2,10.9-.6,10.7,0,0-.2,0-.3,0,0,0-.2,0-.2,0-2.2,0,1.8,11.7-3.3,16-5.3,4.4-.9,16,8,24,8.9,8,8.9,20.4,8.9,27.5s7.1,8,7.1,16.8c0,0-10.3,37.4-18.8,37.1-.1,0-.3,0-.4,0-1.8,9.7-4.2,24.8-6.3,33.1-2.7,10.3-4.6,19.2,1.3,19.9,6,.7,17.9,14.3,29.5,28.9,2.8,3.6,5,7.3,6.7,11.1,4-.2,8.5,0,13,.9,2.2.4,3.9,1.1,5.3,2.1,4.4,2.9,5.7,7.8,5.7,11.2s.1.7.3,1c2.1,3.2,14.9,1.8,17.4,1.2.6-.1.8-.7,1-1.6.2-.9.3-2.1.8-3.3.7-1.6,2-3.2,5.1-4.2-4.5-6.4-16.2-14.2-25.8-15.1-11.3-1-16.6-17.9-15.6-25.6,1-7.6-8.3-14.3-8.3-20.9s-6.6-7-14.3-10.7c-7.7-3.7,1.7-26.2,2.7-35.8,1-9.6,16.9-37.2,12.3-45.8-4.7-8.6,16.3-15.3,18.9-5.7,2.7,9.6,3.6,14.3,16.9,13.6,13.3-.7,13.3,9.6,23.9,12.6.6.2,1,.5,1.6.7,0,0,0,0,0,0,0-.2.1-.5.2-.7Z" style="fill:rgb(179, 171, 198);"/>
<path d="M1105.1,603.9s0,0,0,.1c.9,2.9,1.8,5.5,2.9,7.1.8,1.2,1.6,1.9,2.4,1.9,5.3,0,13.3,13.3,18.6,9.3,5.3-4,21.2,0,29.2-2.7,8-2.6,9.3-9.3,22.6-9.3s8,10.6,21.2,4c12.5-6.2,20.3-2,20.1-11.2,0-.6,0-1.3-.1-2,0-.7-.1-1.4-.1-2.1,0-9.2,7-10.3,6.9-17.5,0-.5,0-1.1-.1-1.6,0-.3,0-.6,0-.8-.3-7.8,13.7-2.7,13.4-17.6,0-.5,0-1,0-1.5,0,0,0,0,0,0-1.2-17.2,23.9-14.5,34.5-14.5s6.3,1.5,10.6,3.6c0,0,0,0,0,0,0,0,0,0,0,0,7.9-3.9,19.1-9,13.9-13.6-6-5.3,17.9-.7,20.6-8.6,2.7-8-9.3-14.6-15.3-13.3h0c-6,1.3-19.9.7-19.9-5.3s-12.6-17.2-20.6-17.2-17.3,15.9-17.9,22.6c-.7,6.7-13.3,6-12,15.3.5,3.7-1.8,5.2-4.9,6.2,1.9,7.5,3,13.1.7,13.1-.2,0-.3,0-.5,0-.3,0-.6-.1-1-.2-4.6-.4-6.2,5.5-13.6,5.5s0,0,0,0c0,0,0,0,0,0h0,0c-2.7,0-7.3-6.9-12.2-15.8,0,0,0,0,0,0,0,0,0,0,0,0-.2,0-.3,0-.4,0-5.3,0-17.3,18.6-19.9,31.2-2.7,12.6-14.6,8.6-32.5,10-17.9,1.3-10.6,19.9-14.6,28.6-3.6,7.9-23.3-6.4-33.3-8.4.4,1.7.9,3.5,1.3,5.2,0,0,0,0,0,0Z" style="fill:rgb(179, 171, 198);"/>
<path d="M929.8,510.3c-2.5.5-15.4,2-17.4-1.3-.2-.3-.3-.6-.3-1,0-3.3-1.3-8.2-5.7-11.2-1.4-.9-3.2-1.7-5.3-2.1-4.5-.8-9-1.1-13-.9,5.3,11.8,6,24.3,6.2,34.4.3,13.3,19.9,34.6,22.9,43.2,3,8.6,8.6,11.3,21.6,20.6,13,9.3,38.2,24.2,43.2,21.9,5-2.3-7.6-24.3-14.9-31.9-7.3-7.7-.7-28.3-.3-43.2h0c.3-14.9-14-13.3-17.3-23.6-3.3-10.3-9-4.3-11-11-.3-1-.9-2.1-1.7-3.2-3.1,1-4.4,2.6-5.1,4.2-.5,1.2-.6,2.4-.8,3.3-.2.9-.4,1.5-1,1.6Z" style="fill:rgb(179, 171, 198);"/>
<path d="M1216.7,553.3s0,0,0,0c7.5,0,9.1-5.8,13.7-5.5.3,0,.6,0,1,.2.2,0,.4,0,.5,0,2.3,0,1.2-5.6-.7-13.1-4.7,1.5-11.1,1.5-11.1,5.1,0,5.8-10-2.1-15.5-2.5,0,0,0,0,0,0,4.8,9,9.4,15.8,12.2,15.8Z" style="fill:rgb(179, 171, 198);"/>
<polygon points="1216.7 553.3 1216.7 553.3 1216.7 553.3 1216.7 553.3" style="fill:rgb(179, 171, 198);"/>
<path d="M1358.2,132.9c6.6-4.6,33.9-61.8,27.9-69.7-6-8-32.6,4.6-39.8,31.2h0c-7.3,26.6,9.7,40.1,11.9,38.5Z" style="fill:rgb(179, 171, 198);"/>
<path d="M1087.2,215.2c8.6,17.9,37.2,6,37.9-2,.7-8,13.7-20.5,11.9-26.6-1.3-4.6-19.2-2-27.9-2h0c-8.6,0-30.6,12.6-21.9,30.5Z" style="fill:rgb(179, 171, 198);"/>
<path d="M654.2,7.6c0,.2,0,.5.1.7,0,.1,0,.2,0,.4.3,1.2.7,2.3,1.2,3.3,1.8-2.5,3.6-5.9,5-9.5C661,1.6,661.4.8,661.8,0h-7.2c0,.7-.2,1.5-.3,2.2-.4,1.8-.4,3.6-.1,5.4Z" style="fill:rgb(179, 171, 198);"/>
<path d="M848.8,0c.7.7,1.5,1.1,2.6,1.1s0,0,.1,0c.1,0,.2,0,.3,0,.1,0,.2,0,.3,0,0,0,0,0,.1,0,4.2,0,8.1.7,8.1,11s4,23.4-5.5,32.9c-9.5,9.4-20.4,26.4-18.4,31.4,1.7,4.2-1.6,11.6,1.5,11.7.6,0,1.4-.2,2.5-.8,2-1,4.6-1.4,7.4-1.4,7.1,0,14.8,2.6,13,5.4-2.5,4,.5,17.9,7,18.4,6.5.5,10.5,4,8.5,10-2,6-5.5,14.9,0,14.9s13.4,0,12.5,6c-.7,4.5,1.9,8.7,7.4,8.8,1.8,0,4-.4,6.5-1.4,4.4-1.8,7.1-3.4,8.8-3.1.5,0,.9.4,1.2.9,0,0,0,0,0,.1,3.3-.1,4.1,6.1,8.2,9.2,0,0,.2.1.3.2.2.1.3.2.5.3.3.2.5.3.8.4,0,0,0,0,0,0,.4.2.8.3,1.2.4,7.1,1.8,3.5-15.1.9-17.7-2.6-2.6.7-13.5,3.3-11.7,0,0,.2.1.2.2.2.2.4.3.7.5.1,0,.2.1.3.2.1,0,.3.1.4.2.2,0,.3,0,.5.1.1,0,.2,0,.3,0,1,.1,2.3,0,3.6-.3,0,0,0,0,0,0,.3,0,.7-.2,1-.3,0,0,0,0,0,0,2.9-1,6-3,8.2-5.6,4.4-5.3,13.3,4.4,16.9-1.8,1.4-2.5,3.6-2.3,6.2-1.4,1.4.5,2.9,1.2,4.5,1.7,2.8.9,5.7,1.4,8.7-.3,3-1.7,5.4-1.6,7.4-1.2,1,.2,1.9.5,2.7.7,1.9.5,3.5.5,5-2.2,3.2-5.6,13-12.7,16.8-12,0,0,0,0,0,0,.1,0,.2,0,.3,0,.2,0,.4.2.6.4,2,2,3.5,5.5,10.1,7.9,2.2.8,5,1.4,8.5,1.9,1.8.2,3.2.5,4.4.9,8,2.6,1.9,8.5,1.9,12.4s11.4,12.6,18.7,15.7c0,0,.1,0,.2,0,.2,0,.4.2.6.3,1,.4,2,.7,2.7.8,0,0,0,0,0,0,1.1.2,2.7,1.6,4.6,3.7,0,0,0,0,0,0,4.3-2.1,12,1.4,13.7-3.7,2-6,9.3-4.3,12.3.7,3,5,6.3,6,12.9,0,6.7-6,9.9,6,6,9.3-4,3.3-1.3,13.6,5,19.6,6.3,6,7.3-3.6,6-9.6-1.3-6,10.6-12,31.6-18.9,20.9-7,43.5-22.3,43.8-25.6.3-3.3,14.9,6,21.9.7,7-5.3,32.2-6,38.8-6.3,6.7-.3,6.3-6,13.3-11.6,7-5.7,5.3-8.3,13.3-10.6,8-2.3,12.9-9.6,12.9-13.6s14.9-5.3,15.3-9.6c.3-4.3,11.3-5.6,11.3-10.9s6.6-4.3,9.6-8.3c3-4-2.3-15.6,3-17.2,5.3-1.7-2-8-3-11-1-3,10-3.7,15.6-7.3C1353.1,11.7,1356.7,6.2,1357.8,0h-509Z" style="fill:rgb(179, 171, 198);"/>
<path d="M1337.6,271.7c-2,5.9.7,30.5,6,30.5s9.3,6.6,6,17.3c-3.3,10.6,9.9,12,22.6,7.3,12.6-4.7,8,8.6,20.6,6.7h0c12.6-2,29.9,13.9,27.2,19.9-2.7,6,.7,25.2,6.6,19.9,6-5.3,15.3,1.3,9.3,10-6,8.6,9.3,17.2,11.3,27.9,2,10.6,8.6,2,7.3-6-1.3-8,1.3-7.3,10-13.3s-.7-15.9-6-27.2c-5.3-11.3-25.2-7.3-25.2-17.9s-14.6-13.9-15.3-19.9c-.7-6-19.9-12-31.2-5.3-11.3,6.7-3.3-12-11.3-20.6-8-8.6,6-21.3,15.3-31.9,9.3-10.6-2.7-28.5-1.3-36.5,1.3-8,.7-10.6-4-8-4.6,2.6-23.9-8-32.5-2.7-8.6,5.3-.7,49.1-4.7,52.5-4,3.3-9.1-7.1-10.6-2.7Z" style="fill:rgb(179, 171, 198);"/>
<path d="M1386.1,373.3c-10,2-6.5,32.1,1.3,30.6h0c3.3-.7,11.3,0,11.9-6.6.7-6.6,8,11.9,2,17.9-6,6-6,22.6,3.3,24.6,9.3,2,26.6-29.9,23.9-35.9-2.7-6-10.6,4-8.6-4,2-8-23.9-28.6-33.9-26.6Z" style="fill:rgb(179, 171, 198);"/>
<path d="M1280.5,453.7c4,7.3,28.6-29.2,40.5-37.9,11.9-8.6,10-15.9,6-23.9-4-8-8.7,12.6-17.9,24.6h0c-9.3,12-31.5,31.8-28.6,37.2Z" style="fill:rgb(179, 171, 198);"/>
<path d="M1350.2,339.4c2,9.3,6.6,28.6,21.2,23.9,14.6-4.7-22.7-30.6-21.2-23.9Z" style="fill:rgb(179, 171, 198);"/>
<path d="M1465.8,430.4c6,9.9-11.3,2-12.6,11.9-1.3,10-13.9,2-13.3,10,.7,8-13.3,0-19.9-4.6-6.7-4.6-15.9,12.6-25.9,15.3-9.9,2.7-15.2,23.8-8.6,23.2,8-.7,11.9-11.3,19.9-10.6,8,.7,5.3-8,16.6-6,11.3,2,3.3,35.9,18.6,38.5,15.3,2.7,15.9,12,23.2,12s-1.3-21.2-.7-28.5c.7-7.3,15.9-.7,23.9-10h0c8-9.3-5.3-33.9-5.3-49.8s-21.9-11.3-15.9-1.4Z" style="fill:rgb(179, 171, 198);"/>
<path d="M1443.8,419.1c-5.3-6.6-18.6,5.7-16.6,10.6,2.7,6.6,21.9-4,16.6-10.6Z" style="fill:rgb(179, 171, 198);"/>
<path d="M2029.6,771.1c-16.6,6.7-46.8-7.6-47.8,2-.6,6,18.6,16.6,36.5,16.6s46.5-17.9,46.5-23.2,11.3-14.6,6.6-19.9c-4.6-5.3-14.6,2.7-14.6,8.6h0c0,6-10.6,9.3-27.2,15.9Z" style="fill:rgb(179, 171, 198);"/>
<path d="M1959.2,799c11.9.7,13.9-6,4.7-14.6-9.3-8.6-43.2-11.9-44.5-24.6-1.3-12.6-61.8-42.5-88.3-48.5-4.7-1-10.4-2.8-16.6-4.9v141.7c6.2,4.1,13.8,7.5,23.9,7.9,29.2,1.3,21.9-15.3,27.2-15.3s7.3-9.3,13.3-16.6c6-7.3,31.9-1.3,47.2,10.6,15.3,12,33.2,47.2,49.1,43.9,15.9-3.3,32.6,9.3,47.2,8.6,14.6-.7,1.3-11.9-3.3-13.9h0c-4.6-2-16.6-10-15.9-15.3.7-5.3-13.3-4.7-22.6-10.6-9.3-6-6-25.2-15.9-29.9-10-4.6-17.3-19.2-5.3-18.6Z" style="fill:rgb(179, 171, 198);"/>
<path d="M2072.8,731.3c13.3,12.6,6.1,23.3,14,21.3,12.6-3.3,3.3-16-7.3-22.6-10.6-6.7-19.9-11.3-6.7,1.3Z" style="fill:rgb(179, 171, 198);"/>
<path d="M470.9,508.1c13,8.4,33.9-13.3,34.5-31.9.7-18.6-31.5-53-36.5-52.5h0c-6,.7-4.6,12.6-8,21.3-3.3,8.6-2.6,17.2-1.3,29.9,1.3,12.6,0,25.9,11.3,33.2Z" style="fill:rgb(179, 171, 198);"/>
<path d="M2153.8,803.7c2.3-1.4,3.2-3.4,3.1-5.6,0,2.2-.8,4.1-3.1,5.6Z" style="fill:rgb(179, 171, 198);"/>
<path d="M2212.8,820.8c5.6-1.6,31.3,12.7,30.9,17.2.5-4.5-25.4-18.8-30.9-17.2Z" style="fill:rgb(179, 171, 198);"/>
<path d="M2239,859.4c0-7.4,23.5,6.7,23.8,12-.3-5.3-23.8-19.4-23.8-12Z" style="fill:rgb(179, 171, 198);"/>
<path d="M2187.7,813.8c0,.3-.2.5-.4.6.2-.2.3-.4.4-.6Z" style="fill:rgb(179, 171, 198);"/>
<path d="M2280.8,867.7c0-4.8-14.7-37.6-18.3-29.8-.6,1.4-.9,2.9-.8,4.4,0-1.6.2-3.1.8-4.4,3.5-7.8,18.3,25,18.3,29.8Z" style="fill:rgb(179, 171, 198);"/>
<path d="M2168.4,799.3c.5,3,13.7,15.8,18.1,15.4-4.5.3-17.7-12.5-18.1-15.4Z" style="fill:rgb(179, 171, 198);"/>
<path d="M2280,882.2c1,2.5,14,14.4,20.4,10,1.4-1,1.2-2.2-.1-3.5,1.3,1.3,1.5,2.5,0,3.5-6.5,4.5-19.4-7.5-20.4-10,0-.1,0-.2,0-.4,0,.1,0,.2,0,.4Z" style="fill:rgb(179, 171, 198);"/>
<path d="M2612.4,1009c6-3.5-25-22.8-22.9-12.5,2,10,16.9,15.9,22.9,12.5Z" style="fill:rgb(179, 171, 198);"/>
<path d="M2168.4,799c0,0,0,.2,0,.3.5,3,13.7,15.8,18.1,15.4.3,0,.6-.1.8-.3.2-.2.3-.4.4-.6.5-3.9-18.5-19-19.3-14.8Z" style="fill:rgb(179, 171, 198);"/>
<path d="M2280.5,868.3c.2,0,.3-.2.3-.6,0-4.8-14.7-37.6-18.3-29.8-.6,1.4-.9,2.9-.8,4.4.5,11,16.1,25.5,18.7,26Z" style="fill:rgb(179, 171, 198);"/>
<path d="M2126.2,770.7c-.1.1-.2.3-.2.5-1.3,6,19.9,37.6,27.9,32.6,2.3-1.4,3.2-3.4,3.1-5.6-.4-11.5-27.8-30.5-30.8-27.4Z" style="fill:rgb(179, 171, 198);"/>
<path d="M2300.4,892.2c1.4-1,1.2-2.2,0-3.5-4.3-4.4-20.3-9.4-20.4-6.8,0,.1,0,.2,0,.4,1,2.5,14,14.4,20.4,10Z" style="fill:rgb(179, 171, 198);"/>
<path d="M2212.8,820.8c-.6.2-1,.5-1,1.1-.5,6,25.9,20.4,31.4,16.9.3-.2.5-.5.6-.8.4-4.5-25.3-18.8-30.9-17.2Z" style="fill:rgb(179, 171, 198);"/>
<path d="M2239,859.4c0,.3,0,.6,0,.9,0,.3.1.6.2.9,2.7,9.4,16.9,14.9,22.7,11.5.2-.1.3-.2.5-.4.2-.3.3-.6.3-1-.3-5.3-23.8-19.4-23.8-12Z" style="fill:rgb(179, 171, 198);"/>
<path d="M1973.1,1661.7c8,0,1.5-25.9-1-34.3-2.5-8.5-24.4,6.5-37.9,7.9h0c-13.4,1.5-33.6-12.2-38.4-10.9-5.5,1.5,17.4,35.8,10.5,44.8-7,9,20.4,33.4,29.9,34.9,9.4,1.5,6-9.5,12.4-9s4-6.5,5-11.5c1-5,7.5,5.5,12.9,2.5,5.5-3-1.5-24.4,6.5-24.4Z" style="fill:rgb(179, 171, 198);"/>
<path d="M1480.1,965.9c-6.5,0-8,3.5-7,10.5,1,7-9.9-.5-17.4.5-7.5,1,0,9.5-4,10s-4,7.5-10.5,7.5-5.5,14.4-4.5,21.9c1,7.5-10-3.5-16.4-1.5-6.5,2,1.5,8.5,3.5,16.9,2,8.5-3.5,8-7,11.4-3.5,3.5-9-9.5-9-16.9s-8.5-.5-17.4,8.9c-9,9.5,3,23.9-1,26.4-4,2.5-21.9,19.4-32.4,31.9-10.4,12.4-32.9,5-39.8,11s-14.4,1.5-21.4,7c-7,5.5-19.9,15.9-21.4,9.5-1.5-6.5-19.4-1.5-26.9,6.5-7.5,8-19.4,14.9-27.9,15.4-8.5.5-8.5,13.4-11.9,16.4-3.5,3-2.5-10.5-2.5-13.9s-8,6-11.4,16.4c-3.5,10.4,8.5,14.4,1,25.4-7.5,11-14.4,21.9-4,35.9,10.4,13.9,16.4,22.9,12.9,29.9-3.5,7-10.9-13.9-13.4-11.4-2.5,2.5,9.5,11.4,6.5,15.9-3,4.5-13.7-17-15.9-12-2,4.5,22.4,38.4,22.9,50.8.5,12.4,19.9,24.4,18.9,42.3-1,17.9,16.9,46.8,19.9,51.3,3,4.5-7,16.4-5,29.9,2,13.4-4.5,18.4-12.9,18.4s-3.5,14,6,14.9c9.5,1,6,7.5,16.4,14.5,10.5,7,35.4,4.5,43.8,4.5s11-13,22.4-13.4c11.5-.5,10.4-4,15.9-11,5.5-6.9,31.4-5,57.8-3.5,26.4,1.5,37.8-6.5,41.8-17.5,3.4-9.3,22.4-9.9,29.9-16.9,7.5-7,13.9-7.5,33.4-6.5,19.4,1,37.4-9.4,49.8-14.4,12.4-5,35.4-3,47.3-6,11.9-3,13.9,14.9,27.4,13.4,13.4-1.5,19.4,4,26.4,3.5s6,5,12.9,6.5c7,1.5,6,7.5,1.5,14-4.5,6.4,10.4,6,19.9,18.9,9.5,13,.5,14.9,5.5,24.9,5,9.9,8.5,7.5,18.4-6.5,10-13.9,20.9-5,22.4-16.9,1.5-12,12-25.9,18.9-19.9,7,5.9-5,8.9-9.5,31.9-4.5,22.9-12.4,10.9-13.9,17.4-1.5,6.5,20.9,10,20.9-2s4-17.4,12.5-6.5c8.5,11-5,19.9-3,24.9,2,5,11.4-1.5,16.4-1,8.9.9,20.9,20.4,18.9,30.9-2,10.4-5,20.4,11.9,28.9,16.9,8.5,10.5,9.9,22.9,9.9s38.4,10,45.3,16c7,6,24.9-4.5,28.4-16.5,3.5-11.9,16.4-.5,9.5,3.5-7,4,3.5,13.5,4,7s3.5-11.9,6-4.5c2.5,7.5,11.5,7.5,14.9,13.4s7.5,10.4,7.5,5.5,2-9.5,10-12.4c8-3,12.9-8.5,21.4-15.4,8.5-7,43.3-8.5,46.8-8.5s5.5-29.9,7.5-45.3c2-15.4,14.9-17.9,16.9-34.4,2-16.4,19.4-46.8,23.9-48.3,4.5-1.5,13-6,13.4-15.4.5-9.5,12-19.9,12-31.4s6.5-24.9,5.5-28.4c-1-3.5-5-14.5,2.5-22.4,7.5-8-3-17.4,1-20.4h-.1c4-3-2-18.9-5.5-16.4-3.5,2.5-3.5-24.9-1-37.3,2.5-12.5,1-11-5.5-4.5s-13.4-12.4-14.9-17.4c-1.5-5-9-18.9-17.4-16.9-8.5,2-3-12-10.9-10.4-8,1.5-9.5-11.5-8-23.4,1.5-12-5.5-2.5-9-7.5-3.5-5-7.5-1-12.9,1-5.5,2-7-10.4-5.5-15.4,1.5-5-1-10.9-8.5-16.4-7.5-5.5-8-10-7.5-16.5.5-6.5-42.3-28.4-51.8-30.4-9.5-2-1.5-11.9-5.5-15.4-4-3.5-5.5-16.4-5.5-27.4s-13.9-14.4-13.4-23.4c.5-9-4-17.4-3-27.4,1-10-14.4-12.4-14.9-17.9s-9-.5-17.4.5c-8.5,1-8-11-7-22.4,1-11.5-3.5-30.4-10.5-35.8-7-5.5-7.5-24.4-10.9-27.4-3.5-3-14.9,10-14.5,16.4.5,6.5-1,14-5.5,17.9-4.5,4,3,19.4-3,24.9-6,5.5-.5,27.4-2,39.8-1.5,12.4-1,25.9-7,34.4s-7,21.9-18.9,26.4c-11.9,4.5-27.9-5-27.4-11.5.5-6.5-12.9-10.5-19.9-9.5-7,1-10.9-9-21.9-17.4-11-8.5-19.4,2-22.9-8-3.5-9.9-7-11.5-14.9-16.9-7.9-5.5-5.5-5.5,2-11,7.5-5.5,6-12.5,2-18.9-4-6.5,4.5-5,14.4-10.5,9.9-5.5,0-11.9,7.5-14.9,7.5-3,3-9.5-5-11-8-1.5-5.5,8-8.5,9-3,1-6-12.4-8.5-11.9-2.5.5-11.9,13.4-16.9,7-5-6.5-32.9-12-43.8-13.4-10.9-1.5-14.4-15.5-20.9-13-6.5,2.5,1,7,8.5,14.9,7.5,8-24.9,13.5-34.4,10.5-9.4-3,1.5,7-6.5,6.5-8-.5-9.5,13.4-15.9,20.4-6.5,7-2,12-9,16.4-7,4.5-7.5,9.5,1,18.9,8.5,9.5-4,10-11.5,2.5-7.5-7.5-14.9-7.5-14.4,1,.5,8.5-9,4.5-7.5-5,1.5-9.5-10.5-5-12.4-10.5-2-5.5-12.5-14.4-18.9-13.9-6.5.5-6.5,7.5-12.9,7.5Z" style="fill:rgb(179, 171, 198);"/>
<path d="M1568.2,914.1c5,4,29.9-1,28.9-7-1-6-36.4.9-28.9,7Z" style="fill:rgb(179, 171, 198);"/>
<path d="M1709.2,1496.9c5.5,5,23.9,3.5,26.9-3.5,3-7-31.8-1-26.9,3.5Z" style="fill:rgb(179, 171, 198);"/>
<path d="M2641.6,1550.6h0c-4.5,7.5-13.4-2-21.9-2s-13.4-6-13.4-13.4-2-18.4-9.9-17.9c-8,.5,2.5,8.5-.5,12.4s-5-4.5-9-4.5-8.5-5.5-8.5-15.4-8.5-9-8.5-20.4-17.9-20.4-27.9-20.4,2,17.9,7,23.9c5,6,15.9,11.4,15.4,15.9-.5,4.5,7.5,16,13.5,17.9,6,2-3.5,19.4-3.5,33.4s-10.9,11.5-18.4,20.4c-7.5,8.9,18.9,17.9,29.9,26.9,11,9-9.4,31-6.5,35.9,1.5,2.5,8.9,6,20.4,3,11.5-3,16.9-27.9,24.9-34.9,7.9-7,3-17.9,7-23.4,4-5.5,9.4-5,14.9-5s2.5-13.5,9.5-13.5,3.5-9.5,7.5-19.9c4-10.4-17.4-6.5-21.9,1Z" style="fill:rgb(179, 171, 198);"/>
<path d="M2416.5,1802.7c3.5,1,14.9-2,8.5-9.9-6.5-8-16.7,7.6-8.5,9.9Z" style="fill:rgb(179, 171, 198);"/>
<path d="M2560.4,1630.9h0c-7-5-10.4,2-17.9,5.5-7.5,3.5-12.4-16.4-21.9-8.9-9.5,7.5-1,10.4-11.5,19.4-10.5,9-6,11.9-18.4,31.4-12.4,19.4-55.3,30.4-61.8,40.8-6.5,10.4-27.9,18.9-28.4,26.9-.5,8-13.6,13.7-6,24.4,6,8.5,13.9,2.5,20.4,9,6.5,6.5,12.9,1,15.9,6.5,3,5.5,24.9,5.5,41.3-9.5,16.4-14.9,8.5-21.9,14.9-25.9,6.5-4,7.5-15.9,11.4-23.4,4-7.5,7-15.4,24.9-15.4s8.5-3.5,7.5-11.9c-1-8.5,14.9-10,14.9-20.9s21.9-20.9,17.4-29.4c-4.5-8.5,4-13.4-3-18.4Z" style="fill:rgb(179, 171, 198);"/>
<path d="M2339.1,1116c1.3,8,57.1,50.5,65.1,45.1,8-5.3-66.5-53.4-65.1-45.1Z" style="fill:rgb(179, 171, 198);"/>
<path d="M226,81.1c14.2,2.7,13.3-2.7,21.3-.9,8,1.8,13.3.9,16.8-4.4,1.1-1.7,1.2-3.9.6-6.2-1.2-5.2-5.5-11.1-8.6-14.2-3.6-3.6-8.4-10.7-9.6-18,0-.4-.1-.9-.2-1.3,0-.1,0-.2,0-.3,0-1.1,0-2.2,0-3.3,0-.3,0-.6,0-.8,0-7.5-12.5-8.2-14.1-13.9-.1-.4-.2-.8-.2-1.2C232.2,11.5,238.7,4.7,243.7,0H78.5c.4,3.8.9,6.8,2.9,7.5,5.3,1.8,12.4,16,5.3,16.8-7.1.9-13.3,2.7-20.4,6.2-7.1,3.5-15.1,12.4-14.2,23,.1,1.4.3,3.3.6,5.6,18.1.4,39.6-.5,41.9-3,3.7-4,12.3-6,17.3-2.7,5,3.3,27.2,4.6,36.2-.3,10.9-6.1,17.6,0,17.9,5.3.3,5.3,5.3,7.6,10.3,12.3,5,4.7,1.4,10,4.7,15.3,3.3,5.3,10,4.3,19.6,8.6,1.4.6,2.5,1.4,3.6,2.2,0,0,0,0,0,0,.6-.7,1.1-1.2,1.4-1.6,5.3-6.2,6.2-16.9,20.4-14.2Z" style="fill:rgb(179, 171, 198);"/>
<path d="M1475.1,719.3c2.7,10.7,21.9,16.6,27.2,7.3,5.3-9.3-30.3-19.6-27.2-7.3Z" style="fill:rgb(179, 171, 198);"/>
<path d="M1442.6,850.9h0s0,0,0,0c-.2.6-.5,1.3-.7,1.9-.7,1.8-1.5,3.6-2.6,4.5-.8.6-1.9.4-3-.2-.8-.4-1.5-1.1-2.3-1.8-.7-.7-1.4-1.4-2-2.1-12.8,5.3-19.6,20.7-10.7,25.5,8.6,4.5,21.1-7.6,28.2-16.1,1.2-1.4,2.2-2.7,3-3.8.5-.7,1.3-1.3,2.2-2,.7-.5,1.4-1,2.2-1.5-2.1-2.9-4.8-5.7-7.1-7.5h0s0,0,0,0c-2,1.4-4.4,2.4-7.3,3.1Z" style="fill:rgb(179, 171, 198);"/>
<path d="M1329.6,659.6c-6,3.3-6,23.9-17.9,43.2-12,19.2,4,21.9,13.9,22.6h0c10,.7,8.6,15.3,6.7,23.9-2,8.6-6,29.2,2.7,25.9,10.6-4,17.3-17.2,11.3-21.9s-5.3-33.9-2.7-41.2c2.7-7.3,20.6-2,14.6,9.3-6,11.3,11.3,9.9,11.3,22.6s10,6,20.6,2.7c10.6-3.3,8.7-9.3,1.3-17.3-7.3-8,5.3-19.2-4.6-25.9-10-6.6-16.6-16.6-7.3-18.6,9.3-2,37.2-17.9,33.9-24.6-3.3-6.7-42.5,1.3-45.8,13.3-3.3,12-31.2-1.3-27.9-21.9,3.3-20.6,58.4-23.9,74.4-16.6,15.9,7.3,33.2-12,39.2-23.2,6-11.3-12.6,2-23.9,9.3-11.3,7.3-41.2-.7-56.4-6-15.3-5.3-14.6,9.3-27.2,11.3-12.6,2-10,29.9-15.9,33.2Z" style="fill:rgb(179, 171, 198);"/>
<path d="M1281.8,830.2h0c-2.6,6-13.9,7.3-20.6,2.6-6.7-4.6-14.9,6.3-10.6,12,2,2.7,15.9,13.3,32.5,5.3,16.6-8,27.9-.7,31.9-9.3,4-8.6-30.6-16.6-33.2-10.6Z" style="fill:rgb(179, 171, 198);"/>
<path d="M824.2,611.7c-1.3,6.6,6,25.9,13.9,17.9,8-8-12.6-24.5-13.9-17.9Z" style="fill:rgb(179, 171, 198);"/>
<path d="M856.8,668.9c-1.3,3.3,6,16.6,10.6,12.6,4.7-4-6.4-23.1-10.6-12.6Z" style="fill:rgb(179, 171, 198);"/>
<path d="M1717.5,697.4c-8.6,0-20.6,17.9-36.5,23.3-15.9,5.3-16.6-45.8-23.9-55.8-7.3-10-47.1-17.9-51.1-6.7-4,11.3-17.8,5.3-19.3,14.6-1.3,8.6,3.3,6,11.9,6s8.6,6.6,12.6,15.3c4,8.6,27.9,2.7,35.9,2,8-.7,9.3,10.6-2,6.6-11.3-4-11.3,5.3-19.3,3.3-8-2-18.6-1.3-13.3,3.3,5.3,4.6,13.9,9.3,13.9,19.9s15.3,8.6,15.3,0,8,2.7,23.2,6.6c15.3,4,4.7,10,19.9,10.7,15.3.7,49.8,12,63.1,21.9,13.3,10,4,16.6,12.6,25.9,8.6,9.3,11.3,19.9-.7,19.9s-24.6,11.9-21.2,17.9c3.3,6,42.5-2.7,51.8-2.7s12.2,10.8,23.9,18.7v-141.7c-28.8-9.7-68.8-27.6-77-27-10,.7-11.3,17.9-19.9,17.9Z" style="fill:rgb(179, 171, 198);"/>
<path d="M1564.7,710h0c-17.3-5.3-46.8-.8-43.8,8,2.7,8,16.6,4.6,30.6,4.6s21.2,10,28.6,10,2-17.3-15.3-22.6Z" style="fill:rgb(179, 171, 198);"/>
<path d="M1073.9,709.4c0-6-17.1-3.1-12,5.3,5.3,8.6,12,.7,12-5.3Z" style="fill:rgb(179, 171, 198);"/>
<path d="M1524.2,613.7c0-4.6-4.7-23.2-15.3-8.7-10.6,14.6,3.4,50.7,11.9,49.2,7.3-1.3-6-19.3,8.7-17.9h0c14.6,1.3,7.9-7.3,7.9-16.6s-13.3-1.3-13.3-6Z" style="fill:rgb(179, 171, 198);"/>
<polygon points="1737.4 679.5 1737.4 679.5 1737.4 679.5 1737.4 679.5" style="fill:rgb(179, 171, 198);"/>
<path d="M970.3,650.9c7.3-6.7-11.3-12.6-11.3-20.6s-12-3.3-12-10-5.3-3.3-11.3-11.3c-6-8-8.6-.7-14-6.6-5.3-6-12.6-9.3-17.2-7.3-4.7,2-15.3-8.7-19.3-19.3-3.2-8.5-33.9-22.6-37.9-33.9-4-11.3-14.6-15.9-32.5-15.3-17.9.7-25-17.6-29.2-8.6-5.3,11.3,19.3,36.5,30.6,43.2,11.3,6.6,17.2,30.5,30.5,31.9,13.3,1.3,14.6,43.2,24.6,45.1,10,2,31.2,34.5,34.5,51.8,3.3,17.3,25.2,25.9,32.5,38.5,7.3,12.6,36.5,29.9,40.5,35.2,4,5.3,8,17.3,11.3,11.3,3.3-6,17.2,0,23.9.7,6.7.7,8.6-23.9,8-33.2h0c-.7-9.3,3.3-18.6,3.3-23.3s3.3-6.6,9.3-5.3c6,1.3,5.3-12.6.7-14-4.7-1.3-7.3-17.9-18.6-17.9s-9.3,9.3-2.6,10c6.7.7,10.6,6,8.6,10.6-2,4.6-4.6-4.7-13.9-4-9.3.7-3.3-11.3-14-12-10.6-.7-8.6-19.9-19.9-19.9s-11.9-9.3-4.6-15.9Z" style="fill:rgb(179, 171, 198);"/>
<path d="M1315,862.8h0c4,6,15.3,6,19.9,10,4.7,4,21.2,12.6,21.2,1.3s-45.6-18-41.2-11.3Z" style="fill:rgb(179, 171, 198);"/>
<path d="M1024.8,783.7c-7.3,12.6-13.6,1.3-10.6,13.3,2,8,10.6,3.3,16.6,3.3s3.3,11.3,11.9,12.6c8.6,1.3,37.2,9.3,39.9,3.3,2.7-6,29.2,0,42.5,10.6,13.3,10.6,43.8,11.3,55.8,9.3,11.9-2,25.2,8,29.9,1.3,4.7-6.6,13.3,10.6,26.6.7,13.3-10-21.9-6-22.6-13.9h0c-.7-8-26.6-.7-39.2-6-12.6-5.3,13.9-10,22.6-15.3,8.6-5.3-5.3-7.3-26.6-.6-21.3,6.6-45.8-14.6-46.5-5.3-.7,9.3-38.5-4-47.8-10.6-9.3-6.6-45.2-15.3-52.5-2.7Z" style="fill:rgb(179, 171, 198);"/>
<path d="M1369.5,848.2c17.9.7,33.9-9.3,45.8-10,11.9-.7,25.2-4,7.3-6.6h0c-17.9-2.6-29.9,10.6-47.8,4-17.9-6.6-44.8.1-41.8,6,2.7,5.3,18.6,6,36.5,6.7Z" style="fill:rgb(179, 171, 198);"/>
<path d="M1086.5,629.7c10,9.3,7.3,23.9,11.9,31.2,4.7,7.3,19.3,8.6,19.3,22.6s12.6,35.8,21.2,29.9c8.6-6,15.2,2.7,17.9,8.6,2.7,6,23.2-4.7,29.9-3.3,6.6,1.3,27.2,5.3,28.6,13.3,1.3,8,19.9-.7,32.5-5.3,12.6-4.7,5.3-42.5,17.3-49.8h0c11.9-7.3,14.6-21.3,13.3-34.5-1.3-13.3,29.2-14,33.9-19.3,4.7-5.3-6.7-13.9-15.3-17.9-8.6-4-1.3-12.6-7.3-17.9-6-5.3-15.9-19.3-7.3-19.9,8.6-.7-6-12.6,1.3-16.6,1-.5,2.1-1.1,3.3-1.7,0,0,0,0,0,0-4.4-2.2-8.2-3.6-10.6-3.6-10.6,0-35.8-2.6-34.5,14.5,0,0,0,0,0,0,0,.5,0,1.1,0,1.6.3,14.8-13.7,9.7-13.4,17.6,0,.3,0,.5,0,.8,0,.6.1,1.1.1,1.6,0,7.2-7,8.3-6.9,17.5,0,.7,0,1.4.1,2.1,0,.7.1,1.4.1,2.1.2,9.3-7.6,5-20.1,11.2-13.3,6.6-8-4-21.2-4s-14.6,6.7-22.6,9.3c-8,2.7-23.9-1.3-29.2,2.7-5.3,4-13.3-9.3-18.6-9.3s-1.7-.7-2.4-1.9c-1.1-1.6-2-4.2-2.9-7.1,0,0,0,0,0-.1,0,0,0,0,0,0-.5-1.7-.9-3.4-1.3-5.2,0,0,0,0,0,0-.9-.2-1.8-.3-2.6-.2-8.6.7-22.9,23.5-14.6,31.2Z" style="fill:rgb(179, 171, 198);"/>
<path d="M1439.3,857.3c1.1-.9,1.9-2.6,2.6-4.5.2-.6.5-1.3.7-1.9,0,0,0,0,0,0-.9.2-1.9.4-3,.5-.1,0-.2,0-.4,0h0c-2.6.2-5,.8-7.2,1.8.6.7,1.3,1.4,2,2.1.8.7,1.6,1.3,2.3,1.8,1.1.6,2.2.8,3,.2Z" style="fill:rgb(179, 171, 198);"/>
<path d="M1471.1,834.2h0c-9-.4-12.6,7-19.2,12.2-.6.5-1.3.9-1.9,1.3,0,0,0,0,0,0,0,0,0,0,0,0,2.3,1.7,5,4.6,7.1,7.5,12.8-7.6,45.6-17.2,47.3-21.7,2-5.3-19.9,1.3-33.2.7Z" style="fill:rgb(179, 171, 198);"/>
</g>
</svg>