<?xml version="1.0" encoding="UTF-8"?>
<svg id="b" xmlns="http://www.w3.org/2000/svg" version="1.1" viewBox="0 0 333 46.1">
  <!-- Generator: Adobe Illustrator 29.6.1, SVG Export Plug-In . SVG Version: 2.1.1 Build 9)  -->
  <defs>
    <style>
      .st0 {
        fill: #ee4023;
      }

      .st1 {
        isolation: isolate;
      }

      .st2, .st3 {
        fill: #333374;
      }

      .st3 {
        stroke: #fff;
        stroke-miterlimit: 10;
        stroke-width: 4px;
      }
    </style>
  </defs>
  <g id="c">
    <path class="st0" d="M29.9,12.5s18.5,8.7,27.9,13.2c0,0-17,10-26.6,15.4-5.3,3-1.3-28.6-1.3-28.6"/>
    <g>
      <g class="st1">
        <g class="st1">
          <path class="st2" d="M85.1,35.9c-2,0-3.7-.3-5.1-.9-1.4-.6-2.6-1.4-3.5-2.4-.9-1-1.6-2.2-2.1-3.6s-.7-2.9-.7-4.6V6.4h5.3v17.5c0,1.3.1,2.4.4,3.4.3.9.7,1.7,1.2,2.3.5.6,1.2,1,1.9,1.3.7.3,1.6.4,2.5.4s1.8-.1,2.5-.4c.8-.3,1.4-.7,1.9-1.3.5-.6,1-1.3,1.2-2.3.3-.9.4-2,.4-3.4V6.4h5.3v18c0,1.7-.2,3.2-.7,4.6s-1.2,2.6-2.1,3.6c-.9,1-2.1,1.8-3.6,2.4-1.4.6-3.2.9-5.1.9Z"/>
          <path class="st2" d="M103,14.2c1-.3,2.2-.5,3.8-.8,1.6-.2,3.3-.4,5.2-.4s3.3.2,4.5.7c1.2.5,2.1,1.2,2.9,2,.7.9,1.2,1.9,1.5,3.2s.4,2.6.4,4.1v12.2h-5v-11.5c0-1.2,0-2.2-.2-3-.2-.8-.4-1.5-.7-2-.3-.5-.8-.9-1.4-1.1-.6-.2-1.3-.4-2.2-.4s-1.3,0-2,.1c-.7,0-1.2.2-1.5.2v17.6h-5V14.2Z"/>
          <path class="st2" d="M133,7.1c0,.9-.3,1.7-.9,2.2-.6.6-1.3.8-2.2.8s-1.6-.3-2.2-.8-.9-1.3-.9-2.2.3-1.7.9-2.3,1.3-.8,2.2-.8,1.6.3,2.2.8c.6.6.9,1.3.9,2.3ZM132.4,35.3h-5V13.5h5v21.8Z"/>
        </g>
        <g class="st1">
          <path class="st2" d="M138.6,7.7l5-.8v6.6h7.7v4.2h-7.7v8.9c0,1.8.3,3,.8,3.7.6.8,1.5,1.1,2.8,1.1s1.7,0,2.4-.3c.7-.2,1.3-.4,1.7-.5l.8,4c-.6.2-1.3.5-2.3.8-.9.3-2.1.4-3.3.4s-2.9-.2-3.9-.6c-1-.4-1.9-1-2.5-1.8s-1-1.8-1.3-2.9c-.2-1.1-.4-2.4-.4-3.9V7.7Z"/>
        </g>
        <g class="st1">
          <path class="st2" d="M154.7,24.5c0-1.9.3-3.6.9-5,.6-1.4,1.3-2.6,2.3-3.6.9-1,2-1.7,3.2-2.2,1.2-.5,2.5-.7,3.7-.7,3,0,5.3.9,7,2.8s2.5,4.6,2.5,8.3,0,.6,0,.9c0,.3,0,.7,0,.9h-14.4c.1,1.8.8,3.1,1.9,4.1,1.1,1,2.7,1.4,4.8,1.4s2.3-.1,3.4-.3,1.8-.5,2.4-.7l.7,4.1c-.3.1-.7.3-1.1.4-.5.2-1,.3-1.7.4s-1.3.2-2,.3c-.7,0-1.5.1-2.2.1-1.9,0-3.6-.3-5-.9-1.4-.6-2.6-1.4-3.5-2.4s-1.6-2.2-2-3.6c-.4-1.4-.7-2.9-.7-4.5ZM169.3,22.2c0-.7,0-1.4-.3-2s-.5-1.2-.9-1.6c-.4-.5-.8-.8-1.4-1.1-.5-.3-1.2-.4-1.9-.4s-1.5.1-2,.4c-.6.3-1.1.7-1.5,1.1-.4.5-.7,1-.9,1.6-.2.6-.4,1.2-.5,1.9h9.4Z"/>
          <path class="st2" d="M198.1,34.6c-1,.3-2.3.6-3.8.8s-3.1.4-4.8.4-3.3-.3-4.6-.8c-1.4-.5-2.5-1.3-3.5-2.3-1-1-1.7-2.2-2.2-3.6-.5-1.4-.8-3-.8-4.7s.2-3.3.6-4.7c.4-1.4,1.1-2.6,1.9-3.6.8-1,1.8-1.8,3-2.3,1.2-.5,2.6-.8,4.1-.8s2,.1,2.8.4,1.5.5,2.1.8V3.8l5-.8v31.7ZM183.6,24.3c0,2.2.5,4,1.6,5.2s2.5,1.9,4.4,1.9,1.5,0,2.1-.1c.6,0,1-.1,1.4-.2v-12.5c-.4-.3-1-.6-1.8-.9s-1.5-.4-2.4-.4c-1.8,0-3.2.6-4,1.9-.8,1.2-1.3,2.9-1.3,5.1Z"/>
          <path class="st2" d="M221.5,31.4c1.9,0,3.3-.3,4.1-1,.9-.6,1.3-1.5,1.3-2.7s-.1-1.3-.4-1.8c-.3-.5-.7-1-1.2-1.4-.5-.4-1.2-.8-2-1.1-.8-.3-1.7-.7-2.7-1-1-.4-2-.8-2.9-1.2-.9-.4-1.7-1-2.5-1.6-.7-.6-1.3-1.4-1.7-2.3-.4-.9-.6-2-.6-3.2,0-2.6.9-4.7,2.7-6.1,1.8-1.5,4.3-2.2,7.4-2.2s3.4.2,4.8.6,2.5.8,3.3,1.3l-1.6,4.2c-.9-.5-2-.9-3.1-1.2s-2.3-.4-3.5-.4-2.5.3-3.3.9c-.8.6-1.2,1.4-1.2,2.5s.1,1.2.4,1.6c.3.5.6.9,1.1,1.2.5.4,1.1.7,1.7,1,.7.3,1.4.6,2.1.9,1.4.5,2.6,1,3.6,1.5,1.1.5,2,1.1,2.7,1.8.7.7,1.3,1.5,1.7,2.5.4,1,.6,2.1.6,3.5,0,2.6-.9,4.6-2.8,6.1-1.8,1.4-4.5,2.1-8.1,2.1s-2.3,0-3.3-.2c-1-.2-1.9-.3-2.6-.6-.8-.2-1.4-.5-2-.7-.6-.2-1-.4-1.3-.6l1.5-4.3c.8.4,1.8.8,3,1.2,1.3.4,2.8.6,4.6.6Z"/>
          <path class="st2" d="M236.4,7.7l5-.8v6.6h7.7v4.2h-7.7v8.9c0,1.8.3,3,.8,3.7.6.8,1.5,1.1,2.8,1.1s1.7,0,2.4-.3c.7-.2,1.3-.4,1.7-.5l.8,4c-.6.2-1.3.5-2.3.8s-2.1.4-3.3.4-2.9-.2-3.9-.6c-1-.4-1.9-1-2.5-1.8-.6-.8-1-1.8-1.3-2.9s-.4-2.4-.4-3.9V7.7Z"/>
          <path class="st2" d="M261.4,12.9c1.7,0,3.1.2,4.2.6,1.1.4,2,1,2.7,1.8s1.2,1.7,1.5,2.7c.3,1.1.4,2.2.4,3.5v13.2c-.8.2-2,.4-3.5.6s-3.3.4-5.3.4-2.5-.1-3.6-.4c-1.1-.2-2-.7-2.8-1.2-.8-.6-1.4-1.3-1.8-2.2s-.6-2-.6-3.3.2-2.3.7-3.2c.5-.9,1.1-1.6,2-2.1.8-.5,1.8-.9,2.9-1.2,1.1-.2,2.2-.4,3.4-.4s1.1,0,1.8.1c.6,0,1.3.2,2,.4v-.8c0-.6,0-1.1-.2-1.7-.1-.5-.4-1-.7-1.4-.3-.4-.8-.7-1.4-.9-.6-.2-1.3-.3-2.1-.3s-2.2,0-3.2.2c-1,.2-1.8.4-2.4.6l-.6-4.1c.6-.2,1.6-.4,2.8-.7s2.5-.3,3.9-.3ZM261.8,31.7c1.6,0,2.7,0,3.5-.2v-5.6c-.3,0-.7-.2-1.2-.2-.5,0-1.1-.1-1.8-.1s-1.1,0-1.7.1c-.6,0-1.1.2-1.5.5-.5.2-.8.5-1.1.9-.3.4-.4.9-.4,1.5,0,1.2.4,2,1.1,2.5.8.5,1.8.7,3,.7Z"/>
        </g>
        <g class="st1">
          <path class="st2" d="M276.1,7.7l5-.8v6.6h7.7v4.2h-7.7v8.9c0,1.8.3,3,.8,3.7.6.8,1.5,1.1,2.8,1.1s1.7,0,2.4-.3c.7-.2,1.3-.4,1.7-.5l.8,4c-.6.2-1.3.5-2.3.8-.9.3-2.1.4-3.3.4s-2.9-.2-3.9-.6c-1-.4-1.9-1-2.5-1.8-.6-.8-1-1.8-1.3-2.9-.2-1.1-.4-2.4-.4-3.9V7.7Z"/>
        </g>
        <g class="st1">
          <path class="st2" d="M292.2,24.5c0-1.9.3-3.6.9-5,.6-1.4,1.3-2.6,2.3-3.6.9-1,2-1.7,3.2-2.2,1.2-.5,2.5-.7,3.7-.7,3,0,5.3.9,7,2.8s2.5,4.6,2.5,8.3,0,.6,0,.9c0,.3,0,.7,0,.9h-14.4c.1,1.8.8,3.1,1.9,4.1,1.1,1,2.7,1.4,4.8,1.4s2.3-.1,3.4-.3,1.8-.5,2.4-.7l.7,4.1c-.3.1-.7.3-1.1.4s-1,.3-1.7.4-1.3.2-2,.3-1.5.1-2.2.1c-1.9,0-3.6-.3-5-.9-1.4-.6-2.6-1.4-3.5-2.4-.9-1-1.6-2.2-2-3.6-.4-1.4-.7-2.9-.7-4.5ZM306.8,22.2c0-.7,0-1.4-.3-2-.2-.6-.5-1.2-.9-1.6-.4-.5-.8-.8-1.4-1.1-.5-.3-1.2-.4-1.9-.4s-1.5.1-2,.4c-.6.3-1.1.7-1.5,1.1-.4.5-.7,1-.9,1.6-.2.6-.4,1.2-.5,1.9h9.4Z"/>
          <path class="st2" d="M322.7,31.6c1.3,0,2.3-.2,2.9-.5.6-.3.9-.9.9-1.6s-.3-1.3-1-1.8c-.7-.5-1.7-1-3.2-1.5-.9-.3-1.8-.7-2.5-1.1s-1.4-.8-2-1.3c-.6-.5-1-1.1-1.3-1.8-.3-.7-.5-1.6-.5-2.6,0-2,.7-3.6,2.2-4.7,1.5-1.2,3.5-1.7,6-1.7s2.5.1,3.7.4c1.2.2,2,.5,2.6.7l-.9,4.1c-.6-.2-1.3-.5-2.1-.7-.9-.2-1.9-.3-3-.3s-1.9.2-2.5.5c-.6.3-1,.9-1,1.6s0,.7.2,1c.1.3.3.5.6.8.3.2.7.5,1.2.7.5.2,1.1.5,1.8.7,1.2.4,2.2.9,3,1.3.8.4,1.5.9,2.1,1.5.5.5.9,1.2,1.2,1.9.2.7.4,1.5.4,2.5,0,2.1-.8,3.7-2.3,4.7s-3.7,1.6-6.6,1.6-3.5-.2-4.6-.5c-1.2-.3-2-.6-2.5-.8l.9-4.2c.8.3,1.6.6,2.7.9,1,.3,2.2.4,3.6.4Z"/>
        </g>
      </g>
      <path class="st3" d="M34.4,34.8c-4.4,8.4-14.7,11.7-23.1,7.4C2.9,37.8-.4,27.5,3.9,19c4.4-8.4,14.7-11.7,23.1-7.4,8.4,4.4,11.7,14.7,7.4,23.1Z"/>
    </g>
  </g>
</svg>