<?xml version="1.0" encoding="utf-8"?>
<svg height="100%" id="b" preserveAspectRatio="none" version="1.1" viewBox="0 0 2244.9 1255.7" width="100%" xmlns="http://www.w3.org/2000/svg">
<!-- Generator: Adobe Illustrator 29.6.1, SVG Export Plug-In . SVG Version: 2.1.1 Build 9)  -->
<defs>
</defs>
<g id="c">
<g>
<g>
<g style="isolation: isolate;">
<g style="isolation: isolate;">
<path d="M1862.4,94.2c-3,0-5.2.9-6.8,2.8-1.6,1.8-2.4,4.4-2.4,7.7s.2,3,.6,4.3c.4,1.3.9,2.4,1.7,3.3.7.9,1.7,1.6,2.8,2.1,1.1.5,2.4.8,3.9.8s1.7,0,2.4-.1c.7,0,1.2-.2,1.6-.3v-10.4h5.2v13.9c-.7.3-1.9.6-3.7.9-1.7.3-3.7.5-6,.5s-4-.3-5.7-1c-1.7-.7-3.2-1.6-4.4-2.9-1.2-1.3-2.1-2.8-2.8-4.7-.7-1.9-1-4-1-6.4s.4-4.6,1.1-6.4c.7-1.9,1.7-3.4,3-4.7,1.3-1.3,2.8-2.3,4.5-2.9,1.7-.7,3.6-1,5.5-1s2.5,0,3.6.3c1,.2,1.9.4,2.7.6.8.2,1.4.5,1.9.7.5.2.8.4,1,.5l-1.6,4.3c-.8-.5-1.9-.9-3.1-1.3-1.2-.3-2.5-.5-3.9-.5Z" style="fill: #333374;"/>
<path d="M1895,118.5c-1,.2-2.2.5-3.8.8-1.6.3-3.3.4-5.1.4s-3.2-.2-4.4-.8-2.1-1.2-2.8-2.1c-.7-.9-1.2-2-1.5-3.2-.3-1.2-.5-2.6-.5-4.1v-12.2h5v11.4c0,2.3.3,4,1,5s1.9,1.5,3.6,1.5,1.3,0,1.9,0c.7,0,1.2-.1,1.5-.2v-17.6h5v21.1Z" style="fill: #333374;"/>
<path d="M1908.6,96.8c1.7,0,3.1.2,4.2.6,1.1.4,2,1,2.7,1.8s1.2,1.7,1.5,2.7c.3,1.1.4,2.2.4,3.5v13.2c-.8.2-2,.4-3.5.6-1.6.2-3.3.4-5.3.4s-2.5-.1-3.6-.4c-1.1-.2-2-.7-2.8-1.2-.8-.6-1.4-1.3-1.8-2.2s-.6-2-.6-3.3.2-2.3.7-3.2c.5-.9,1.1-1.6,2-2.1.8-.5,1.8-.9,2.9-1.2,1.1-.2,2.2-.4,3.4-.4s1.1,0,1.8.1c.6,0,1.3.2,2,.4v-.8c0-.6,0-1.1-.2-1.7-.1-.5-.4-1-.7-1.4-.3-.4-.8-.7-1.4-.9-.6-.2-1.3-.3-2.1-.3s-2.2,0-3.2.2c-1,.2-1.8.4-2.4.6l-.6-4.1c.6-.2,1.6-.4,2.8-.7s2.5-.3,3.9-.3ZM1909.1,115.6c1.6,0,2.7,0,3.5-.2v-5.6c-.3,0-.7-.2-1.2-.2-.5,0-1.1-.1-1.8-.1s-1.1,0-1.7.1c-.6,0-1.1.2-1.5.5-.5.2-.8.5-1.1.9-.3.4-.4.9-.4,1.5,0,1.2.4,2,1.1,2.5s1.8.7,3,.7Z" style="fill: #333374;"/>
<path d="M1936.1,107.7c0-2.3-.3-3.9-.9-4.9-.6-1-1.6-1.5-3.2-1.5s-1.2,0-1.8.1c-.7,0-1.2.2-1.5.2v17.6h-5v-21.1c1-.3,2.2-.5,3.8-.8,1.6-.2,3.2-.4,5-.4s2.7.2,3.7.6,1.8.9,2.4,1.5c.3-.2.7-.5,1.2-.7.5-.2,1-.5,1.6-.7.6-.2,1.2-.4,1.9-.5.7-.1,1.3-.2,2-.2,1.7,0,3.1.2,4.2.7,1.1.5,2,1.2,2.6,2,.6.9,1.1,1.9,1.3,3.2.2,1.2.4,2.6.4,4.1v12.2h-5v-11.5c0-2.3-.3-3.9-.8-4.9-.6-1-1.6-1.5-3.2-1.5s-1.6.1-2.3.4c-.7.3-1.3.5-1.6.8.2.7.4,1.4.5,2.2s.1,1.6.1,2.5v12h-5v-11.5Z" style="fill: #333374;"/>
</g>
</g>
<g style="isolation: isolate;">
<g style="isolation: isolate;">
<path d="M1183.7,613.3c0,2-.3,3.8-1,5.3s-1.5,2.8-2.7,3.8c-1.2,1-2.6,1.7-4.3,2.2-1.7.5-3.6.7-5.6.7s-2.1,0-3.3-.1-2.5-.2-3.7-.5v-22.9c1.2-.2,2.5-.4,3.8-.5s2.5-.1,3.4-.1c2,0,3.8.2,5.5.7,1.6.5,3,1.2,4.2,2.1,1.2,1,2.1,2.2,2.7,3.7s1,3.3,1,5.5ZM1168.4,620.7c.2,0,.5,0,.9,0s.7,0,1.2,0c2.6,0,4.6-.7,5.9-2,1.3-1.3,1.9-3.2,1.9-5.5s-.6-4.3-1.8-5.6-3.2-1.9-5.8-1.9-.7,0-1.1,0-.7,0-1.1,0v14.9Z" style="fill: #333374;"/>
<path d="M1194.2,606.7c1.5,0,2.7.2,3.7.5,1,.3,1.8.8,2.4,1.5.6.6,1,1.4,1.3,2.3.2.9.4,1.9.4,3v10.5c-.7.2-1.7.3-3,.6-1.3.2-2.8.3-4.7.3s-2.2-.1-3.1-.3c-.9-.2-1.7-.5-2.4-1-.7-.5-1.2-1.1-1.6-1.8-.4-.7-.5-1.7-.5-2.7s.2-1.9.6-2.6c.4-.7,1-1.3,1.7-1.7.7-.4,1.5-.7,2.4-.9.9-.2,1.8-.3,2.8-.3s1.2,0,1.7,0c.5,0,.9.1,1.2.2v-.5c0-.9-.3-1.5-.8-2.1-.5-.5-1.4-.8-2.7-.8s-1.7,0-2.5.2c-.8.1-1.6.3-2.2.5l-.6-4.1c.3,0,.7-.2,1.1-.3.4-.1.9-.2,1.4-.3.5,0,1.1-.1,1.6-.2.6,0,1.2,0,1.7,0ZM1194.6,621.5c.5,0,1,0,1.4,0s.8,0,1.1-.1v-3.8c-.2,0-.5,0-.9-.1-.4,0-.8,0-1.1,0s-.9,0-1.3,0c-.4,0-.8.2-1.1.3-.3.2-.6.4-.7.6-.2.3-.3.6-.3,1,0,.8.3,1.3.8,1.6.5.3,1.3.5,2.2.5Z" style="fill: #333374;"/>
</g>
<g style="isolation: isolate;">
<path d="M1217.3,611.7c-.5-.1-1-.2-1.6-.4-.6-.1-1.3-.2-2-.2s-.7,0-1.1,0c-.4,0-.8.1-1,.2v13.6h-5.1v-16.9c.9-.3,2-.6,3.2-.9,1.2-.3,2.6-.4,4.1-.4s.6,0,1,0c.4,0,.8,0,1.2.1.4,0,.8.1,1.2.2s.7.2,1,.3l-.8,4.2Z" style="fill: #333374;"/>
</g>
<g style="isolation: isolate;">
<path d="M1232.8,614.8c-.5,1.7-.9,3.4-1.4,5.1-.5,1.7-1,3.4-1.6,5.1h-3.9c-.4-1-.9-2.1-1.3-3.4-.5-1.3-1-2.7-1.5-4.3-.5-1.5-1-3.2-1.6-4.9-.5-1.7-1-3.5-1.5-5.2h5.3c.2.8.4,1.7.6,2.7.2,1,.4,2,.7,3s.5,2,.8,3.1c.3,1,.5,2,.8,3,.3-1,.6-2,.9-3.1.3-1,.6-2.1.8-3.1.3-1,.5-2,.7-2.9.2-.9.4-1.8.6-2.6h3.7c.2.8.4,1.7.6,2.6.2.9.5,1.9.7,2.9.2,1,.5,2,.8,3.1.3,1,.6,2.1.8,3.1.3-1,.5-1.9.8-3,.3-1,.5-2.1.8-3.1s.5-2,.7-3c.2-1,.4-1.8.6-2.7h5.3c-.5,1.8-1,3.5-1.5,5.2-.5,1.7-1.1,3.4-1.6,4.9-.5,1.5-1,3-1.5,4.3-.5,1.3-.9,2.4-1.3,3.4h-3.9c-.6-1.7-1.1-3.4-1.7-5.1-.5-1.7-1-3.4-1.5-5.1Z" style="fill: #333374;"/>
<path d="M1254.1,602c0,.9-.3,1.7-.9,2.2-.6.5-1.3.8-2.1.8s-1.5-.3-2.1-.8c-.6-.5-.9-1.3-.9-2.2s.3-1.7.9-2.2c.6-.5,1.3-.8,2.1-.8s1.5.3,2.1.8c.6.5.9,1.3.9,2.2ZM1253.6,625h-5.1v-17.8h5.1v17.8Z" style="fill: #333374;"/>
<path d="M1258.3,607.8c.9-.2,2-.5,3.3-.7,1.4-.2,2.8-.3,4.3-.3s2.8.2,3.8.6c1,.4,1.8,1,2.4,1.7.6.7,1,1.6,1.3,2.6.2,1,.4,2.1.4,3.3v10.1h-5.1v-9.5c0-1.6-.2-2.8-.6-3.5-.4-.7-1.2-1-2.4-1s-.7,0-1.2,0-.8,0-1.1.1v13.8h-5.1v-17.2Z" style="fill: #333374;"/>
</g>
</g>
<g style="isolation: isolate;">
<g style="isolation: isolate;">
<path d="M1548.6,782.4v4.5h-8.9v24.3h-5.3v-24.3h-8.9v-4.5h23Z" style="fill: #333374;"/>
</g>
<g style="isolation: isolate;">
<path d="M1569.8,800.3c0,1.7-.2,3.3-.8,4.7-.5,1.4-1.2,2.6-2.1,3.6s-2,1.8-3.3,2.3c-1.3.6-2.7.8-4.3.8s-3-.3-4.2-.8-2.4-1.3-3.3-2.3c-.9-1-1.6-2.2-2.1-3.6-.5-1.4-.8-3-.8-4.7s.3-3.3.8-4.7c.5-1.4,1.2-2.6,2.2-3.6.9-1,2-1.8,3.3-2.3,1.3-.5,2.7-.8,4.2-.8s2.9.3,4.2.8c1.3.5,2.4,1.3,3.3,2.3s1.6,2.2,2.1,3.6.8,3,.8,4.7ZM1564.6,800.3c0-2.2-.5-3.9-1.4-5.1-.9-1.3-2.2-1.9-3.9-1.9s-3,.6-3.9,1.9-1.4,3-1.4,5.1.5,3.9,1.4,5.2,2.2,1.9,3.9,1.9,3-.6,3.9-1.9c.9-1.3,1.4-3,1.4-5.2Z" style="fill: #333374;"/>
</g>
<g style="isolation: isolate;">
<path d="M1587.6,797.6c-.6,2.4-1.3,4.8-2.1,7.1-.7,2.3-1.5,4.5-2.2,6.6h-4.1c-.6-1.3-1.1-2.7-1.8-4.4s-1.2-3.4-1.8-5.2c-.6-1.9-1.2-3.8-1.8-5.9-.6-2.1-1.2-4.2-1.8-6.3h5.3c.3,1.2.5,2.4.9,3.8.3,1.3.7,2.7,1,4.1s.7,2.8,1.1,4.1.8,2.6,1.2,3.7c.4-1.3.8-2.6,1.2-4,.4-1.4.8-2.7,1.1-4.1.4-1.4.7-2.7,1-4,.3-1.3.6-2.5.9-3.6h3.9c.2,1.1.5,2.4.8,3.6.3,1.3.6,2.6,1,4,.3,1.4.7,2.7,1.1,4.1.4,1.4.8,2.7,1.2,4,.4-1.1.7-2.3,1.1-3.7s.8-2.7,1.2-4.1.7-2.8,1.1-4.1.6-2.6.9-3.8h5.2c-.6,2.1-1.2,4.2-1.8,6.3-.6,2.1-1.2,4-1.8,5.9s-1.2,3.6-1.8,5.2-1.2,3.1-1.8,4.4h-4.1c-.7-2.1-1.5-4.2-2.2-6.6-.8-2.3-1.5-4.7-2.1-7.1Z" style="fill: #333374;"/>
<path d="M1607.1,790.2c1-.3,2.2-.5,3.8-.8,1.6-.2,3.3-.4,5.2-.4s3.3.2,4.5.7c1.2.5,2.1,1.2,2.9,2,.7.9,1.2,1.9,1.5,3.2.3,1.2.4,2.6.4,4.1v12.2h-5v-11.5c0-1.2,0-2.2-.2-3-.2-.8-.4-1.5-.8-2-.3-.5-.8-.9-1.4-1.1-.6-.2-1.3-.4-2.2-.4s-1.3,0-2,.1c-.7,0-1.2.2-1.5.2v17.6h-5v-21.1Z" style="fill: #333374;"/>
<path d="M1636.9,807.6c1.3,0,2.3-.2,2.9-.5s.9-.9.9-1.6-.3-1.3-1-1.8c-.7-.5-1.7-1-3.2-1.5-.9-.3-1.8-.7-2.5-1.1-.8-.4-1.4-.8-2-1.3-.6-.5-1-1.1-1.3-1.8-.3-.7-.5-1.6-.5-2.6,0-2,.7-3.6,2.2-4.7,1.5-1.2,3.5-1.7,6-1.7s2.5.1,3.7.4c1.2.2,2,.5,2.6.7l-.9,4.1c-.6-.2-1.3-.5-2.1-.7-.9-.2-1.9-.3-3-.3s-1.9.2-2.5.5c-.6.3-1,.9-1,1.6s0,.7.2,1c.1.3.3.5.6.8s.7.5,1.2.7c.5.2,1.1.5,1.8.7,1.2.4,2.2.9,3,1.3.8.4,1.5.9,2.1,1.5.5.5.9,1.2,1.2,1.9s.4,1.5.4,2.5c0,2.1-.8,3.7-2.3,4.7-1.5,1.1-3.7,1.6-6.6,1.6s-3.5-.2-4.6-.5c-1.2-.3-2-.6-2.5-.8l.9-4.2c.7.3,1.6.6,2.7.9,1,.3,2.2.4,3.6.4Z" style="fill: #333374;"/>
<path d="M1656.1,811.3c-1.4-2.9-2.8-6.1-4.3-9.9-1.5-3.7-2.8-7.7-4-11.9h5.4c.3,1.2.7,2.5,1.1,3.9.4,1.4.8,2.8,1.3,4.2s.9,2.8,1.4,4.1c.5,1.3.9,2.5,1.4,3.6.4-1.1.9-2.2,1.3-3.6.5-1.3.9-2.7,1.4-4.1s.9-2.8,1.3-4.2c.4-1.4.8-2.7,1.1-3.9h5.2c-1.2,4.2-2.5,8.2-4,11.9-1.5,3.7-2.9,7-4.3,9.9h-4.3Z" style="fill: #333374;"/>
<path d="M1678,783.1c0,.9-.3,1.7-.9,2.2-.6.6-1.3.8-2.2.8s-1.6-.3-2.2-.8-.9-1.3-.9-2.2.3-1.7.9-2.3,1.3-.8,2.2-.8,1.6.3,2.2.8c.6.6.9,1.3.9,2.3ZM1677.5,811.3h-5v-21.8h5v21.8Z" style="fill: #333374;"/>
<path d="M1691.5,811.7c-1.5,0-2.7-.2-3.7-.5-1-.3-1.8-.7-2.4-1.3-.6-.6-1-1.3-1.2-2.1-.2-.8-.4-1.8-.4-2.9v-25.1l5-.8v25c0,.6,0,1.1.1,1.5,0,.4.3.8.5,1.1.2.3.6.5,1,.7.4.2,1,.3,1.6.4l-.7,4.2Z" style="fill: #333374;"/>
<path d="M1703.8,811.7c-1.5,0-2.7-.2-3.7-.5-1-.3-1.8-.7-2.4-1.3-.6-.6-1-1.3-1.2-2.1-.2-.8-.4-1.8-.4-2.9v-25.1l5-.8v25c0,.6,0,1.1.1,1.5,0,.4.3.8.5,1.1.2.3.6.5,1,.7.4.2,1,.3,1.6.4l-.7,4.2Z" style="fill: #333374;"/>
<path d="M1707.4,800.5c0-1.9.3-3.6.9-5,.6-1.4,1.3-2.6,2.3-3.6.9-1,2-1.7,3.2-2.2,1.2-.5,2.5-.7,3.8-.7,3,0,5.3.9,7,2.8,1.7,1.9,2.5,4.6,2.5,8.3s0,.6,0,.9c0,.3,0,.7,0,.9h-14.4c.1,1.8.8,3.1,1.9,4.1,1.1,1,2.7,1.4,4.8,1.4s2.3-.1,3.4-.3c1-.2,1.8-.5,2.4-.7l.7,4.1c-.3.1-.7.3-1.1.4-.5.2-1,.3-1.7.4s-1.3.2-2,.3c-.7,0-1.5.1-2.2.1-1.9,0-3.6-.3-5-.9-1.4-.6-2.6-1.4-3.5-2.4-.9-1-1.6-2.2-2-3.6-.4-1.4-.7-2.9-.7-4.5ZM1722,798.2c0-.7,0-1.4-.3-2s-.5-1.2-.9-1.6c-.4-.5-.8-.8-1.4-1.1-.5-.3-1.2-.4-1.9-.4s-1.5.1-2,.4c-.6.3-1.1.7-1.5,1.1-.4.5-.7,1-.9,1.6-.2.6-.4,1.2-.5,1.9h9.4Z" style="fill: #333374;"/>
</g>
</g>
<g style="isolation: isolate;">
<g style="isolation: isolate;">
<path d="M719.2,374.3c.6,1.1,1.3,2.3,2,3.9.8,1.5,1.5,3.1,2.3,4.8.8,1.7,1.5,3.4,2.3,5.1.8,1.7,1.5,3.3,2.1,4.8.6-1.5,1.3-3.1,2.1-4.8.7-1.7,1.5-3.4,2.3-5.1.8-1.7,1.5-3.3,2.3-4.8.8-1.5,1.4-2.8,2-3.9h4.7c.3,2.1.5,4.4.7,6.7.2,2.4.4,4.8.6,7.3s.4,5,.5,7.5.3,5,.4,7.4h-5.2c-.1-3.4-.2-6.8-.4-10.4-.2-3.6-.4-7-.7-10.3-.3.6-.7,1.4-1.1,2.3-.4.9-.9,1.9-1.3,2.9-.5,1-1,2.1-1.4,3.2-.5,1.1-1,2.2-1.4,3.2-.5,1-.9,2-1.3,2.9-.4.9-.7,1.7-1,2.3h-3.9c-.3-.6-.6-1.4-1-2.3-.4-.9-.8-1.9-1.3-2.9-.5-1-.9-2.1-1.4-3.2-.5-1.1-1-2.2-1.4-3.2-.5-1-.9-2-1.3-2.9-.4-.9-.8-1.7-1.1-2.3-.3,3.3-.5,6.8-.7,10.3-.2,3.6-.3,7-.4,10.4h-5.2c.1-2.4.2-4.9.4-7.4.2-2.6.3-5.1.5-7.6.2-2.5.4-5,.6-7.3.2-2.4.5-4.5.7-6.5h4.9Z" style="fill: #333374;"/>
<path d="M756.7,380.8c1.7,0,3.1.2,4.2.6,1.1.4,2,1,2.7,1.8.7.8,1.2,1.7,1.5,2.7.3,1.1.4,2.2.4,3.5v13.2c-.8.2-2,.4-3.5.6-1.6.2-3.3.4-5.3.4s-2.5-.1-3.6-.4c-1.1-.2-2-.7-2.8-1.2-.8-.6-1.4-1.3-1.8-2.2-.4-.9-.6-2-.6-3.3s.2-2.3.7-3.2c.5-.9,1.1-1.6,2-2.1.8-.5,1.8-.9,2.9-1.2,1.1-.2,2.2-.4,3.4-.4s1.1,0,1.8.1c.6,0,1.3.2,2,.4v-.8c0-.6,0-1.1-.2-1.7-.1-.5-.4-1-.7-1.4-.3-.4-.8-.7-1.4-.9-.6-.2-1.3-.3-2.1-.3s-2.2,0-3.2.2c-1,.2-1.8.4-2.4.6l-.6-4.1c.6-.2,1.6-.4,2.8-.7,1.2-.2,2.5-.3,3.9-.3ZM757.1,399.6c1.6,0,2.7,0,3.5-.2v-5.6c-.3,0-.7-.2-1.2-.2-.5,0-1.1-.1-1.7-.1s-1.1,0-1.7.1c-.6,0-1.1.2-1.5.5-.5.2-.8.5-1.1.9-.3.4-.4.9-.4,1.5,0,1.2.4,2,1.1,2.5s1.8.7,3,.7Z" style="fill: #333374;"/>
<path d="M776.8,389.9c.6-.7,1.3-1.4,2-2.1.7-.8,1.4-1.5,2.1-2.3.7-.8,1.4-1.5,2-2.2s1.2-1.3,1.6-1.9h6c-1.4,1.6-2.8,3.2-4.4,4.8-1.5,1.7-3.1,3.3-4.6,4.9.8.7,1.7,1.5,2.6,2.5.9,1,1.8,2,2.7,3.1.9,1.1,1.7,2.2,2.4,3.3.7,1.1,1.4,2.1,1.9,3.1h-5.8c-.5-.9-1.1-1.8-1.7-2.7-.7-.9-1.4-1.9-2.1-2.7-.7-.9-1.5-1.7-2.3-2.5-.8-.8-1.5-1.5-2.3-2v10h-5v-31.5l5-.8v19Z" style="fill: #333374;"/>
<path d="M801.9,380.8c1.7,0,3.1.2,4.2.6,1.1.4,2,1,2.7,1.8.7.8,1.2,1.7,1.5,2.7.3,1.1.4,2.2.4,3.5v13.2c-.8.2-2,.4-3.5.6-1.6.2-3.3.4-5.3.4s-2.5-.1-3.6-.4c-1.1-.2-2-.7-2.8-1.2-.8-.6-1.4-1.3-1.8-2.2-.4-.9-.6-2-.6-3.3s.2-2.3.7-3.2c.5-.9,1.1-1.6,2-2.1.8-.5,1.8-.9,2.9-1.2,1.1-.2,2.2-.4,3.4-.4s1.1,0,1.8.1c.6,0,1.3.2,2,.4v-.8c0-.6,0-1.1-.2-1.7-.1-.5-.4-1-.7-1.4-.3-.4-.8-.7-1.4-.9-.6-.2-1.3-.3-2.1-.3s-2.2,0-3.2.2c-1,.2-1.8.4-2.4.6l-.6-4.1c.6-.2,1.6-.4,2.8-.7,1.2-.2,2.5-.3,3.9-.3ZM802.3,399.6c1.6,0,2.7,0,3.5-.2v-5.6c-.3,0-.7-.2-1.2-.2-.5,0-1.1-.1-1.7-.1s-1.1,0-1.7.1c-.6,0-1.1.2-1.5.5-.5.2-.8.5-1.1.9-.3.4-.4.9-.4,1.5,0,1.2.4,2,1.1,2.5s1.8.7,3,.7Z" style="fill: #333374;"/>
<path d="M822.4,399.5c1.3,0,2.3-.2,2.9-.5.6-.3.9-.9.9-1.6s-.3-1.3-1-1.8c-.7-.5-1.7-1-3.2-1.5-.9-.3-1.8-.7-2.5-1.1-.8-.4-1.4-.8-2-1.3-.6-.5-1-1.1-1.3-1.8-.3-.7-.5-1.6-.5-2.6,0-2,.7-3.6,2.2-4.7,1.5-1.2,3.5-1.7,6-1.7s2.5.1,3.7.4c1.2.2,2,.5,2.6.7l-.9,4.1c-.6-.2-1.3-.5-2.1-.7-.9-.2-1.9-.3-3-.3s-1.9.2-2.5.5c-.6.3-1,.9-1,1.6s0,.7.2,1c.1.3.3.5.6.8.3.2.7.5,1.2.7.5.2,1.1.5,1.8.7,1.2.4,2.2.9,3,1.3.8.4,1.5.9,2.1,1.5.5.5.9,1.2,1.2,1.9s.4,1.5.4,2.5c0,2.1-.8,3.7-2.3,4.7-1.5,1.1-3.7,1.6-6.6,1.6s-3.5-.2-4.6-.5-2-.6-2.5-.8l.9-4.2c.7.3,1.6.6,2.7.9,1,.3,2.2.4,3.6.4Z" style="fill: #333374;"/>
<path d="M841.4,399.5c1.3,0,2.3-.2,2.9-.5.6-.3.9-.9.9-1.6s-.3-1.3-1-1.8c-.7-.5-1.7-1-3.2-1.5-.9-.3-1.8-.7-2.5-1.1-.8-.4-1.4-.8-2-1.3-.6-.5-1-1.1-1.3-1.8-.3-.7-.5-1.6-.5-2.6,0-2,.7-3.6,2.2-4.7,1.5-1.2,3.5-1.7,6-1.7s2.5.1,3.7.4c1.2.2,2,.5,2.6.7l-.9,4.1c-.6-.2-1.3-.5-2.1-.7-.9-.2-1.9-.3-3-.3s-1.9.2-2.5.5c-.6.3-1,.9-1,1.6s0,.7.2,1c.1.3.3.5.6.8.3.2.7.5,1.2.7.5.2,1.1.5,1.8.7,1.2.4,2.2.9,3,1.3.8.4,1.5.9,2.1,1.5.5.5.9,1.2,1.2,1.9s.4,1.5.4,2.5c0,2.1-.8,3.7-2.3,4.7-1.5,1.1-3.7,1.6-6.6,1.6s-3.5-.2-4.6-.5-2-.6-2.5-.8l.9-4.2c.7.3,1.6.6,2.7.9,1,.3,2.2.4,3.6.4Z" style="fill: #333374;"/>
<path d="M862.2,380.8c1.7,0,3.1.2,4.2.6,1.1.4,2,1,2.7,1.8.7.8,1.2,1.7,1.5,2.7.3,1.1.4,2.2.4,3.5v13.2c-.8.2-2,.4-3.5.6-1.6.2-3.3.4-5.3.4s-2.5-.1-3.6-.4c-1.1-.2-2-.7-2.8-1.2-.8-.6-1.4-1.3-1.8-2.2-.4-.9-.6-2-.6-3.3s.2-2.3.7-3.2c.5-.9,1.1-1.6,2-2.1.8-.5,1.8-.9,2.9-1.2,1.1-.2,2.2-.4,3.4-.4s1.1,0,1.8.1c.6,0,1.3.2,2,.4v-.8c0-.6,0-1.1-.2-1.7-.1-.5-.4-1-.7-1.4-.3-.4-.8-.7-1.4-.9-.6-.2-1.3-.3-2.1-.3s-2.2,0-3.2.2c-1,.2-1.8.4-2.4.6l-.6-4.1c.6-.2,1.6-.4,2.8-.7,1.2-.2,2.5-.3,3.9-.3ZM862.7,399.6c1.6,0,2.7,0,3.5-.2v-5.6c-.3,0-.7-.2-1.2-.2-.5,0-1.1-.1-1.7-.1s-1.1,0-1.7.1c-.6,0-1.1.2-1.5.5-.5.2-.8.5-1.1.9-.3.4-.4.9-.4,1.5,0,1.2.4,2,1.1,2.5s1.8.7,3,.7Z" style="fill: #333374;"/>
<path d="M889.7,385.9c-.4-.1-1-.3-1.7-.4-.7-.2-1.6-.2-2.6-.2s-1.1,0-1.8.2c-.6.1-1.1.2-1.3.3v17.5h-5v-20.7c1-.4,2.2-.7,3.6-1,1.5-.3,3.1-.5,4.9-.5s.7,0,1.2,0c.4,0,.9,0,1.3.2.4,0,.9.2,1.3.2.4,0,.8.2,1,.3l-.9,4.2Z" style="fill: #333374;"/>
</g>
</g>
<g style="isolation: isolate;">
<g style="isolation: isolate;">
<path d="M1440.2,448.6c4.2,0,7.4.8,9.6,2.3,2.2,1.5,3.4,3.9,3.4,7.2s-.3,3.1-.9,4.4c-.6,1.2-1.5,2.2-2.6,3-1.1.8-2.5,1.3-4.2,1.7-1.6.4-3.5.5-5.6.5h-2.6v10.2h-5.2v-28.5c1.2-.3,2.6-.5,4.1-.6,1.5,0,2.9-.1,4.1-.1ZM1440.6,453.2c-1.3,0-2.4,0-3.3.1v9.8h2.5c2.5,0,4.5-.4,5.8-1.1,1.4-.7,2-2,2-4s-.2-1.7-.5-2.4c-.4-.6-.9-1.1-1.5-1.5-.6-.4-1.4-.6-2.3-.8s-1.8-.2-2.8-.2Z" style="fill: #333374;"/>
<path d="M1475.6,477.1c-1,.2-2.2.5-3.8.8-1.6.3-3.3.4-5.1.4s-3.2-.2-4.4-.8c-1.2-.5-2.1-1.2-2.8-2.1-.7-.9-1.2-2-1.5-3.2-.3-1.2-.5-2.6-.5-4.1v-12.2h5v11.4c0,2.3.3,4,1,5,.7,1,1.9,1.5,3.6,1.5s1.3,0,1.9,0c.7,0,1.2-.1,1.5-.2v-17.6h5v21.1Z" style="fill: #333374;"/>
<path d="M1501.7,466.9c0,1.7-.2,3.2-.6,4.6-.4,1.4-1,2.6-1.9,3.6s-1.8,1.8-3,2.3c-1.2.6-2.6.8-4.1.8s-2-.1-2.8-.4c-.9-.2-1.6-.5-2.1-.8v8.5h-5v-28.8c1-.3,2.3-.5,3.8-.8s3.1-.4,4.7-.4,3.3.3,4.6.8c1.4.5,2.5,1.3,3.5,2.3,1,1,1.7,2.2,2.2,3.6.5,1.4.8,3,.8,4.7ZM1496.5,467c0-2.2-.5-4-1.5-5.2-1-1.2-2.6-1.9-4.9-1.9s-1,0-1.5,0c-.5,0-1,.1-1.5.3v12.5c.4.3,1,.6,1.8.9.7.3,1.5.4,2.4.4,1.8,0,3.2-.6,4-1.9.8-1.2,1.3-2.9,1.3-5Z" style="fill: #333374;"/>
<path d="M1524.7,477.1c-1,.2-2.2.5-3.8.8-1.6.3-3.3.4-5.1.4s-3.2-.2-4.4-.8-2.1-1.2-2.8-2.1c-.7-.9-1.2-2-1.5-3.2-.3-1.2-.5-2.6-.5-4.1v-12.2h5v11.4c0,2.3.3,4,1,5s1.9,1.5,3.6,1.5,1.3,0,1.9,0c.7,0,1.2-.1,1.5-.2v-17.6h5v21.1Z" style="fill: #333374;"/>
<path d="M1538.4,455.5c1.7,0,3.1.2,4.2.6,1.1.4,2,1,2.7,1.8.7.8,1.2,1.7,1.5,2.7.3,1.1.4,2.2.4,3.5v13.2c-.8.2-2,.4-3.5.6-1.6.2-3.3.4-5.3.4s-2.5-.1-3.6-.4-2-.7-2.8-1.2c-.8-.6-1.4-1.3-1.8-2.2-.4-.9-.6-2-.6-3.3s.2-2.3.7-3.2c.5-.9,1.1-1.6,2-2.1.8-.5,1.8-.9,2.9-1.2,1.1-.2,2.2-.4,3.4-.4s1.1,0,1.8.1c.6,0,1.3.2,2,.4v-.8c0-.6,0-1.1-.2-1.7s-.4-1-.7-1.4c-.3-.4-.8-.7-1.4-.9-.6-.2-1.3-.3-2.1-.3s-2.2,0-3.2.2c-1,.2-1.8.4-2.4.6l-.6-4.1c.6-.2,1.6-.4,2.8-.7,1.2-.2,2.5-.3,3.9-.3ZM1538.8,474.3c1.6,0,2.7,0,3.5-.2v-5.6c-.3,0-.7-.2-1.2-.2-.5,0-1.1-.1-1.7-.1s-1.1,0-1.7.1c-.6,0-1.1.2-1.5.5-.5.2-.8.5-1.1.9-.3.4-.4.9-.4,1.5,0,1.2.4,2,1.1,2.5s1.8.7,3,.7Z" style="fill: #333374;"/>
</g>
</g>
<g style="isolation: isolate;">
<g style="isolation: isolate;">
<path d="M1451.5,511.7c-.9-1.6-2-3.3-3.2-5.1-1.2-1.8-2.4-3.7-3.6-5.5-1.2-1.8-2.5-3.6-3.8-5.4-1.3-1.7-2.5-3.3-3.7-4.7v20.7h-5.2v-28.9h4.3c1.1,1.2,2.3,2.5,3.6,4.1,1.3,1.6,2.6,3.3,3.9,5,1.3,1.7,2.5,3.5,3.7,5.2,1.2,1.7,2.3,3.4,3.2,4.9v-19.2h5.2v28.9h-4.5Z" style="fill: #333374;"/>
<path d="M1461.4,500.9c0-1.9.3-3.6.9-5,.6-1.4,1.3-2.6,2.3-3.6s2-1.7,3.2-2.2c1.2-.5,2.5-.7,3.7-.7,3,0,5.3.9,7,2.8s2.5,4.6,2.5,8.3,0,.6,0,.9c0,.3,0,.7,0,.9h-14.4c.1,1.8.8,3.1,1.9,4.1,1.1,1,2.7,1.4,4.8,1.4s2.3-.1,3.4-.3c1-.2,1.8-.5,2.4-.7l.7,4.1c-.3.1-.7.3-1.1.4-.5.2-1,.3-1.7.4s-1.3.2-2,.3c-.7,0-1.5.1-2.2.1-1.9,0-3.6-.3-5-.9-1.4-.6-2.6-1.4-3.5-2.4-.9-1-1.6-2.2-2-3.6-.4-1.4-.7-2.9-.7-4.5ZM1476,498.7c0-.7,0-1.4-.3-2s-.5-1.2-.9-1.6c-.4-.5-.8-.8-1.4-1.1-.5-.3-1.2-.4-1.9-.4s-1.5.1-2,.4c-.6.3-1.1.7-1.5,1.1-.4.5-.7,1-.9,1.6-.2.6-.4,1.2-.5,1.9h9.4Z" style="fill: #333374;"/>
<path d="M1499.4,498c-.6,2.4-1.3,4.8-2.1,7.1-.7,2.3-1.5,4.5-2.2,6.6h-4.1c-.6-1.3-1.1-2.7-1.8-4.4-.6-1.6-1.2-3.4-1.8-5.2s-1.2-3.8-1.8-5.9c-.6-2.1-1.2-4.2-1.8-6.3h5.3c.3,1.2.5,2.4.9,3.8s.7,2.7,1,4.1.7,2.8,1.1,4.1.8,2.6,1.2,3.7c.4-1.3.8-2.6,1.2-4,.4-1.4.8-2.7,1.1-4.1s.7-2.7,1-4c.3-1.3.6-2.5.9-3.6h3.9c.2,1.1.5,2.4.8,3.6.3,1.3.6,2.6,1,4,.3,1.4.7,2.7,1.1,4.1.4,1.4.8,2.7,1.2,4,.4-1.1.7-2.3,1.1-3.7s.8-2.7,1.2-4.1.7-2.8,1.1-4.1c.3-1.3.6-2.6.9-3.8h5.2c-.6,2.1-1.2,4.2-1.8,6.3-.6,2.1-1.2,4-1.8,5.9s-1.2,3.6-1.8,5.2c-.6,1.6-1.2,3.1-1.8,4.4h-4.1c-.7-2.1-1.5-4.2-2.2-6.6-.8-2.3-1.5-4.7-2.1-7.1Z" style="fill: #333374;"/>
<path d="M1542.4,486.8c-3,0-5.2.9-6.8,2.8-1.6,1.8-2.4,4.4-2.4,7.7s.2,3,.6,4.3c.4,1.3.9,2.4,1.7,3.3.7.9,1.7,1.6,2.8,2.1,1.1.5,2.4.8,3.9.8s1.7,0,2.4-.1c.7,0,1.2-.2,1.6-.3v-10.4h5.2v13.9c-.7.3-1.9.6-3.7.9-1.7.3-3.7.5-6,.5s-4-.3-5.7-1c-1.7-.7-3.2-1.6-4.4-2.9-1.2-1.3-2.1-2.8-2.8-4.7-.7-1.9-1-4-1-6.4s.4-4.6,1.1-6.4c.7-1.9,1.7-3.4,3-4.7,1.3-1.3,2.8-2.3,4.5-2.9,1.7-.7,3.6-1,5.5-1s2.5,0,3.6.3c1,.2,1.9.4,2.7.6.8.2,1.4.5,1.9.7.5.2.8.4,1,.5l-1.6,4.3c-.8-.5-1.9-.9-3.1-1.3-1.2-.3-2.5-.5-3.9-.5Z" style="fill: #333374;"/>
<path d="M1574.9,511.1c-1,.2-2.2.5-3.8.8-1.6.3-3.3.4-5.1.4s-3.2-.2-4.4-.8-2.1-1.2-2.8-2.1c-.7-.9-1.2-2-1.5-3.2-.3-1.2-.5-2.6-.5-4.1v-12.2h5v11.4c0,2.3.3,4,1,5s1.9,1.5,3.6,1.5,1.3,0,1.9,0c.7,0,1.2-.1,1.5-.2v-17.6h5v21.1Z" style="fill: #333374;"/>
<path d="M1587,483.6c0,.9-.3,1.7-.9,2.2-.6.6-1.3.8-2.2.8s-1.6-.3-2.2-.8c-.6-.6-.9-1.3-.9-2.2s.3-1.7.9-2.3c.6-.6,1.3-.8,2.2-.8s1.6.3,2.2.8c.6.6.9,1.3.9,2.3ZM1586.4,511.7h-5v-21.8h5v21.8Z" style="fill: #333374;"/>
<path d="M1592.9,490.6c1-.3,2.2-.5,3.8-.8s3.3-.4,5.2-.4,3.3.2,4.5.7c1.2.5,2.1,1.2,2.9,2,.7.9,1.2,1.9,1.5,3.2.3,1.2.4,2.6.4,4.1v12.2h-5v-11.5c0-1.2,0-2.2-.2-3-.2-.8-.4-1.5-.8-2-.3-.5-.8-.9-1.4-1.1-.6-.2-1.3-.4-2.2-.4s-1.3,0-2,.1c-.7,0-1.2.2-1.5.2v17.6h-5v-21.1Z" style="fill: #333374;"/>
<path d="M1616,500.9c0-1.9.3-3.6.9-5,.6-1.4,1.3-2.6,2.3-3.6.9-1,2-1.7,3.2-2.2,1.2-.5,2.5-.7,3.8-.7,3,0,5.3.9,7,2.8,1.7,1.9,2.5,4.6,2.5,8.3s0,.6,0,.9c0,.3,0,.7,0,.9h-14.4c.1,1.8.8,3.1,1.9,4.1,1.1,1,2.7,1.4,4.8,1.4s2.3-.1,3.4-.3c1-.2,1.8-.5,2.4-.7l.7,4.1c-.3.1-.7.3-1.1.4-.5.2-1,.3-1.7.4s-1.3.2-2,.3c-.7,0-1.5.1-2.2.1-1.9,0-3.6-.3-5-.9-1.4-.6-2.6-1.4-3.5-2.4-.9-1-1.6-2.2-2-3.6-.4-1.4-.7-2.9-.7-4.5ZM1630.6,498.7c0-.7,0-1.4-.3-2s-.5-1.2-.9-1.6c-.4-.5-.8-.8-1.4-1.1-.5-.3-1.2-.4-1.9-.4s-1.5.1-2,.4-1.1.7-1.5,1.1c-.4.5-.7,1-.9,1.6-.2.6-.4,1.2-.5,1.9h9.4Z" style="fill: #333374;"/>
<path d="M1648.3,489.4c1.7,0,3.1.2,4.2.6,1.1.4,2,1,2.7,1.8.7.8,1.2,1.7,1.5,2.7.3,1.1.4,2.2.4,3.5v13.2c-.8.2-2,.4-3.5.6-1.6.2-3.3.4-5.3.4s-2.5-.1-3.6-.4-2-.7-2.8-1.2c-.8-.6-1.4-1.3-1.8-2.2-.4-.9-.6-2-.6-3.3s.2-2.3.7-3.2c.5-.9,1.1-1.6,2-2.1.8-.5,1.8-.9,2.9-1.2,1.1-.2,2.2-.4,3.4-.4s1.1,0,1.8.1c.6,0,1.3.2,2,.4v-.8c0-.6,0-1.1-.2-1.7s-.4-1-.7-1.4c-.3-.4-.8-.7-1.4-.9-.6-.2-1.3-.3-2.1-.3s-2.2,0-3.2.2c-1,.2-1.8.4-2.4.6l-.6-4.1c.6-.2,1.6-.4,2.8-.7,1.2-.2,2.5-.3,3.9-.3ZM1648.7,508.2c1.6,0,2.7,0,3.5-.2v-5.6c-.3,0-.7-.2-1.2-.2-.5,0-1.1-.1-1.7-.1s-1.1,0-1.7.1c-.6,0-1.1.2-1.5.5-.5.2-.8.5-1.1.9-.3.4-.4.9-.4,1.5,0,1.2.4,2,1.1,2.5s1.8.7,3,.7Z" style="fill: #333374;"/>
</g>
</g>
<g style="isolation: isolate;">
<g style="isolation: isolate;">
<path d="M1785.2,498.6c1.9,0,3.3-.3,4.1-1s1.3-1.5,1.3-2.7-.1-1.3-.4-1.8c-.3-.5-.7-1-1.2-1.4-.5-.4-1.2-.8-2-1.1-.8-.3-1.7-.7-2.7-1-1-.4-2-.8-2.9-1.2-.9-.4-1.8-1-2.5-1.6s-1.3-1.4-1.7-2.3c-.4-.9-.6-2-.6-3.2,0-2.6.9-4.7,2.7-6.1,1.8-1.5,4.3-2.2,7.4-2.2s3.4.2,4.8.6c1.4.4,2.5.8,3.3,1.3l-1.6,4.2c-.9-.5-2-.9-3.1-1.2s-2.3-.4-3.5-.4-2.5.3-3.3.9c-.8.6-1.2,1.4-1.2,2.5s.1,1.2.4,1.6c.3.5.6.9,1.1,1.2.5.4,1.1.7,1.7,1,.7.3,1.4.6,2.1.9,1.4.5,2.6,1,3.6,1.5,1.1.5,2,1.1,2.7,1.8s1.3,1.5,1.7,2.5.6,2.1.6,3.5c0,2.6-.9,4.6-2.8,6.1-1.8,1.4-4.5,2.1-8.1,2.1s-2.3,0-3.3-.2-1.9-.3-2.6-.6c-.8-.2-1.4-.5-2-.7-.6-.2-1-.5-1.3-.6l1.5-4.3c.8.4,1.8.8,3,1.2s2.8.6,4.6.6Z" style="fill: #333374;"/>
<path d="M1820.1,491.6c0,1.7-.2,3.3-.8,4.7-.5,1.4-1.2,2.6-2.1,3.6s-2,1.8-3.3,2.3c-1.3.6-2.7.8-4.3.8s-3-.3-4.2-.8c-1.3-.6-2.4-1.3-3.3-2.3-.9-1-1.6-2.2-2.1-3.6-.5-1.4-.8-3-.8-4.7s.3-3.3.8-4.7,1.2-2.6,2.2-3.6c.9-1,2-1.8,3.3-2.3,1.3-.5,2.7-.8,4.2-.8s2.9.3,4.2.8c1.3.5,2.4,1.3,3.3,2.3s1.6,2.2,2.1,3.6c.5,1.4.8,3,.8,4.7ZM1815,491.6c0-2.2-.5-3.9-1.4-5.1-.9-1.3-2.2-1.9-3.9-1.9s-3,.6-3.9,1.9c-.9,1.3-1.4,3-1.4,5.1s.5,3.9,1.4,5.2c.9,1.3,2.2,1.9,3.9,1.9s3-.6,3.9-1.9c.9-1.3,1.4-3,1.4-5.2Z" style="fill: #333374;"/>
<path d="M1832.9,502.9c-1.5,0-2.7-.2-3.7-.5-1-.3-1.8-.7-2.4-1.3-.6-.6-1-1.3-1.2-2.1-.2-.8-.4-1.8-.4-2.9v-25.1l5-.8v25c0,.6,0,1.1.1,1.5,0,.4.3.8.5,1.1.2.3.6.5,1,.7.4.2,1,.3,1.6.4l-.7,4.2Z" style="fill: #333374;"/>
<path d="M1857.4,491.6c0,1.7-.2,3.3-.8,4.7-.5,1.4-1.2,2.6-2.1,3.6s-2,1.8-3.3,2.3c-1.3.6-2.7.8-4.3.8s-3-.3-4.2-.8c-1.3-.6-2.4-1.3-3.3-2.3-.9-1-1.6-2.2-2.1-3.6-.5-1.4-.8-3-.8-4.7s.3-3.3.8-4.7,1.2-2.6,2.2-3.6c.9-1,2-1.8,3.3-2.3,1.3-.5,2.7-.8,4.2-.8s2.9.3,4.2.8c1.3.5,2.4,1.3,3.3,2.3s1.6,2.2,2.1,3.6c.5,1.4.8,3,.8,4.7ZM1852.3,491.6c0-2.2-.5-3.9-1.4-5.1-.9-1.3-2.2-1.9-3.9-1.9s-3,.6-3.9,1.9c-.9,1.3-1.4,3-1.4,5.1s.5,3.9,1.4,5.2c.9,1.3,2.2,1.9,3.9,1.9s3-.6,3.9-1.9c.9-1.3,1.4-3,1.4-5.2Z" style="fill: #333374;"/>
<path d="M1875,491c0-2.3-.3-3.9-.9-4.9-.6-1-1.6-1.5-3.2-1.5s-1.2,0-1.8.1c-.7,0-1.2.2-1.5.2v17.6h-5v-21.1c1-.3,2.2-.5,3.8-.8,1.6-.2,3.2-.4,5-.4s2.7.2,3.7.6c1,.4,1.8.9,2.4,1.5.3-.2.7-.5,1.2-.7.5-.2,1-.5,1.6-.7.6-.2,1.2-.4,1.9-.5.7-.1,1.3-.2,2-.2,1.7,0,3.1.2,4.2.7,1.1.5,2,1.2,2.6,2,.6.9,1.1,1.9,1.3,3.2.2,1.2.4,2.6.4,4.1v12.2h-5v-11.5c0-2.3-.3-3.9-.8-4.9-.6-1-1.6-1.5-3.2-1.5s-1.6.1-2.3.4c-.7.3-1.3.5-1.6.8.2.7.4,1.4.5,2.2,0,.8.1,1.6.1,2.5v12h-5v-11.5Z" style="fill: #333374;"/>
<path d="M1918.4,491.6c0,1.7-.2,3.3-.8,4.7-.5,1.4-1.2,2.6-2.1,3.6-.9,1-2,1.8-3.3,2.3s-2.7.8-4.3.8-3-.3-4.2-.8-2.4-1.3-3.3-2.3-1.6-2.2-2.1-3.6c-.5-1.4-.8-3-.8-4.7s.3-3.3.8-4.7c.5-1.4,1.2-2.6,2.2-3.6s2-1.8,3.3-2.3c1.3-.5,2.7-.8,4.2-.8s2.9.3,4.2.8c1.3.5,2.4,1.3,3.3,2.3.9,1,1.6,2.2,2.1,3.6.5,1.4.8,3,.8,4.7ZM1913.2,491.6c0-2.2-.5-3.9-1.4-5.1-.9-1.3-2.2-1.9-3.9-1.9s-3,.6-3.9,1.9c-.9,1.3-1.4,3-1.4,5.1s.5,3.9,1.4,5.2c.9,1.3,2.2,1.9,3.9,1.9s3-.6,3.9-1.9c.9-1.3,1.4-3,1.4-5.2Z" style="fill: #333374;"/>
<path d="M1923.6,481.4c1-.3,2.2-.5,3.8-.8,1.6-.2,3.3-.4,5.2-.4s3.3.2,4.5.7c1.2.5,2.1,1.2,2.9,2,.7.9,1.2,1.9,1.5,3.2.3,1.2.4,2.6.4,4.1v12.2h-5v-11.5c0-1.2,0-2.2-.2-3-.2-.8-.4-1.5-.7-2-.3-.5-.8-.9-1.4-1.1-.6-.2-1.3-.4-2.2-.4s-1.3,0-2,.1c-.7,0-1.2.2-1.5.2v17.6h-5v-21.1Z" style="fill: #333374;"/>
<path d="M1957.9,473.6h5.2v28.9h-5.2v-28.9Z" style="fill: #333374;"/>
<path d="M1975.3,498.9c1.3,0,2.3-.2,2.9-.5.6-.3.9-.9.9-1.6s-.3-1.3-1-1.8c-.7-.5-1.7-1-3.2-1.5-.9-.3-1.8-.7-2.5-1.1s-1.4-.8-2-1.3c-.6-.5-1-1.1-1.3-1.8-.3-.7-.5-1.6-.5-2.6,0-2,.7-3.6,2.2-4.7,1.5-1.2,3.5-1.7,6-1.7s2.5.1,3.7.4c1.2.2,2,.5,2.6.7l-.9,4.1c-.6-.2-1.3-.5-2.1-.7-.9-.2-1.9-.3-3-.3s-1.9.2-2.5.5c-.6.3-1,.9-1,1.6s0,.7.2,1c.1.3.3.5.6.8.3.2.7.5,1.2.7.5.2,1.1.5,1.8.7,1.2.4,2.2.9,3,1.3.8.4,1.5.9,2.1,1.5.5.5.9,1.2,1.2,1.9s.4,1.5.4,2.5c0,2.1-.8,3.7-2.3,4.7-1.5,1.1-3.7,1.6-6.6,1.6s-3.5-.2-4.6-.5-2-.6-2.5-.8l.9-4.2c.8.3,1.6.6,2.7.9,1,.3,2.2.4,3.6.4Z" style="fill: #333374;"/>
<path d="M1996.4,502.9c-1.5,0-2.7-.2-3.7-.5-1-.3-1.8-.7-2.4-1.3s-1-1.3-1.2-2.1c-.2-.8-.4-1.8-.4-2.9v-25.1l5-.8v25c0,.6,0,1.1.1,1.5,0,.4.3.8.5,1.1.2.3.6.5,1,.7.4.2,1,.3,1.6.4l-.7,4.2Z" style="fill: #333374;"/>
<path d="M2008.5,480.2c1.7,0,3.1.2,4.2.6,1.1.4,2,1,2.7,1.8s1.2,1.7,1.5,2.7c.3,1.1.4,2.2.4,3.5v13.2c-.8.2-2,.4-3.5.6-1.6.2-3.3.4-5.3.4s-2.5-.1-3.6-.4c-1.1-.2-2-.7-2.8-1.2-.8-.6-1.4-1.3-1.8-2.2-.4-.9-.6-2-.6-3.3s.2-2.3.7-3.2c.5-.9,1.1-1.6,2-2.1.8-.5,1.8-.9,2.9-1.2,1.1-.2,2.2-.4,3.4-.4s1.1,0,1.8.1c.6,0,1.3.2,2,.4v-.8c0-.6,0-1.1-.2-1.7-.1-.5-.4-1-.7-1.4-.3-.4-.8-.7-1.4-.9-.6-.2-1.3-.3-2.1-.3s-2.2,0-3.2.2c-1,.2-1.8.4-2.4.6l-.6-4.1c.6-.2,1.6-.4,2.8-.7,1.2-.2,2.5-.3,3.9-.3ZM2008.9,499c1.6,0,2.7,0,3.5-.2v-5.6c-.3,0-.7-.2-1.2-.2-.5,0-1.1-.1-1.8-.1s-1.1,0-1.7.1c-.6,0-1.1.2-1.5.5-.5.2-.8.5-1.1.9-.3.4-.4.9-.4,1.5,0,1.2.4,2,1.1,2.5s1.8.7,3,.7Z" style="fill: #333374;"/>
<path d="M2023.5,481.4c1-.3,2.2-.5,3.8-.8,1.6-.2,3.3-.4,5.2-.4s3.3.2,4.5.7c1.2.5,2.1,1.2,2.9,2,.7.9,1.2,1.9,1.5,3.2.3,1.2.4,2.6.4,4.1v12.2h-5v-11.5c0-1.2,0-2.2-.2-3-.2-.8-.4-1.5-.7-2-.3-.5-.8-.9-1.4-1.1-.6-.2-1.3-.4-2.2-.4s-1.3,0-2,.1c-.7,0-1.2.2-1.5.2v17.6h-5v-21.1Z" style="fill: #333374;"/>
<path d="M2066.3,501.8c-1,.3-2.3.6-3.8.8s-3.1.4-4.8.4-3.3-.3-4.6-.8c-1.4-.5-2.5-1.3-3.5-2.3-1-1-1.7-2.2-2.2-3.6-.5-1.4-.8-3-.8-4.7s.2-3.3.6-4.7c.4-1.4,1.1-2.6,1.9-3.6.8-1,1.8-1.8,3-2.3,1.2-.5,2.6-.8,4.1-.8s2,.1,2.8.4c.8.2,1.5.5,2.1.8v-10.5l5-.8v31.7ZM2051.8,491.5c0,2.2.5,4,1.6,5.2,1.1,1.3,2.5,1.9,4.4,1.9s1.5,0,2.1-.1c.6,0,1-.1,1.4-.2v-12.5c-.4-.3-1-.6-1.8-.9-.7-.3-1.5-.4-2.4-.4-1.8,0-3.2.6-4,1.9-.8,1.2-1.3,2.9-1.3,5.1Z" style="fill: #333374;"/>
<path d="M2078.1,498.9c1.3,0,2.3-.2,2.9-.5s.9-.9.9-1.6-.3-1.3-1-1.8c-.7-.5-1.7-1-3.2-1.5-.9-.3-1.8-.7-2.5-1.1-.8-.4-1.4-.8-2-1.3-.6-.5-1-1.1-1.3-1.8-.3-.7-.5-1.6-.5-2.6,0-2,.7-3.6,2.2-4.7,1.5-1.2,3.5-1.7,6-1.7s2.5.1,3.7.4c1.2.2,2,.5,2.6.7l-.9,4.1c-.6-.2-1.3-.5-2.1-.7-.9-.2-1.9-.3-3-.3s-1.9.2-2.5.5c-.6.3-1,.9-1,1.6s0,.7.2,1c.1.3.3.5.6.8s.7.5,1.2.7c.5.2,1.1.5,1.8.7,1.2.4,2.2.9,3,1.3.8.4,1.5.9,2.1,1.5.5.5.9,1.2,1.2,1.9s.4,1.5.4,2.5c0,2.1-.8,3.7-2.3,4.7-1.5,1.1-3.7,1.6-6.6,1.6s-3.5-.2-4.6-.5c-1.2-.3-2-.6-2.5-.8l.9-4.2c.7.3,1.6.6,2.7.9,1,.3,2.2.4,3.6.4Z" style="fill: #333374;"/>
</g>
</g>
<g style="isolation: isolate;">
<g style="isolation: isolate;">
<path d="M49.5,8h5.2v28.9h-5.2V8Z" style="fill: #333374;"/>
<path d="M61.4,15.8c1-.3,2.2-.5,3.8-.8,1.6-.2,3.3-.4,5.2-.4s3.3.2,4.5.7c1.2.5,2.1,1.2,2.9,2,.7.9,1.2,1.9,1.5,3.2.3,1.2.4,2.6.4,4.1v12.2h-5v-11.5c0-1.2,0-2.2-.2-3-.2-.8-.4-1.5-.7-2-.3-.5-.8-.9-1.4-1.1-.6-.2-1.3-.4-2.2-.4s-1.3,0-2,.1c-.7,0-1.2.2-1.5.2v17.6h-5V15.8Z" style="fill: #333374;"/>
<path d="M104.2,36.2c-1,.3-2.3.6-3.8.8s-3.1.4-4.8.4-3.3-.3-4.6-.8c-1.4-.5-2.5-1.3-3.5-2.3-1-1-1.7-2.2-2.2-3.6-.5-1.4-.8-3-.8-4.7s.2-3.3.6-4.7c.4-1.4,1.1-2.6,1.9-3.6.8-1,1.8-1.8,3-2.3,1.2-.5,2.6-.8,4.1-.8s2,.1,2.8.4c.8.2,1.5.5,2.1.8V5.4l5-.8v31.7ZM89.8,25.9c0,2.2.5,4,1.6,5.2,1.1,1.3,2.5,1.9,4.4,1.9s1.5,0,2.1-.1c.6,0,1-.1,1.4-.2v-12.5c-.4-.3-1-.6-1.8-.9-.7-.3-1.5-.4-2.4-.4-1.8,0-3.2.6-4,1.9s-1.3,2.9-1.3,5.1Z" style="fill: #333374;"/>
<path d="M116.2,8.7c0,.9-.3,1.7-.9,2.2-.6.6-1.3.8-2.2.8s-1.6-.3-2.2-.8c-.6-.6-.9-1.3-.9-2.2s.3-1.7.9-2.3c.6-.6,1.3-.8,2.2-.8s1.6.3,2.2.8c.6.6.9,1.3.9,2.3ZM115.7,36.9h-5V15.1h5v21.8Z" style="fill: #333374;"/>
<path d="M129.4,14.5c1.7,0,3.1.2,4.2.6,1.1.4,2,1,2.7,1.8.7.8,1.2,1.7,1.5,2.7.3,1.1.4,2.2.4,3.5v13.2c-.8.2-2,.4-3.5.6-1.6.2-3.3.4-5.3.4s-2.5-.1-3.6-.4c-1.1-.2-2-.7-2.8-1.2-.8-.6-1.4-1.3-1.8-2.2-.4-.9-.6-2-.6-3.3s.2-2.3.7-3.2c.5-.9,1.1-1.6,2-2.1.8-.5,1.8-.9,2.9-1.2,1.1-.2,2.2-.4,3.4-.4s1.1,0,1.8.1c.6,0,1.3.2,2,.4v-.8c0-.6,0-1.1-.2-1.7-.1-.5-.4-1-.7-1.4-.3-.4-.8-.7-1.4-.9-.6-.2-1.3-.3-2.1-.3s-2.2,0-3.2.2c-1,.2-1.8.4-2.4.6l-.6-4.1c.6-.2,1.6-.4,2.8-.7,1.2-.2,2.5-.3,3.9-.3ZM129.8,33.3c1.6,0,2.7,0,3.5-.2v-5.6c-.3,0-.7-.2-1.2-.2-.5,0-1.1-.1-1.7-.1s-1.1,0-1.7.1c-.6,0-1.1.2-1.5.5-.5.2-.8.5-1.1.9-.3.4-.4.9-.4,1.5,0,1.2.4,2,1.1,2.5s1.8.7,3,.7Z" style="fill: #333374;"/>
</g>
</g>
<g style="isolation: isolate;">
<g style="isolation: isolate;">
<path d="M2191,717.5v-28.9h18.2v4.5h-13v7.4h11.5v4.5h-11.5v12.6h-5.2Z" style="fill: #333374;"/>
<path d="M2219.3,689.4c0,.9-.3,1.7-.9,2.2-.6.6-1.3.8-2.2.8s-1.6-.3-2.2-.8c-.6-.6-.9-1.3-.9-2.2s.3-1.7.9-2.3c.6-.6,1.3-.8,2.2-.8s1.6.3,2.2.8c.6.6.9,1.3.9,2.3ZM2218.8,717.5h-5v-21.8h5v21.8Z" style="fill: #333374;"/>
<path d="M2222.4,725.3c-.4,0-.9,0-1.5-.1-.7,0-1.2-.2-1.7-.4l.7-4.1c.6.2,1.3.3,2.2.3s2-.3,2.5-1c.5-.7.7-1.7.7-3.1v-21.1h5v21.2c0,2.8-.7,4.9-2,6.3s-3.3,2-5.8,2ZM2230.8,689.4c0,.9-.3,1.7-.9,2.2-.6.6-1.3.8-2.2.8s-1.6-.3-2.2-.8c-.6-.6-.9-1.3-.9-2.2s.3-1.7.9-2.3c.6-.6,1.3-.8,2.2-.8s1.6.3,2.2.8c.6.6.9,1.3.9,2.3Z" style="fill: #333374;"/>
<path d="M2242.3,689.4c0,.9-.3,1.7-.9,2.2-.6.6-1.3.8-2.2.8s-1.6-.3-2.2-.8c-.6-.6-.9-1.3-.9-2.2s.3-1.7.9-2.3c.6-.6,1.3-.8,2.2-.8s1.6.3,2.2.8c.6.6.9,1.3.9,2.3ZM2241.7,717.5h-5v-21.8h5v21.8Z" style="fill: #333374;"/>
</g>
</g>
<g style="isolation: isolate;">
<g style="isolation: isolate;">
<path d="M1628.5,1160.9c1.9,0,3.3-.3,4.1-1s1.3-1.5,1.3-2.7-.1-1.3-.4-1.8-.7-1-1.2-1.4-1.2-.8-2-1.1c-.8-.3-1.7-.7-2.7-1-1-.4-2-.8-2.9-1.2-.9-.4-1.8-1-2.5-1.6s-1.3-1.4-1.7-2.3c-.4-.9-.6-2-.6-3.2,0-2.6.9-4.7,2.7-6.1,1.8-1.5,4.3-2.2,7.4-2.2s3.4.2,4.8.6c1.4.4,2.5.8,3.3,1.3l-1.6,4.2c-.9-.5-2-.9-3.1-1.2s-2.3-.4-3.5-.4-2.5.3-3.3.9c-.8.6-1.2,1.4-1.2,2.5s.1,1.2.4,1.6c.3.5.6.9,1.1,1.2.5.4,1.1.7,1.7,1,.7.3,1.4.6,2.1.9,1.4.5,2.6,1,3.6,1.5,1.1.5,2,1.1,2.7,1.8.7.7,1.3,1.5,1.7,2.5.4,1,.6,2.1.6,3.5,0,2.6-.9,4.6-2.8,6.1-1.8,1.4-4.5,2.1-8.1,2.1s-2.3,0-3.3-.2-1.9-.3-2.6-.6c-.8-.2-1.4-.5-2-.7s-1-.5-1.3-.6l1.5-4.3c.8.4,1.8.8,3,1.2,1.3.4,2.8.6,4.6.6Z" style="fill: #333374;"/>
<path d="M1661.6,1143c-2.2,8.3-4.9,15.8-7.8,22.5-.6,1.2-1.1,2.3-1.7,3.2s-1.2,1.6-2,2.2c-.7.6-1.5,1-2.4,1.3-.9.3-1.9.4-3.1.4s-1.6,0-2.3-.2-1.3-.3-1.7-.5l.9-4c1,.4,2,.6,3,.6s2.3-.3,3.1-.9c.7-.6,1.4-1.6,1.9-2.9-1.6-3.1-3.1-6.4-4.6-10-1.5-3.6-2.8-7.4-3.9-11.5h5.4c.3,1.2.6,2.4,1,3.8.4,1.4.8,2.7,1.3,4.1s1,2.8,1.5,4.2,1.1,2.7,1.6,3.9c.9-2.5,1.7-5.1,2.5-7.9.8-2.8,1.5-5.5,2.1-8.1h5.2Z" style="fill: #333374;"/>
<path d="M1683.8,1164.1c-1,.3-2.3.6-3.8.8s-3.1.4-4.8.4-3.3-.3-4.6-.8c-1.4-.5-2.5-1.3-3.5-2.3-1-1-1.7-2.2-2.2-3.6-.5-1.4-.8-3-.8-4.7s.2-3.3.6-4.7,1.1-2.6,1.9-3.6c.8-1,1.8-1.8,3-2.3,1.2-.5,2.6-.8,4.1-.8s2,.1,2.8.4c.8.2,1.5.5,2.1.8v-10.5l5-.8v31.7ZM1669.4,1153.9c0,2.2.5,4,1.6,5.2,1.1,1.3,2.5,1.9,4.4,1.9s1.5,0,2.1-.1c.6,0,1-.1,1.4-.2v-12.5c-.4-.3-1-.6-1.8-.9-.7-.3-1.5-.4-2.4-.4-1.8,0-3.2.6-4,1.9-.8,1.2-1.3,2.9-1.3,5.1Z" style="fill: #333374;"/>
<path d="M1690.2,1143.7c1-.3,2.2-.5,3.8-.8,1.6-.2,3.3-.4,5.2-.4s3.3.2,4.5.7c1.2.5,2.1,1.2,2.9,2,.7.9,1.2,1.9,1.5,3.2.3,1.2.4,2.6.4,4.1v12.2h-5v-11.5c0-1.2,0-2.2-.2-3-.2-.8-.4-1.5-.8-2-.3-.5-.8-.9-1.4-1.1-.6-.2-1.3-.4-2.2-.4s-1.3,0-2,.1c-.7,0-1.2.2-1.5.2v17.6h-5v-21.1Z" style="fill: #333374;"/>
<path d="M1713.4,1154c0-1.9.3-3.6.9-5,.6-1.4,1.3-2.6,2.3-3.6.9-1,2-1.7,3.2-2.2s2.5-.7,3.7-.7c3,0,5.3.9,7,2.8,1.7,1.9,2.5,4.6,2.5,8.3s0,.6,0,.9c0,.3,0,.7,0,.9h-14.4c.1,1.8.8,3.1,1.9,4.1,1.1,1,2.7,1.4,4.8,1.4s2.3-.1,3.4-.3c1-.2,1.8-.5,2.4-.7l.7,4.1c-.3.1-.7.3-1.1.4-.5.2-1,.3-1.7.4s-1.3.2-2,.3c-.7,0-1.5.1-2.2.1-1.9,0-3.6-.3-5-.9-1.4-.6-2.6-1.4-3.5-2.4-.9-1-1.6-2.2-2-3.6-.4-1.4-.7-2.9-.7-4.5ZM1728,1151.8c0-.7,0-1.4-.3-2s-.5-1.2-.9-1.6-.8-.8-1.4-1.1c-.5-.3-1.2-.4-1.9-.4s-1.5.1-2,.4c-.6.3-1.1.7-1.5,1.1-.4.5-.7,1-.9,1.6-.2.6-.4,1.2-.5,1.9h9.4Z" style="fill: #333374;"/>
<path d="M1756.2,1143c-2.2,8.3-4.9,15.8-7.8,22.5-.6,1.2-1.1,2.3-1.7,3.2s-1.2,1.6-2,2.2c-.7.6-1.5,1-2.4,1.3s-1.9.4-3.1.4-1.5,0-2.3-.2c-.8-.2-1.3-.3-1.7-.5l.9-4c1,.4,2,.6,3,.6s2.3-.3,3.1-.9,1.4-1.6,1.9-2.9c-1.6-3.1-3.1-6.4-4.6-10-1.5-3.6-2.8-7.4-3.9-11.5h5.4c.3,1.2.6,2.4,1,3.8.4,1.4.8,2.7,1.3,4.1.5,1.4,1,2.8,1.5,4.2.5,1.4,1.1,2.7,1.6,3.9.9-2.5,1.7-5.1,2.5-7.9.8-2.8,1.5-5.5,2.1-8.1h5.2Z" style="fill: #333374;"/>
</g>
</g>
<g style="isolation: isolate;">
<g style="isolation: isolate;">
<path d="M1352.4,1116.4c-.4-1.1-.8-2.3-1.2-3.4s-.8-2.2-1.2-3.4h-12.2c-.4,1.2-.8,2.3-1.2,3.4-.4,1.1-.8,2.2-1.2,3.4h-5.5c1.1-3.1,2.1-5.9,3.1-8.5,1-2.6,1.9-5.1,2.9-7.4.9-2.3,1.9-4.6,2.8-6.7.9-2.1,1.9-4.2,2.8-6.2h5c1,2.1,1.9,4.1,2.8,6.2.9,2.1,1.8,4.3,2.8,6.7.9,2.3,1.9,4.8,2.9,7.4,1,2.6,2,5.5,3.1,8.5h-5.7ZM1343.9,1093.1c-.6,1.5-1.4,3.3-2.2,5.4-.8,2.1-1.7,4.4-2.6,6.9h9.5c-.9-2.5-1.7-4.8-2.6-6.9-.8-2.1-1.6-3.9-2.2-5.3Z" style="fill: #333374;"/>
</g>
<g style="isolation: isolate;">
<path d="M1379.3,1115.7c-1,.3-2.3.6-3.8.8s-3.1.4-4.8.4-3.3-.3-4.6-.8c-1.4-.5-2.5-1.3-3.5-2.3-1-1-1.7-2.2-2.2-3.6s-.8-3-.8-4.7.2-3.3.6-4.7c.4-1.4,1.1-2.6,1.9-3.6s1.8-1.8,3-2.3c1.2-.5,2.6-.8,4.1-.8s2,.1,2.8.4c.8.2,1.5.5,2.1.8v-10.5l5-.8v31.7ZM1364.8,1105.4c0,2.2.5,4,1.6,5.2,1.1,1.3,2.5,1.9,4.4,1.9s1.5,0,2.1-.1c.6,0,1-.1,1.4-.2v-12.5c-.4-.3-1-.6-1.8-.9-.7-.3-1.5-.4-2.4-.4-1.8,0-3.2.6-4,1.9-.8,1.2-1.3,2.9-1.3,5.1Z" style="fill: #333374;"/>
<path d="M1384.5,1105.6c0-1.9.3-3.6.9-5,.6-1.4,1.3-2.6,2.3-3.6.9-1,2-1.7,3.2-2.2,1.2-.5,2.5-.7,3.7-.7,3,0,5.3.9,7,2.8,1.7,1.9,2.5,4.6,2.5,8.3s0,.6,0,.9c0,.3,0,.7,0,.9h-14.4c.1,1.8.8,3.1,1.9,4.1,1.1,1,2.7,1.4,4.8,1.4s2.3-.1,3.4-.3,1.8-.5,2.4-.7l.7,4.1c-.3.1-.7.3-1.1.4-.5.2-1,.3-1.7.4s-1.3.2-2,.3c-.7,0-1.5.1-2.2.1-1.9,0-3.6-.3-5-.9-1.4-.6-2.6-1.4-3.5-2.4-.9-1-1.6-2.2-2-3.6-.4-1.4-.7-2.9-.7-4.5ZM1399.1,1103.3c0-.7,0-1.4-.3-2s-.5-1.2-.9-1.6c-.4-.5-.8-.8-1.4-1.1-.5-.3-1.2-.4-1.9-.4s-1.5.1-2,.4c-.6.3-1.1.7-1.5,1.1s-.7,1-.9,1.6-.4,1.2-.5,1.9h9.4Z" style="fill: #333374;"/>
<path d="M1417.1,1116.8c-1.5,0-2.7-.2-3.7-.5-1-.3-1.8-.7-2.4-1.3-.6-.6-1-1.3-1.2-2.1-.2-.8-.4-1.8-.4-2.9v-25.1l5-.8v25c0,.6,0,1.1.1,1.5,0,.4.3.8.5,1.1.2.3.6.5,1,.7.4.2,1,.3,1.6.4l-.7,4.2Z" style="fill: #333374;"/>
<path d="M1429.1,1094c1.7,0,3.1.2,4.2.6s2,1,2.7,1.8,1.2,1.7,1.5,2.7c.3,1.1.4,2.2.4,3.5v13.2c-.8.2-2,.4-3.5.6s-3.3.4-5.3.4-2.5-.1-3.6-.4c-1.1-.2-2-.7-2.8-1.2-.8-.6-1.4-1.3-1.8-2.2s-.6-2-.6-3.3.2-2.3.7-3.2c.5-.9,1.1-1.6,2-2.1.8-.5,1.8-.9,2.9-1.2,1.1-.2,2.2-.4,3.4-.4s1.1,0,1.8.1c.6,0,1.3.2,2,.4v-.8c0-.6,0-1.1-.2-1.7-.1-.5-.4-1-.7-1.4-.3-.4-.8-.7-1.4-.9-.6-.2-1.3-.3-2.1-.3s-2.2,0-3.2.2c-1,.2-1.8.4-2.4.6l-.6-4.1c.6-.2,1.6-.4,2.8-.7s2.5-.3,3.9-.3ZM1429.5,1112.8c1.6,0,2.7,0,3.5-.2v-5.6c-.3,0-.7-.2-1.2-.2-.5,0-1.1-.1-1.8-.1s-1.1,0-1.7.1c-.6,0-1.1.2-1.5.5-.5.2-.8.5-1.1.9-.3.4-.4.9-.4,1.5,0,1.2.4,2,1.1,2.5.8.5,1.8.7,3,.7Z" style="fill: #333374;"/>
<path d="M1449.7,1088.2c0,.9-.3,1.7-.9,2.2-.6.6-1.3.8-2.2.8s-1.6-.3-2.2-.8c-.6-.6-.9-1.3-.9-2.2s.3-1.7.9-2.3c.6-.6,1.3-.8,2.2-.8s1.6.3,2.2.8c.6.6.9,1.3.9,2.3ZM1449.2,1116.4h-5v-21.8h5v21.8Z" style="fill: #333374;"/>
<path d="M1474,1115.7c-1,.3-2.3.6-3.8.8s-3.1.4-4.8.4-3.3-.3-4.6-.8c-1.4-.5-2.5-1.3-3.5-2.3-1-1-1.7-2.2-2.2-3.6s-.8-3-.8-4.7.2-3.3.6-4.7c.4-1.4,1.1-2.6,1.9-3.6s1.8-1.8,3-2.3c1.2-.5,2.6-.8,4.1-.8s2,.1,2.8.4c.8.2,1.5.5,2.1.8v-10.5l5-.8v31.7ZM1459.6,1105.4c0,2.2.5,4,1.6,5.2,1.1,1.3,2.5,1.9,4.4,1.9s1.5,0,2.1-.1c.6,0,1-.1,1.4-.2v-12.5c-.4-.3-1-.6-1.8-.9-.7-.3-1.5-.4-2.4-.4-1.8,0-3.2.6-4,1.9-.8,1.2-1.3,2.9-1.3,5.1Z" style="fill: #333374;"/>
<path d="M1479.2,1105.6c0-1.9.3-3.6.9-5,.6-1.4,1.3-2.6,2.3-3.6.9-1,2-1.7,3.2-2.2,1.2-.5,2.5-.7,3.7-.7,3,0,5.3.9,7,2.8,1.7,1.9,2.5,4.6,2.5,8.3s0,.6,0,.9c0,.3,0,.7,0,.9h-14.4c.1,1.8.8,3.1,1.9,4.1,1.1,1,2.7,1.4,4.8,1.4s2.3-.1,3.4-.3,1.8-.5,2.4-.7l.7,4.1c-.3.1-.7.3-1.1.4-.5.2-1,.3-1.7.4s-1.3.2-2,.3c-.7,0-1.5.1-2.2.1-1.9,0-3.6-.3-5-.9-1.4-.6-2.6-1.4-3.5-2.4-.9-1-1.6-2.2-2-3.6-.4-1.4-.7-2.9-.7-4.5ZM1493.9,1103.3c0-.7,0-1.4-.3-2s-.5-1.2-.9-1.6c-.4-.5-.8-.8-1.4-1.1-.5-.3-1.2-.4-1.9-.4s-1.5.1-2,.4c-.6.3-1.1.7-1.5,1.1s-.7,1-.9,1.6-.4,1.2-.5,1.9h9.4Z" style="fill: #333374;"/>
</g>
</g>
<g style="isolation: isolate;">
<g style="isolation: isolate;">
<path d="M646.5,1061.9c4.2,0,7.4.8,9.6,2.3,2.2,1.5,3.4,3.9,3.4,7.2s-.3,3.1-.9,4.4c-.6,1.2-1.5,2.2-2.6,3-1.1.8-2.5,1.3-4.2,1.7-1.6.4-3.5.5-5.6.5h-2.6v10.2h-5.2v-28.5c1.2-.3,2.6-.5,4.1-.6,1.5,0,2.9-.1,4.1-.1ZM646.8,1066.5c-1.3,0-2.4,0-3.3.1v9.8h2.5c2.5,0,4.5-.4,5.8-1.1,1.4-.7,2-2,2-4s-.2-1.7-.5-2.4c-.4-.6-.9-1.1-1.5-1.5-.6-.4-1.4-.6-2.3-.8s-1.8-.2-2.8-.2Z" style="fill: #333374;"/>
</g>
<g style="isolation: isolate;">
<path d="M661.7,1080.3c0-1.9.3-3.6.9-5,.6-1.4,1.3-2.6,2.3-3.6.9-1,2-1.7,3.2-2.2,1.2-.5,2.5-.7,3.7-.7,3,0,5.3.9,7,2.8,1.7,1.9,2.5,4.6,2.5,8.3s0,.6,0,.9c0,.3,0,.7,0,.9h-14.4c.1,1.8.8,3.1,1.9,4.1,1.1,1,2.7,1.4,4.8,1.4s2.3-.1,3.4-.3c1-.2,1.8-.5,2.4-.7l.7,4.1c-.3.1-.7.3-1.1.4-.5.2-1,.3-1.7.4s-1.3.2-2,.3-1.5.1-2.2.1c-1.9,0-3.6-.3-5-.9-1.4-.6-2.6-1.4-3.5-2.4s-1.6-2.2-2-3.6c-.4-1.4-.7-2.9-.7-4.5ZM676.3,1078.1c0-.7,0-1.4-.3-2s-.5-1.2-.9-1.6c-.4-.5-.8-.8-1.4-1.1s-1.2-.4-1.9-.4-1.5.1-2,.4c-.6.3-1.1.7-1.5,1.1-.4.5-.7,1-.9,1.6-.2.6-.4,1.2-.5,1.9h9.4Z" style="fill: #333374;"/>
<path d="M699.1,1073.9c-.4-.1-1-.3-1.7-.4-.7-.2-1.6-.2-2.6-.2s-1.1,0-1.8.2c-.6.1-1.1.2-1.3.3v17.5h-5v-20.7c1-.4,2.2-.7,3.6-1,1.5-.3,3.1-.5,4.9-.5s.7,0,1.2,0c.4,0,.9,0,1.3.2.4,0,.9.2,1.3.2s.8.2,1,.3l-.9,4.2Z" style="fill: #333374;"/>
<path d="M703.2,1063.6l5-.8v6.6h7.7v4.2h-7.7v8.9c0,1.8.3,3,.8,3.7.6.8,1.5,1.1,2.8,1.1s1.7,0,2.4-.3c.7-.2,1.3-.4,1.7-.5l.8,4c-.6.2-1.3.5-2.3.8-.9.3-2.1.4-3.3.4s-2.9-.2-3.9-.6c-1-.4-1.9-1-2.5-1.8s-1-1.8-1.3-2.9c-.2-1.1-.4-2.4-.4-3.9v-18.9Z" style="fill: #333374;"/>
<path d="M720.9,1091.1v-31.5l5-.8v10.8c.6-.2,1.2-.4,1.9-.5.7-.1,1.5-.2,2.2-.2,1.7,0,3.2.2,4.4.7,1.2.5,2.1,1.2,2.8,2,.7.9,1.2,1.9,1.5,3.1.3,1.2.4,2.6.4,4.1v12.2h-5v-11.5c0-1.2,0-2.2-.2-3-.2-.8-.4-1.5-.7-2-.3-.5-.8-.9-1.4-1.1-.6-.2-1.3-.4-2.2-.4s-1.3,0-2,.2c-.7.1-1.2.3-1.5.4v17.3h-5Z" style="fill: #333374;"/>
</g>
</g>
<g style="isolation: isolate;">
<g style="isolation: isolate;">
<path d="M1223.1,1189.9c.6,1.1,1.3,2.3,2,3.9s1.5,3.1,2.3,4.8c.8,1.7,1.5,3.4,2.3,5.1s1.5,3.3,2.1,4.8c.6-1.5,1.3-3.1,2.1-4.8.7-1.7,1.5-3.4,2.3-5.1.8-1.7,1.5-3.3,2.3-4.8s1.4-2.8,2-3.9h4.7c.3,2.1.5,4.4.7,6.7s.4,4.8.6,7.3c.2,2.5.4,5,.5,7.5.2,2.5.3,5,.4,7.4h-5.2c-.1-3.4-.2-6.8-.4-10.4s-.4-7-.7-10.3c-.3.6-.7,1.4-1.1,2.3-.4.9-.9,1.9-1.3,2.9-.5,1-1,2.1-1.4,3.2-.5,1.1-1,2.2-1.4,3.2-.5,1-.9,2-1.3,2.9-.4.9-.7,1.7-1,2.3h-3.9c-.3-.6-.6-1.4-1-2.3s-.8-1.9-1.3-2.9c-.5-1-.9-2.1-1.4-3.2-.5-1.1-1-2.2-1.4-3.2-.5-1-.9-2-1.3-2.9-.4-.9-.8-1.7-1.1-2.3-.3,3.3-.5,6.8-.7,10.3s-.3,7-.4,10.4h-5.2c.1-2.4.2-4.9.4-7.4s.3-5.1.5-7.6c.2-2.5.4-4.9.6-7.3s.5-4.5.7-6.5h4.9Z" style="fill: #333374;"/>
<path d="M1252.2,1208c0-1.9.3-3.6.9-5,.6-1.4,1.3-2.6,2.3-3.6.9-1,2-1.7,3.2-2.2,1.2-.5,2.5-.7,3.7-.7,3,0,5.3.9,7,2.8,1.7,1.9,2.5,4.6,2.5,8.3s0,.6,0,.9c0,.3,0,.7,0,.9h-14.4c.1,1.8.8,3.1,1.9,4.1,1.1,1,2.7,1.4,4.8,1.4s2.3-.1,3.4-.3,1.8-.5,2.4-.7l.7,4.1c-.3.1-.7.3-1.1.4-.5.2-1,.3-1.7.4s-1.3.2-2,.3c-.7,0-1.5.1-2.2.1-1.9,0-3.6-.3-5-.9-1.4-.6-2.6-1.4-3.5-2.4-.9-1-1.6-2.2-2-3.6-.4-1.4-.7-2.9-.7-4.5ZM1266.8,1205.7c0-.7,0-1.4-.3-2s-.5-1.2-.9-1.6c-.4-.5-.8-.8-1.4-1.1-.5-.3-1.2-.4-1.9-.4s-1.5.1-2,.4c-.6.3-1.1.7-1.5,1.1s-.7,1-.9,1.6-.4,1.2-.5,1.9h9.4Z" style="fill: #333374;"/>
<path d="M1284.8,1219.2c-1.5,0-2.7-.2-3.7-.5-1-.3-1.8-.7-2.4-1.3-.6-.6-1-1.3-1.2-2.1-.2-.8-.4-1.8-.4-2.9v-25.1l5-.8v25c0,.6,0,1.1.1,1.5,0,.4.3.8.5,1.1.2.3.6.5,1,.7.4.2,1,.3,1.6.4l-.7,4.2Z" style="fill: #333374;"/>
<path d="M1309.2,1207.9c0,1.7-.3,3.3-.8,4.7s-1.2,2.6-2.2,3.6-2.1,1.8-3.5,2.3c-1.4.5-2.9.8-4.6.8s-3.3-.1-4.8-.4-2.8-.5-3.8-.8v-30.8l5-.8v11.3c.6-.3,1.3-.6,2.1-.8.8-.2,1.8-.4,2.8-.4,1.5,0,2.9.3,4.1.8,1.2.5,2.2,1.3,3,2.3.8,1,1.4,2.2,1.9,3.6.4,1.4.6,3,.6,4.6ZM1304,1207.8c0-2.1-.4-3.8-1.3-5.1-.8-1.2-2.2-1.9-4-1.9s-1.6.1-2.4.4c-.7.2-1.3.5-1.8.8v12.5c.4,0,.8.2,1.4.2.6,0,1.3.1,2.1.1,1.9,0,3.3-.6,4.4-1.9s1.6-3,1.6-5.2Z" style="fill: #333374;"/>
<path d="M1334.1,1207.9c0,1.7-.2,3.3-.8,4.7-.5,1.4-1.2,2.6-2.1,3.6-.9,1-2,1.8-3.3,2.3-1.3.6-2.7.8-4.3.8s-3-.3-4.2-.8c-1.3-.6-2.4-1.3-3.3-2.3-.9-1-1.6-2.2-2.1-3.6-.5-1.4-.8-3-.8-4.7s.3-3.3.8-4.7c.5-1.4,1.2-2.6,2.2-3.6.9-1,2-1.8,3.3-2.3s2.7-.8,4.2-.8,2.9.3,4.2.8,2.4,1.3,3.3,2.3c.9,1,1.6,2.2,2.1,3.6s.8,3,.8,4.7ZM1328.9,1207.9c0-2.2-.5-3.9-1.4-5.1-.9-1.3-2.2-1.9-3.9-1.9s-3,.6-3.9,1.9-1.4,3-1.4,5.1.5,3.9,1.4,5.2,2.2,1.9,3.9,1.9,3-.6,3.9-1.9c.9-1.3,1.4-3,1.4-5.2Z" style="fill: #333374;"/>
<path d="M1357.2,1218.1c-1,.2-2.2.5-3.8.8-1.6.3-3.3.4-5.1.4s-3.2-.2-4.4-.8c-1.2-.5-2.1-1.2-2.8-2.1-.7-.9-1.2-2-1.5-3.2-.3-1.2-.5-2.6-.5-4.1v-12.2h5v11.4c0,2.3.3,4,1,5,.7,1,1.9,1.5,3.6,1.5s1.3,0,1.9,0c.7,0,1.2-.1,1.5-.2v-17.6h5v21.1Z" style="fill: #333374;"/>
<path d="M1376,1201.5c-.4-.1-1-.3-1.7-.4-.7-.2-1.6-.2-2.6-.2s-1.1,0-1.8.2c-.6.1-1.1.2-1.3.3v17.5h-5v-20.7c1-.4,2.2-.7,3.6-1,1.5-.3,3.1-.5,4.9-.5s.7,0,1.2,0c.4,0,.9,0,1.3.2.4,0,.9.2,1.3.2.4,0,.8.2,1,.3l-.9,4.2Z" style="fill: #333374;"/>
<path d="M1380.4,1197.7c1-.3,2.2-.5,3.8-.8s3.3-.4,5.2-.4,3.3.2,4.5.7c1.2.5,2.1,1.2,2.9,2s1.2,1.9,1.5,3.2c.3,1.2.4,2.6.4,4.1v12.2h-5v-11.5c0-1.2,0-2.2-.2-3-.2-.8-.4-1.5-.8-2-.3-.5-.8-.9-1.4-1.1-.6-.2-1.3-.4-2.2-.4s-1.3,0-2,.1-1.2.2-1.5.2v17.6h-5v-21.1Z" style="fill: #333374;"/>
<path d="M1403.5,1208c0-1.9.3-3.6.9-5,.6-1.4,1.3-2.6,2.3-3.6.9-1,2-1.7,3.2-2.2,1.2-.5,2.5-.7,3.8-.7,3,0,5.3.9,7,2.8,1.7,1.9,2.5,4.6,2.5,8.3s0,.6,0,.9c0,.3,0,.7,0,.9h-14.4c.1,1.8.8,3.1,1.9,4.1,1.1,1,2.7,1.4,4.8,1.4s2.3-.1,3.4-.3c1-.2,1.8-.5,2.4-.7l.7,4.1c-.3.1-.7.3-1.1.4s-1,.3-1.7.4-1.3.2-2,.3c-.7,0-1.5.1-2.2.1-1.9,0-3.6-.3-5-.9-1.4-.6-2.6-1.4-3.5-2.4-.9-1-1.6-2.2-2-3.6-.4-1.4-.7-2.9-.7-4.5ZM1418.1,1205.7c0-.7,0-1.4-.3-2s-.5-1.2-.9-1.6c-.4-.5-.8-.8-1.4-1.1-.5-.3-1.2-.4-1.9-.4s-1.5.1-2,.4c-.6.3-1.1.7-1.5,1.1-.4.5-.7,1-.9,1.6-.2.6-.4,1.2-.5,1.9h9.4Z" style="fill: #333374;"/>
</g>
</g>
<g style="isolation: isolate;">
<g style="isolation: isolate;">
<path d="M811.8,994.7c-3,0-5.2.9-6.8,2.8-1.6,1.8-2.4,4.4-2.4,7.7s.2,3,.6,4.3c.4,1.3.9,2.4,1.7,3.3s1.7,1.6,2.7,2.1c1.1.5,2.4.8,3.9.8s1.7,0,2.4-.1c.7,0,1.2-.2,1.6-.3v-10.4h5.2v13.9c-.7.3-1.9.6-3.7.9-1.7.3-3.7.5-6,.5s-4-.3-5.7-1c-1.7-.7-3.2-1.6-4.4-2.9-1.2-1.3-2.1-2.8-2.8-4.7-.7-1.9-1-4-1-6.4s.4-4.6,1.1-6.4c.7-1.9,1.7-3.4,3-4.7,1.3-1.3,2.8-2.3,4.5-2.9,1.7-.7,3.6-1,5.5-1s2.5,0,3.6.3c1,.2,1.9.4,2.7.6.8.2,1.4.5,1.9.7.5.2.8.4,1,.5l-1.6,4.3c-.8-.5-1.9-.9-3.1-1.3s-2.5-.5-3.9-.5Z" style="fill: #333374;"/>
<path d="M825.3,1008.8c0-1.9.3-3.6.9-5s1.3-2.6,2.3-3.6c.9-1,2-1.7,3.2-2.2s2.5-.7,3.7-.7c3,0,5.3.9,7,2.8,1.7,1.9,2.5,4.6,2.5,8.3s0,.6,0,.9c0,.3,0,.7,0,.9h-14.4c.1,1.8.8,3.1,1.9,4.1,1.1,1,2.7,1.4,4.8,1.4s2.3-.1,3.4-.3c1-.2,1.8-.5,2.4-.7l.7,4.1c-.3.1-.7.3-1.1.4-.5.2-1,.3-1.7.4s-1.3.2-2,.3c-.7,0-1.5.1-2.2.1-1.9,0-3.6-.3-5-.9-1.4-.6-2.6-1.4-3.5-2.4-.9-1-1.6-2.2-2-3.6s-.7-2.9-.7-4.5ZM839.9,1006.5c0-.7,0-1.4-.3-2s-.5-1.2-.9-1.6-.8-.8-1.4-1.1c-.5-.3-1.2-.4-1.9-.4s-1.5.1-2,.4c-.6.3-1.1.7-1.5,1.1-.4.5-.7,1-.9,1.6-.2.6-.4,1.2-.5,1.9h9.4Z" style="fill: #333374;"/>
<path d="M862.7,1002.3c-.4-.1-1-.3-1.7-.4-.7-.2-1.6-.2-2.6-.2s-1.1,0-1.8.2-1.1.2-1.3.3v17.5h-5v-20.7c1-.4,2.2-.7,3.6-1,1.5-.3,3.1-.5,4.9-.5s.7,0,1.2,0c.4,0,.9,0,1.3.2.4,0,.9.2,1.3.2.4,0,.8.2,1,.3l-.9,4.2Z" style="fill: #333374;"/>
<path d="M874.3,997.2c1.7,0,3.1.2,4.2.6,1.1.4,2,1,2.7,1.8.7.8,1.2,1.7,1.5,2.7.3,1.1.4,2.2.4,3.5v13.2c-.8.2-2,.4-3.5.6-1.6.2-3.3.4-5.3.4s-2.5-.1-3.6-.4c-1.1-.2-2-.7-2.8-1.2-.8-.6-1.4-1.3-1.8-2.2-.4-.9-.6-2-.6-3.3s.2-2.3.7-3.2c.5-.9,1.1-1.6,2-2.1.8-.5,1.8-.9,2.9-1.2s2.2-.4,3.4-.4,1.1,0,1.8.1c.6,0,1.3.2,2,.4v-.8c0-.6,0-1.1-.2-1.7-.1-.5-.4-1-.7-1.4-.3-.4-.8-.7-1.4-.9s-1.3-.3-2.1-.3-2.2,0-3.2.2c-1,.2-1.8.4-2.4.6l-.6-4.1c.6-.2,1.6-.4,2.8-.7,1.2-.2,2.5-.3,3.9-.3ZM874.7,1016c1.6,0,2.7,0,3.5-.2v-5.6c-.3,0-.7-.2-1.2-.2-.5,0-1.1-.1-1.7-.1s-1.1,0-1.7.1-1.1.2-1.5.5c-.5.2-.8.5-1.1.9-.3.4-.4.9-.4,1.5,0,1.2.4,2,1.1,2.5.8.5,1.8.7,3,.7Z" style="fill: #333374;"/>
<path d="M896.9,1020c-1.5,0-2.7-.2-3.7-.5-1-.3-1.8-.7-2.4-1.3-.6-.6-1-1.3-1.2-2.1-.2-.8-.4-1.8-.4-2.9v-25.1l5-.8v25c0,.6,0,1.1.1,1.5,0,.4.3.8.5,1.1s.6.5,1,.7c.4.2,1,.3,1.6.4l-.7,4.2Z" style="fill: #333374;"/>
<path d="M920.1,1018.9c-1,.3-2.3.6-3.8.8s-3.1.4-4.8.4-3.3-.3-4.6-.8c-1.4-.5-2.5-1.3-3.5-2.3-1-1-1.7-2.2-2.2-3.6-.5-1.4-.8-3-.8-4.7s.2-3.3.6-4.7c.4-1.4,1.1-2.6,1.9-3.6.8-1,1.8-1.8,3-2.3,1.2-.5,2.6-.8,4.1-.8s2,.1,2.8.4c.8.2,1.5.5,2.1.8v-10.5l5-.8v31.7ZM905.6,1008.6c0,2.2.5,4,1.6,5.2,1.1,1.3,2.5,1.9,4.4,1.9s1.5,0,2.1-.1c.6,0,1-.1,1.4-.2v-12.5c-.4-.3-1-.6-1.8-.9-.7-.3-1.5-.4-2.4-.4-1.8,0-3.2.6-4,1.9s-1.3,2.9-1.3,5.1Z" style="fill: #333374;"/>
</g>
<g style="isolation: isolate;">
<path d="M926.3,992l5-.8v6.6h7.7v4.2h-7.7v8.9c0,1.8.3,3,.8,3.8.6.8,1.5,1.1,2.8,1.1s1.7,0,2.4-.3c.7-.2,1.3-.4,1.7-.5l.8,4c-.6.2-1.3.5-2.3.8-.9.3-2.1.4-3.3.4s-2.9-.2-3.9-.6c-1-.4-1.9-1-2.5-1.8-.6-.8-1-1.7-1.3-2.9-.2-1.1-.4-2.4-.4-3.9v-18.9Z" style="fill: #333374;"/>
</g>
<g style="isolation: isolate;">
<path d="M963.2,1008.7c0,1.7-.2,3.3-.8,4.7s-1.2,2.6-2.1,3.6c-.9,1-2,1.8-3.3,2.3-1.3.6-2.7.8-4.3.8s-3-.3-4.2-.8c-1.3-.6-2.4-1.3-3.3-2.3-.9-1-1.6-2.2-2.1-3.6-.5-1.4-.8-3-.8-4.7s.3-3.3.8-4.7c.5-1.4,1.2-2.6,2.2-3.6.9-1,2-1.8,3.3-2.3,1.3-.5,2.7-.8,4.2-.8s2.9.3,4.2.8c1.3.5,2.4,1.3,3.3,2.3.9,1,1.6,2.2,2.1,3.6s.8,3,.8,4.7ZM958,1008.7c0-2.2-.5-3.9-1.4-5.1-.9-1.3-2.2-1.9-3.9-1.9s-3,.6-3.9,1.9-1.4,3-1.4,5.1.5,3.9,1.4,5.2,2.2,1.9,3.9,1.9,3-.6,3.9-1.9c.9-1.3,1.4-3,1.4-5.2Z" style="fill: #333374;"/>
<path d="M968.4,998.5c1-.3,2.2-.5,3.8-.8,1.6-.2,3.3-.4,5.2-.4s3.3.2,4.5.7c1.2.5,2.1,1.2,2.9,2,.7.9,1.2,1.9,1.5,3.2.3,1.2.4,2.6.4,4.1v12.2h-5v-11.5c0-1.2,0-2.2-.2-3-.2-.8-.4-1.5-.7-2-.3-.5-.8-.9-1.4-1.1-.6-.2-1.3-.4-2.2-.4s-1.3,0-2,.1c-.7,0-1.2.2-1.5.2v17.6h-5v-21.1Z" style="fill: #333374;"/>
</g>
</g>
<g style="isolation: isolate;">
<g style="isolation: isolate;">
<path d="M551.7,251.6c1.9,0,3.3-.3,4.1-1,.9-.6,1.3-1.5,1.3-2.7s-.1-1.3-.4-1.8c-.3-.5-.7-1-1.2-1.4-.5-.4-1.2-.8-2-1.1-.8-.3-1.7-.7-2.7-1-1-.4-2-.8-2.9-1.2-.9-.4-1.7-1-2.5-1.6-.7-.6-1.3-1.4-1.7-2.3-.4-.9-.6-2-.6-3.2,0-2.6.9-4.7,2.7-6.1,1.8-1.5,4.3-2.2,7.4-2.2s3.4.2,4.8.6c1.4.4,2.5.8,3.3,1.3l-1.6,4.2c-.9-.5-2-.9-3.1-1.2s-2.3-.4-3.5-.4-2.5.3-3.3.9-1.2,1.4-1.2,2.5.1,1.2.4,1.6c.3.5.6.9,1.1,1.2.5.4,1.1.7,1.7,1,.7.3,1.4.6,2.1.9,1.4.5,2.6,1,3.6,1.5,1.1.5,2,1.1,2.7,1.8.7.7,1.3,1.5,1.7,2.5.4,1,.6,2.1.6,3.5,0,2.6-.9,4.6-2.8,6.1-1.8,1.4-4.5,2.1-8.1,2.1s-2.3,0-3.3-.2c-1-.2-1.9-.3-2.6-.6-.8-.2-1.4-.5-2-.7-.6-.2-1-.5-1.3-.6l1.5-4.3c.8.4,1.8.8,3,1.2,1.3.4,2.8.6,4.6.6Z" style="fill: #333374;"/>
<path d="M572.5,227.4c0,.9-.3,1.7-.9,2.2-.6.6-1.3.8-2.2.8s-1.6-.3-2.2-.8c-.6-.6-.9-1.3-.9-2.2s.3-1.7.9-2.3c.6-.6,1.3-.8,2.2-.8s1.6.3,2.2.8c.6.6.9,1.3.9,2.3ZM572,255.5h-5v-21.8h5v21.8Z" style="fill: #333374;"/>
<path d="M578.4,234.4c1-.3,2.2-.5,3.8-.8,1.6-.2,3.3-.4,5.2-.4s3.3.2,4.5.7c1.2.5,2.1,1.2,2.9,2,.7.9,1.2,1.9,1.5,3.2.3,1.2.4,2.6.4,4.1v12.2h-5v-11.5c0-1.2,0-2.2-.2-3-.2-.8-.4-1.5-.7-2-.3-.5-.8-.9-1.4-1.1-.6-.2-1.3-.4-2.2-.4s-1.3,0-2,.1c-.7,0-1.2.2-1.5.2v17.6h-5v-21.1Z" style="fill: #333374;"/>
<path d="M620.8,253.3c0,3.5-.9,6-2.6,7.6-1.8,1.6-4.5,2.4-8.1,2.4s-2.6-.1-3.9-.3c-1.3-.2-2.4-.5-3.4-.9l.9-4.3c.9.4,1.8.7,2.9.9,1.1.2,2.3.3,3.6.3,2,0,3.5-.4,4.3-1.2.9-.8,1.3-2.1,1.3-3.7v-.8c-.5.2-1.2.5-2,.8-.8.2-1.8.4-2.8.4s-2.7-.2-3.8-.7c-1.2-.4-2.1-1.1-3-2-.8-.9-1.5-1.9-1.9-3.2-.5-1.3-.7-2.8-.7-4.5s.2-3,.7-4.4,1.2-2.5,2.1-3.4c.9-.9,2.1-1.7,3.4-2.2,1.3-.5,2.8-.8,4.5-.8s3.2.1,4.7.4c1.5.2,2.7.5,3.7.8v18.9ZM606.7,244.1c0,2.1.5,3.7,1.4,4.7.9,1,2.1,1.5,3.6,1.5s1.6-.1,2.3-.3c.7-.2,1.3-.5,1.7-.8v-11.3c-.4,0-.8-.2-1.3-.2-.5,0-1.2-.1-2-.1-1.8,0-3.2.6-4.2,1.8-1,1.2-1.5,2.8-1.5,4.8Z" style="fill: #333374;"/>
<path d="M634.4,233.2c1.7,0,3.1.2,4.2.6,1.1.4,2,1,2.7,1.8.7.8,1.2,1.7,1.5,2.7.3,1.1.4,2.2.4,3.5v13.2c-.8.2-2,.4-3.5.6-1.6.2-3.3.4-5.3.4s-2.5-.1-3.6-.4c-1.1-.2-2-.7-2.8-1.2-.8-.6-1.4-1.3-1.8-2.2-.4-.9-.6-2-.6-3.3s.2-2.3.7-3.2c.5-.9,1.1-1.6,2-2.1.8-.5,1.8-.9,2.9-1.2,1.1-.2,2.2-.4,3.4-.4s1.1,0,1.8.1c.6,0,1.3.2,2,.4v-.8c0-.6,0-1.1-.2-1.7-.1-.5-.4-1-.7-1.4-.3-.4-.8-.7-1.4-.9-.6-.2-1.3-.3-2.1-.3s-2.2,0-3.2.2c-1,.2-1.8.4-2.4.6l-.6-4.1c.6-.2,1.6-.4,2.8-.7,1.2-.2,2.5-.3,3.9-.3ZM634.9,252c1.6,0,2.7,0,3.5-.2v-5.6c-.3,0-.7-.2-1.2-.2-.5,0-1.1-.1-1.7-.1s-1.1,0-1.7.1c-.6,0-1.1.2-1.5.5-.5.2-.8.5-1.1.9-.3.4-.4.9-.4,1.5,0,1.2.4,2,1.1,2.5s1.8.7,3,.7Z" style="fill: #333374;"/>
<path d="M669.1,244.7c0,1.7-.2,3.2-.6,4.6-.4,1.4-1,2.6-1.9,3.6-.8,1-1.8,1.8-3,2.3-1.2.6-2.6.8-4.1.8s-2-.1-2.8-.4c-.9-.2-1.6-.5-2.1-.8v8.5h-5v-28.8c1-.3,2.3-.5,3.8-.8,1.5-.2,3.1-.4,4.7-.4s3.3.3,4.6.8c1.4.5,2.5,1.3,3.5,2.3,1,1,1.7,2.2,2.2,3.6.5,1.4.8,3,.8,4.7ZM663.9,244.7c0-2.2-.5-4-1.5-5.2-1-1.2-2.6-1.9-4.9-1.9s-1,0-1.5,0c-.5,0-1,.1-1.5.3v12.5c.4.3,1,.6,1.8.9.7.3,1.5.4,2.4.4,1.8,0,3.2-.6,4-1.9s1.3-2.9,1.3-5Z" style="fill: #333374;"/>
<path d="M694,244.6c0,1.7-.2,3.3-.8,4.7-.5,1.4-1.2,2.6-2.1,3.6s-2,1.8-3.3,2.3-2.7.8-4.3.8-3-.3-4.2-.8c-1.3-.6-2.4-1.3-3.3-2.3s-1.6-2.2-2.1-3.6c-.5-1.4-.8-3-.8-4.7s.3-3.3.8-4.7c.5-1.4,1.2-2.6,2.2-3.6.9-1,2-1.8,3.3-2.3,1.3-.5,2.7-.8,4.2-.8s2.9.3,4.2.8c1.3.5,2.4,1.3,3.3,2.3s1.6,2.2,2.1,3.6c.5,1.4.8,3,.8,4.7ZM688.8,244.6c0-2.2-.5-3.9-1.4-5.1-.9-1.3-2.2-1.9-3.9-1.9s-3,.6-3.9,1.9c-.9,1.3-1.4,3-1.4,5.1s.5,3.9,1.4,5.2c.9,1.3,2.2,1.9,3.9,1.9s3-.6,3.9-1.9c.9-1.3,1.4-3,1.4-5.2Z" style="fill: #333374;"/>
<path d="M711.6,238.3c-.4-.1-1-.3-1.7-.4-.7-.2-1.6-.2-2.6-.2s-1.1,0-1.8.2c-.6.1-1.1.2-1.3.3v17.5h-5v-20.7c1-.4,2.2-.7,3.6-1,1.5-.3,3.1-.5,4.9-.5s.7,0,1.2,0c.4,0,.9,0,1.3.2.4,0,.9.2,1.3.2.4,0,.8.2,1,.3l-.9,4.2Z" style="fill: #333374;"/>
<path d="M714.8,244.7c0-1.9.3-3.6.9-5,.6-1.4,1.3-2.6,2.3-3.6.9-1,2-1.7,3.2-2.2,1.2-.5,2.5-.7,3.7-.7,3,0,5.3.9,7,2.8,1.7,1.9,2.5,4.6,2.5,8.3s0,.6,0,.9c0,.3,0,.7,0,.9h-14.4c.1,1.8.8,3.1,1.9,4.1,1.1,1,2.7,1.4,4.8,1.4s2.3-.1,3.4-.3c1-.2,1.8-.5,2.4-.7l.7,4.1c-.3.1-.7.3-1.1.4-.5.2-1,.3-1.7.4s-1.3.2-2,.3c-.7,0-1.5.1-2.2.1-1.9,0-3.6-.3-5-.9s-2.6-1.4-3.5-2.4c-.9-1-1.6-2.2-2-3.6-.4-1.4-.7-2.9-.7-4.5ZM729.4,242.5c0-.7,0-1.4-.3-2s-.5-1.2-.9-1.6c-.4-.5-.8-.8-1.4-1.1-.5-.3-1.2-.4-1.9-.4s-1.5.1-2,.4c-.6.3-1.1.7-1.5,1.1-.4.5-.7,1-.9,1.6-.2.6-.4,1.2-.5,1.9h9.4Z" style="fill: #333374;"/>
</g>
</g>
<g style="isolation: isolate;">
<g style="isolation: isolate;">
<path d="M380.7,344.6c-1.5,0-3.1,0-4.6-.1-1.6,0-2.9-.3-4.1-.6v-28c.6-.1,1.3-.2,2-.3.7,0,1.4-.2,2.1-.2.7,0,1.4,0,2.1-.1.7,0,1.4,0,2,0,1.7,0,3.4.1,4.9.4,1.5.3,2.8.7,3.9,1.3,1.1.6,2,1.4,2.6,2.4.6,1,.9,2.2.9,3.7s-.3,2.5-1,3.5c-.7,1-1.6,1.7-2.7,2.3,1.8.6,3,1.4,3.9,2.6.8,1.1,1.2,2.6,1.2,4.3,0,3-1.1,5.2-3.2,6.7-2.2,1.5-5.5,2.2-10,2.2ZM377.1,327.2h3.7c2,0,3.6-.3,4.7-.9,1.1-.6,1.7-1.6,1.7-3.1s-.6-2.4-1.8-3c-1.2-.6-2.7-.9-4.6-.9s-1.5,0-2.1,0-1.2,0-1.6.1v7.6ZM377.1,331.3v8.8c.6,0,1.2,0,1.9.1.7,0,1.3,0,1.8,0,1.1,0,2.1,0,3-.2.9-.1,1.7-.4,2.4-.7.7-.3,1.2-.8,1.6-1.4.4-.6.6-1.3.6-2.2,0-1.6-.6-2.8-1.8-3.4-1.2-.6-2.8-1-5-1h-4.6Z" style="fill: #333374;"/>
<path d="M406.3,321.9c1.7,0,3.1.2,4.2.6,1.1.4,2,1,2.7,1.8.7.8,1.2,1.7,1.5,2.7.3,1.1.4,2.2.4,3.5v13.2c-.8.2-2,.4-3.5.6-1.6.2-3.3.4-5.3.4s-2.5-.1-3.6-.4c-1.1-.2-2-.7-2.8-1.2-.8-.6-1.4-1.3-1.8-2.2-.4-.9-.6-2-.6-3.3s.2-2.3.7-3.2c.5-.9,1.1-1.6,2-2.1.8-.5,1.8-.9,2.9-1.2,1.1-.2,2.2-.4,3.4-.4s1.1,0,1.8.1c.6,0,1.3.2,2,.4v-.8c0-.6,0-1.1-.2-1.7-.1-.5-.4-1-.7-1.4-.3-.4-.8-.7-1.4-.9-.6-.2-1.3-.3-2.1-.3s-2.2,0-3.2.2c-1,.2-1.8.4-2.4.6l-.6-4.1c.6-.2,1.6-.4,2.8-.7,1.2-.2,2.5-.3,3.9-.3ZM406.8,340.7c1.6,0,2.7,0,3.5-.2v-5.6c-.3,0-.7-.2-1.2-.2-.5,0-1.1-.1-1.7-.1s-1.1,0-1.7.1c-.6,0-1.1.2-1.5.5-.5.2-.8.5-1.1.9-.3.4-.4.9-.4,1.5,0,1.2.4,2,1.1,2.5s1.8.7,3,.7Z" style="fill: #333374;"/>
<path d="M421.1,316.7l5-.8v6.6h7.7v4.2h-7.7v8.9c0,1.8.3,3,.8,3.7.6.8,1.5,1.1,2.8,1.1s1.7,0,2.4-.3c.7-.2,1.3-.4,1.7-.5l.8,4c-.6.2-1.3.5-2.3.8-.9.3-2.1.4-3.3.4s-2.9-.2-3.9-.6-1.9-1-2.5-1.8c-.6-.8-1-1.7-1.3-2.9-.2-1.1-.4-2.4-.4-3.9v-18.9Z" style="fill: #333374;"/>
<path d="M446,321.9c1.7,0,3.1.2,4.2.6,1.1.4,2,1,2.7,1.8.7.8,1.2,1.7,1.5,2.7.3,1.1.4,2.2.4,3.5v13.2c-.8.2-2,.4-3.5.6-1.6.2-3.3.4-5.3.4s-2.5-.1-3.6-.4c-1.1-.2-2-.7-2.8-1.2-.8-.6-1.4-1.3-1.8-2.2-.4-.9-.6-2-.6-3.3s.2-2.3.7-3.2c.5-.9,1.1-1.6,2-2.1.8-.5,1.8-.9,2.9-1.2,1.1-.2,2.2-.4,3.4-.4s1.1,0,1.8.1c.6,0,1.3.2,2,.4v-.8c0-.6,0-1.1-.2-1.7-.1-.5-.4-1-.7-1.4-.3-.4-.8-.7-1.4-.9-.6-.2-1.3-.3-2.1-.3s-2.2,0-3.2.2c-1,.2-1.8.4-2.4.6l-.6-4.1c.6-.2,1.6-.4,2.8-.7,1.2-.2,2.5-.3,3.9-.3ZM446.4,340.7c1.6,0,2.7,0,3.5-.2v-5.6c-.3,0-.7-.2-1.2-.2-.5,0-1.1-.1-1.7-.1s-1.1,0-1.7.1c-.6,0-1.1.2-1.5.5-.5.2-.8.5-1.1.9-.3.4-.4.9-.4,1.5,0,1.2.4,2,1.1,2.5s1.8.7,3,.7Z" style="fill: #333374;"/>
<path d="M473.4,332.8c0-2.3-.3-3.9-.9-4.9-.6-1-1.6-1.5-3.2-1.5s-1.2,0-1.8.1c-.7,0-1.2.2-1.5.2v17.6h-5v-21.1c1-.3,2.2-.5,3.8-.8,1.6-.2,3.2-.4,5-.4s2.7.2,3.7.6,1.8.9,2.4,1.5c.3-.2.7-.5,1.2-.7.5-.2,1-.5,1.6-.7.6-.2,1.2-.4,1.9-.5.7-.1,1.3-.2,2-.2,1.7,0,3.1.2,4.2.7,1.1.5,2,1.2,2.6,2,.6.9,1.1,1.9,1.3,3.2.2,1.2.4,2.6.4,4.1v12.2h-5v-11.5c0-2.3-.3-3.9-.8-4.9-.6-1-1.6-1.5-3.2-1.5s-1.6.1-2.3.4c-.7.3-1.3.5-1.6.8.2.7.4,1.4.5,2.2,0,.8.1,1.6.1,2.5v12h-5v-11.5Z" style="fill: #333374;"/>
</g>
</g>
<g style="isolation: isolate;">
<g style="isolation: isolate;">
<path d="M600.3,507.9c0,1.4-.2,2.7-.5,4-.3,1.2-.8,2.3-1.6,3.2-.8.9-1.8,1.6-3.1,2.2s-2.9.8-4.9.8-3.4-.3-4.8-.8c-1.3-.5-2.4-1.1-3.1-1.6l1.9-4.1c.7.5,1.5.9,2.6,1.4,1,.4,2,.6,3.1.6,1.8,0,3.1-.4,3.9-1.3.8-.9,1.2-2.4,1.2-4.6v-19h5.3v19.4Z" style="fill: #333374;"/>
<path d="M614,495.1c1.7,0,3.1.2,4.2.6,1.1.4,2,1,2.7,1.8.7.8,1.2,1.7,1.5,2.7.3,1.1.4,2.2.4,3.5v13.2c-.8.2-2,.4-3.5.6-1.6.2-3.3.4-5.3.4s-2.5-.1-3.6-.4c-1.1-.2-2-.7-2.8-1.2-.8-.6-1.4-1.3-1.8-2.2-.4-.9-.6-2-.6-3.3s.2-2.3.7-3.2c.5-.9,1.1-1.6,2-2.1.8-.5,1.8-.9,2.9-1.2,1.1-.2,2.2-.4,3.4-.4s1.1,0,1.8.1c.6,0,1.3.2,2,.4v-.8c0-.6,0-1.1-.2-1.7-.1-.5-.4-1-.7-1.4-.3-.4-.8-.7-1.4-.9-.6-.2-1.3-.3-2.1-.3s-2.2,0-3.2.2c-1,.2-1.8.4-2.4.6l-.6-4.1c.6-.2,1.6-.4,2.8-.7,1.2-.2,2.5-.3,3.9-.3ZM614.4,513.9c1.6,0,2.7,0,3.5-.2v-5.6c-.3,0-.7-.2-1.2-.2-.5,0-1.1-.1-1.7-.1s-1.1,0-1.7.1c-.6,0-1.1.2-1.5.5-.5.2-.8.5-1.1.9-.3.4-.4.9-.4,1.5,0,1.2.4,2,1.1,2.5s1.8.7,3,.7Z" style="fill: #333374;"/>
<path d="M634,504.2c.6-.7,1.3-1.4,2-2.1.7-.8,1.4-1.5,2.1-2.3.7-.8,1.4-1.5,2-2.2s1.2-1.3,1.6-1.9h6c-1.4,1.6-2.8,3.2-4.4,4.8-1.5,1.7-3.1,3.3-4.6,4.9.8.7,1.7,1.5,2.6,2.5.9,1,1.8,2,2.7,3.1.9,1.1,1.7,2.2,2.4,3.3.7,1.1,1.4,2.1,1.9,3.1h-5.8c-.5-.9-1.1-1.8-1.7-2.7-.7-.9-1.4-1.9-2.1-2.7-.7-.9-1.5-1.7-2.3-2.5-.8-.8-1.5-1.5-2.3-2v10h-5v-31.5l5-.8v19Z" style="fill: #333374;"/>
<path d="M659.2,495.1c1.7,0,3.1.2,4.2.6,1.1.4,2,1,2.7,1.8.7.8,1.2,1.7,1.5,2.7.3,1.1.4,2.2.4,3.5v13.2c-.8.2-2,.4-3.5.6-1.6.2-3.3.4-5.3.4s-2.5-.1-3.6-.4c-1.1-.2-2-.7-2.8-1.2-.8-.6-1.4-1.3-1.8-2.2-.4-.9-.6-2-.6-3.3s.2-2.3.7-3.2c.5-.9,1.1-1.6,2-2.1.8-.5,1.8-.9,2.9-1.2,1.1-.2,2.2-.4,3.4-.4s1.1,0,1.8.1c.6,0,1.3.2,2,.4v-.8c0-.6,0-1.1-.2-1.7-.1-.5-.4-1-.7-1.4-.3-.4-.8-.7-1.4-.9-.6-.2-1.3-.3-2.1-.3s-2.2,0-3.2.2c-1,.2-1.8.4-2.4.6l-.6-4.1c.6-.2,1.6-.4,2.8-.7,1.2-.2,2.5-.3,3.9-.3ZM659.6,513.9c1.6,0,2.7,0,3.5-.2v-5.6c-.3,0-.7-.2-1.2-.2-.5,0-1.1-.1-1.7-.1s-1.1,0-1.7.1c-.6,0-1.1.2-1.5.5-.5.2-.8.5-1.1.9-.3.4-.4.9-.4,1.5,0,1.2.4,2,1.1,2.5s1.8.7,3,.7Z" style="fill: #333374;"/>
<path d="M686.6,500.2c-.4-.1-1-.3-1.7-.4-.7-.2-1.6-.2-2.6-.2s-1.1,0-1.8.2c-.6.1-1.1.2-1.3.3v17.5h-5v-20.7c1-.4,2.2-.7,3.6-1,1.5-.3,3.1-.5,4.9-.5s.7,0,1.2,0c.4,0,.9,0,1.3.2.4,0,.9.2,1.3.2.4,0,.8.2,1,.3l-.9,4.2Z" style="fill: #333374;"/>
<path d="M690.7,489.9l5-.8v6.6h7.7v4.2h-7.7v8.9c0,1.8.3,3,.8,3.7.6.8,1.5,1.1,2.8,1.1s1.7,0,2.4-.3c.7-.2,1.3-.4,1.7-.5l.8,4c-.6.2-1.3.5-2.3.8-.9.3-2.1.4-3.3.4s-2.9-.2-3.9-.6-1.9-1-2.5-1.8c-.6-.8-1-1.7-1.3-2.9-.2-1.1-.4-2.4-.4-3.9v-18.9Z" style="fill: #333374;"/>
<path d="M715.6,495.1c1.7,0,3.1.2,4.2.6,1.1.4,2,1,2.7,1.8.7.8,1.2,1.7,1.5,2.7.3,1.1.4,2.2.4,3.5v13.2c-.8.2-2,.4-3.5.6-1.6.2-3.3.4-5.3.4s-2.5-.1-3.6-.4c-1.1-.2-2-.7-2.8-1.2-.8-.6-1.4-1.3-1.8-2.2-.4-.9-.6-2-.6-3.3s.2-2.3.7-3.2c.5-.9,1.1-1.6,2-2.1.8-.5,1.8-.9,2.9-1.2,1.1-.2,2.2-.4,3.4-.4s1.1,0,1.8.1c.6,0,1.3.2,2,.4v-.8c0-.6,0-1.1-.2-1.7-.1-.5-.4-1-.7-1.4-.3-.4-.8-.7-1.4-.9-.6-.2-1.3-.3-2.1-.3s-2.2,0-3.2.2c-1,.2-1.8.4-2.4.6l-.6-4.1c.6-.2,1.6-.4,2.8-.7,1.2-.2,2.5-.3,3.9-.3ZM716.1,513.9c1.6,0,2.7,0,3.5-.2v-5.6c-.3,0-.7-.2-1.2-.2-.5,0-1.1-.1-1.7-.1s-1.1,0-1.7.1c-.6,0-1.1.2-1.5.5-.5.2-.8.5-1.1.9-.3.4-.4.9-.4,1.5,0,1.2.4,2,1.1,2.5s1.8.7,3,.7Z" style="fill: #333374;"/>
</g>
</g>
<g style="isolation: isolate;">
<g style="isolation: isolate;">
<path d="M827.3,511.3v4.5h-8.9v24.3h-5.3v-24.3h-8.9v-4.5h23Z" style="fill: #333374;"/>
<path d="M836.7,512c0,.9-.3,1.7-.9,2.2-.6.6-1.3.8-2.2.8s-1.6-.3-2.2-.8c-.6-.6-.9-1.3-.9-2.2s.3-1.7.9-2.3c.6-.6,1.3-.8,2.2-.8s1.6.3,2.2.8c.6.6.9,1.3.9,2.3ZM836.2,540.2h-5v-21.8h5v21.8Z" style="fill: #333374;"/>
<path d="M855,528.7c0-2.3-.3-3.9-.9-4.9-.6-1-1.6-1.5-3.2-1.5s-1.2,0-1.8.1c-.7,0-1.2.2-1.5.2v17.6h-5v-21.1c1-.3,2.2-.5,3.8-.8s3.2-.4,5-.4,2.7.2,3.7.6,1.8.9,2.4,1.5c.3-.2.7-.5,1.2-.7.5-.2,1-.5,1.6-.7s1.2-.4,1.9-.5c.7-.1,1.3-.2,2-.2,1.7,0,3.1.2,4.2.7,1.1.5,2,1.2,2.6,2,.6.9,1.1,1.9,1.3,3.2.2,1.2.4,2.6.4,4.1v12.2h-5v-11.5c0-2.3-.3-3.9-.8-4.9-.6-1-1.6-1.5-3.2-1.5s-1.6.1-2.3.4c-.7.3-1.3.5-1.6.8.2.7.4,1.4.5,2.2,0,.8.1,1.6.1,2.5v12h-5v-11.5Z" style="fill: #333374;"/>
<path d="M898.3,529.3c0,1.7-.2,3.3-.8,4.7-.5,1.4-1.2,2.6-2.1,3.6-.9,1-2,1.8-3.3,2.3-1.3.6-2.7.8-4.3.8s-3-.3-4.2-.8-2.4-1.3-3.3-2.3c-.9-1-1.6-2.2-2.1-3.6-.5-1.4-.8-3-.8-4.7s.3-3.3.8-4.7,1.2-2.6,2.2-3.6,2-1.8,3.3-2.3c1.3-.5,2.7-.8,4.2-.8s2.9.3,4.2.8c1.3.5,2.4,1.3,3.3,2.3.9,1,1.6,2.2,2.1,3.6.5,1.4.8,3,.8,4.7ZM893.1,529.3c0-2.2-.5-3.9-1.4-5.1s-2.2-1.9-3.9-1.9-3,.6-3.9,1.9c-.9,1.3-1.4,3-1.4,5.1s.5,3.9,1.4,5.2c.9,1.3,2.2,1.9,3.9,1.9s3-.6,3.9-1.9,1.4-3,1.4-5.2Z" style="fill: #333374;"/>
</g>
<g style="isolation: isolate;">
<path d="M915.9,522.9c-.4-.1-1-.3-1.7-.4-.7-.2-1.6-.2-2.6-.2s-1.1,0-1.8.2c-.6.1-1.1.2-1.3.3v17.5h-5v-20.7c1-.4,2.2-.7,3.6-1,1.5-.3,3.1-.5,4.9-.5s.7,0,1.2,0c.4,0,.9,0,1.3.2.4,0,.9.2,1.3.2.4,0,.8.2,1,.3l-.9,4.2Z" style="fill: #333374;"/>
</g>
<g style="isolation: isolate;">
<path d="M916.9,526h11.2v4.6h-11.2v-4.6Z" style="fill: #333374;"/>
</g>
<g style="isolation: isolate;">
<path d="M950.8,535.6v4.5h-18.2v-28.9h5.2v24.3h13Z" style="fill: #333374;"/>
</g>
<g style="isolation: isolate;">
<path d="M953,529.4c0-1.9.3-3.6.9-5,.6-1.4,1.3-2.6,2.3-3.6.9-1,2-1.7,3.2-2.2,1.2-.5,2.5-.7,3.7-.7,3,0,5.3.9,7,2.8,1.7,1.9,2.5,4.6,2.5,8.3s0,.6,0,.9c0,.3,0,.7,0,.9h-14.4c.1,1.8.8,3.1,1.9,4.1,1.1,1,2.7,1.4,4.8,1.4s2.3-.1,3.4-.3c1-.2,1.8-.5,2.4-.7l.7,4.1c-.3.1-.7.3-1.1.4-.5.2-1,.3-1.7.4s-1.3.2-2,.3c-.7,0-1.5.1-2.2.1-1.9,0-3.6-.3-5-.9s-2.6-1.4-3.5-2.4c-.9-1-1.6-2.2-2-3.6-.4-1.4-.7-2.9-.7-4.5ZM967.6,527.1c0-.7,0-1.4-.3-2s-.5-1.2-.9-1.6c-.4-.5-.8-.8-1.4-1.1-.5-.3-1.2-.4-1.9-.4s-1.5.1-2,.4c-.6.3-1.1.7-1.5,1.1-.4.5-.7,1-.9,1.6-.2.6-.4,1.2-.5,1.9h9.4Z" style="fill: #333374;"/>
<path d="M983.4,536.6c1.3,0,2.3-.2,2.9-.5.6-.3.9-.9.9-1.6s-.3-1.3-1-1.8c-.7-.5-1.7-1-3.2-1.5-.9-.3-1.8-.7-2.5-1.1-.8-.4-1.4-.8-2-1.3-.6-.5-1-1.1-1.3-1.8-.3-.7-.5-1.6-.5-2.6,0-2,.7-3.6,2.2-4.7,1.5-1.2,3.5-1.7,6-1.7s2.5.1,3.7.4c1.2.2,2,.5,2.6.7l-.9,4.1c-.6-.2-1.3-.5-2.1-.7-.9-.2-1.9-.3-3-.3s-1.9.2-2.5.5c-.6.3-1,.9-1,1.6s0,.7.2,1c.1.3.3.5.6.8.3.2.7.5,1.2.7.5.2,1.1.5,1.8.7,1.2.4,2.2.9,3,1.3.8.4,1.5.9,2.1,1.5.5.5.9,1.2,1.2,1.9s.4,1.5.4,2.5c0,2.1-.8,3.7-2.3,4.7-1.5,1.1-3.7,1.6-6.6,1.6s-3.5-.2-4.6-.5-2-.6-2.5-.8l.9-4.2c.7.3,1.6.6,2.7.9,1,.3,2.2.4,3.6.4Z" style="fill: #333374;"/>
</g>
<g style="isolation: isolate;">
<path d="M996.8,512.6l5-.8v6.6h7.7v4.2h-7.7v8.9c0,1.8.3,3,.8,3.7.6.8,1.5,1.1,2.8,1.1s1.7,0,2.4-.3c.7-.2,1.3-.4,1.7-.5l.8,4c-.6.2-1.3.5-2.3.8-.9.3-2.1.4-3.3.4s-2.9-.2-3.9-.6-1.9-1-2.5-1.8c-.6-.8-1-1.7-1.3-2.9-.2-1.1-.4-2.4-.4-3.9v-18.9Z" style="fill: #333374;"/>
</g>
<g style="isolation: isolate;">
<path d="M1012.8,529.4c0-1.9.3-3.6.9-5,.6-1.4,1.3-2.6,2.3-3.6.9-1,2-1.7,3.2-2.2,1.2-.5,2.5-.7,3.7-.7,3,0,5.3.9,7,2.8,1.7,1.9,2.5,4.6,2.5,8.3s0,.6,0,.9c0,.3,0,.7,0,.9h-14.4c.1,1.8.8,3.1,1.9,4.1,1.1,1,2.7,1.4,4.8,1.4s2.3-.1,3.4-.3c1-.2,1.8-.5,2.4-.7l.7,4.1c-.3.1-.7.3-1.1.4-.5.2-1,.3-1.7.4s-1.3.2-2,.3c-.7,0-1.5.1-2.2.1-1.9,0-3.6-.3-5-.9s-2.6-1.4-3.5-2.4c-.9-1-1.6-2.2-2-3.6-.4-1.4-.7-2.9-.7-4.5ZM1027.5,527.1c0-.7,0-1.4-.3-2s-.5-1.2-.9-1.6c-.4-.5-.8-.8-1.4-1.1-.5-.3-1.2-.4-1.9-.4s-1.5.1-2,.4c-.6.3-1.1.7-1.5,1.1-.4.5-.7,1-.9,1.6-.2.6-.4,1.2-.5,1.9h9.4Z" style="fill: #333374;"/>
</g>
</g>
<g style="isolation: isolate;">
<g style="isolation: isolate;">
<path d="M280.6,246.1c.6,1.1,1.3,2.3,2,3.9.8,1.5,1.5,3.1,2.3,4.8.8,1.7,1.5,3.4,2.3,5.1.8,1.7,1.5,3.3,2.1,4.8.6-1.5,1.3-3.1,2.1-4.8.7-1.7,1.5-3.4,2.3-5.1.8-1.7,1.5-3.3,2.3-4.8.8-1.5,1.4-2.8,2-3.9h4.7c.3,2.1.5,4.4.7,6.7.2,2.4.4,4.8.6,7.3s.4,5,.5,7.5.3,5,.4,7.4h-5.2c-.1-3.4-.2-6.8-.4-10.4-.2-3.6-.4-7-.7-10.3-.3.6-.7,1.4-1.1,2.3-.4.9-.9,1.9-1.3,2.9-.5,1-1,2.1-1.4,3.2-.5,1.1-1,2.2-1.4,3.2-.5,1-.9,2-1.3,2.9-.4.9-.7,1.7-1,2.3h-3.9c-.3-.6-.6-1.4-1-2.3-.4-.9-.8-1.9-1.3-2.9-.5-1-.9-2.1-1.4-3.2-.5-1.1-1-2.2-1.4-3.2-.5-1-.9-2-1.3-2.9-.4-.9-.8-1.7-1.1-2.3-.3,3.3-.5,6.8-.7,10.3-.2,3.6-.3,7-.4,10.4h-5.2c.1-2.4.2-4.9.4-7.4.2-2.6.3-5.1.5-7.6.2-2.5.4-5,.6-7.3.2-2.4.5-4.5.7-6.5h4.9Z" style="fill: #333374;"/>
<path d="M309.6,264.2c0-1.9.3-3.6.9-5,.6-1.4,1.3-2.6,2.3-3.6.9-1,2-1.7,3.2-2.2,1.2-.5,2.5-.7,3.7-.7,3,0,5.3.9,7,2.8,1.7,1.9,2.5,4.6,2.5,8.3s0,.6,0,.9c0,.3,0,.7,0,.9h-14.4c.1,1.8.8,3.1,1.9,4.1,1.1,1,2.7,1.4,4.8,1.4s2.3-.1,3.4-.3c1-.2,1.8-.5,2.4-.7l.7,4.1c-.3.1-.7.3-1.1.4-.5.2-1,.3-1.7.4s-1.3.2-2,.3c-.7,0-1.5.1-2.2.1-1.9,0-3.6-.3-5-.9s-2.6-1.4-3.5-2.4c-.9-1-1.6-2.2-2-3.6-.4-1.4-.7-2.9-.7-4.5ZM324.3,261.9c0-.7,0-1.4-.3-2s-.5-1.2-.9-1.6c-.4-.5-.8-.8-1.4-1.1-.5-.3-1.2-.4-1.9-.4s-1.5.1-2,.4c-.6.3-1.1.7-1.5,1.1-.4.5-.7,1-.9,1.6-.2.6-.4,1.2-.5,1.9h9.4Z" style="fill: #333374;"/>
<path d="M353,274.3c-1,.3-2.3.6-3.8.8s-3.1.4-4.8.4-3.3-.3-4.6-.8c-1.4-.5-2.5-1.3-3.5-2.3-1-1-1.7-2.2-2.2-3.6-.5-1.4-.8-3-.8-4.7s.2-3.3.6-4.7c.4-1.4,1.1-2.6,1.9-3.6.8-1,1.8-1.8,3-2.3,1.2-.5,2.6-.8,4.1-.8s2,.1,2.8.4c.8.2,1.5.5,2.1.8v-10.5l5-.8v31.7ZM338.6,264c0,2.2.5,4,1.6,5.2,1.1,1.3,2.5,1.9,4.4,1.9s1.5,0,2.1-.1c.6,0,1-.1,1.4-.2v-12.5c-.4-.3-1-.6-1.8-.9-.7-.3-1.5-.4-2.4-.4-1.8,0-3.2.6-4,1.9s-1.3,2.9-1.3,5.1Z" style="fill: #333374;"/>
<path d="M366.7,252.6c1.7,0,3.1.2,4.2.6,1.1.4,2,1,2.7,1.8.7.8,1.2,1.7,1.5,2.7.3,1.1.4,2.2.4,3.5v13.2c-.8.2-2,.4-3.5.6-1.6.2-3.3.4-5.3.4s-2.5-.1-3.6-.4c-1.1-.2-2-.7-2.8-1.2-.8-.6-1.4-1.3-1.8-2.2-.4-.9-.6-2-.6-3.3s.2-2.3.7-3.2c.5-.9,1.1-1.6,2-2.1.8-.5,1.8-.9,2.9-1.2,1.1-.2,2.2-.4,3.4-.4s1.1,0,1.8.1c.6,0,1.3.2,2,.4v-.8c0-.6,0-1.1-.2-1.7-.1-.5-.4-1-.7-1.4-.3-.4-.8-.7-1.4-.9-.6-.2-1.3-.3-2.1-.3s-2.2,0-3.2.2c-1,.2-1.8.4-2.4.6l-.6-4.1c.6-.2,1.6-.4,2.8-.7,1.2-.2,2.5-.3,3.9-.3ZM367.1,271.4c1.6,0,2.7,0,3.5-.2v-5.6c-.3,0-.7-.2-1.2-.2-.5,0-1.1-.1-1.7-.1s-1.1,0-1.7.1c-.6,0-1.1.2-1.5.5-.5.2-.8.5-1.1.9-.3.4-.4.9-.4,1.5,0,1.2.4,2,1.1,2.5s1.8.7,3,.7Z" style="fill: #333374;"/>
<path d="M381.7,253.9c1-.3,2.2-.5,3.8-.8,1.6-.2,3.3-.4,5.2-.4s3.3.2,4.5.7c1.2.5,2.1,1.2,2.9,2,.7.9,1.2,1.9,1.5,3.2.3,1.2.4,2.6.4,4.1v12.2h-5v-11.5c0-1.2,0-2.2-.2-3-.2-.8-.4-1.5-.7-2-.3-.5-.8-.9-1.4-1.1-.6-.2-1.3-.4-2.2-.4s-1.3,0-2,.1c-.7,0-1.2.2-1.5.2v17.6h-5v-21.1Z" style="fill: #333374;"/>
</g>
</g>
<g style="isolation: isolate;">
<g style="isolation: isolate;">
<path d="M1063.2,158.6c0,2.5-.4,4.7-1.2,6.5-.8,1.8-1.9,3.4-3.3,4.6-1.4,1.2-3.2,2.2-5.2,2.7-2,.6-4.2.9-6.7.9s-2.5,0-4-.1c-1.5,0-2.9-.3-4.2-.6v-28c1.3-.3,2.7-.5,4.2-.6,1.5,0,2.8-.1,4-.1,2.4,0,4.6.3,6.6.9,2,.6,3.7,1.5,5.1,2.7,1.4,1.2,2.5,2.7,3.3,4.6.8,1.8,1.2,4,1.2,6.6ZM1043.9,168.7c.3,0,.7,0,1.2,0,.5,0,1.2,0,2,0,3.5,0,6.2-.9,7.9-2.7,1.7-1.8,2.6-4.3,2.6-7.5s-.8-5.8-2.5-7.5c-1.7-1.8-4.3-2.6-7.9-2.6s-2.7,0-3.3.1v20.2Z" style="fill: #333374;"/>
</g>
<g style="isolation: isolate;">
<path d="M1075.5,150.8c1.7,0,3.1.2,4.2.6,1.1.4,2,1,2.7,1.8.7.8,1.2,1.7,1.5,2.7.3,1.1.4,2.2.4,3.5v13.2c-.8.2-2,.4-3.5.6-1.6.2-3.3.4-5.3.4s-2.5-.1-3.6-.4c-1.1-.2-2-.7-2.8-1.2-.8-.6-1.4-1.3-1.8-2.2-.4-.9-.6-2-.6-3.3s.2-2.3.7-3.2c.5-.9,1.1-1.6,2-2.1.8-.5,1.8-.9,2.9-1.2,1.1-.2,2.2-.4,3.4-.4s1.1,0,1.8.1c.6,0,1.3.2,2,.4v-.8c0-.6,0-1.1-.2-1.7-.1-.5-.4-1-.7-1.4-.3-.4-.8-.7-1.4-.9-.6-.2-1.3-.3-2.1-.3s-2.2,0-3.2.2c-1,.2-1.8.4-2.4.6l-.6-4.1c.6-.2,1.6-.4,2.8-.7,1.2-.2,2.5-.3,3.9-.3ZM1075.9,169.5c1.6,0,2.7,0,3.5-.2v-5.6c-.3,0-.7-.2-1.2-.2-.5,0-1.1-.1-1.7-.1s-1.1,0-1.7.1c-.6,0-1.1.2-1.5.5-.5.2-.8.5-1.1.9-.3.4-.4.9-.4,1.5,0,1.2.4,2,1.1,2.5s1.8.7,3,.7Z" style="fill: #333374;"/>
</g>
<g style="isolation: isolate;">
<path d="M1095.6,173.1c-1.4-2.9-2.8-6.1-4.3-9.9-1.5-3.7-2.8-7.7-4-11.9h5.4c.3,1.2.7,2.5,1.1,3.9.4,1.4.8,2.8,1.3,4.2.5,1.4.9,2.8,1.4,4.1.5,1.3.9,2.5,1.4,3.6.4-1.1.9-2.2,1.3-3.6.5-1.3.9-2.7,1.4-4.1s.9-2.8,1.3-4.2c.4-1.4.8-2.7,1.1-3.9h5.2c-1.2,4.2-2.5,8.2-4,11.9-1.5,3.7-2.9,7-4.3,9.9h-4.3Z" style="fill: #333374;"/>
<path d="M1119.1,150.8c1.7,0,3.1.2,4.2.6,1.1.4,2,1,2.7,1.8.7.8,1.2,1.7,1.5,2.7.3,1.1.4,2.2.4,3.5v13.2c-.8.2-2,.4-3.5.6-1.6.2-3.3.4-5.3.4s-2.5-.1-3.6-.4c-1.1-.2-2-.7-2.8-1.2-.8-.6-1.4-1.3-1.8-2.2-.4-.9-.6-2-.6-3.3s.2-2.3.7-3.2c.5-.9,1.1-1.6,2-2.1.8-.5,1.8-.9,2.9-1.2,1.1-.2,2.2-.4,3.4-.4s1.1,0,1.8.1c.6,0,1.3.2,2,.4v-.8c0-.6,0-1.1-.2-1.7-.1-.5-.4-1-.7-1.4-.3-.4-.8-.7-1.4-.9-.6-.2-1.3-.3-2.1-.3s-2.2,0-3.2.2c-1,.2-1.8.4-2.4.6l-.6-4.1c.6-.2,1.6-.4,2.8-.7,1.2-.2,2.5-.3,3.9-.3ZM1119.5,169.5c1.6,0,2.7,0,3.5-.2v-5.6c-.3,0-.7-.2-1.2-.2-.5,0-1.1-.1-1.7-.1s-1.1,0-1.7.1c-.6,0-1.1.2-1.5.5-.5.2-.8.5-1.1.9-.3.4-.4.9-.4,1.5,0,1.2.4,2,1.1,2.5s1.8.7,3,.7Z" style="fill: #333374;"/>
<path d="M1153.8,162.2c0,1.7-.2,3.3-.8,4.7-.5,1.4-1.2,2.6-2.1,3.6-.9,1-2,1.8-3.3,2.3s-2.7.8-4.3.8-3-.3-4.2-.8-2.4-1.3-3.3-2.3-1.6-2.2-2.1-3.6c-.5-1.4-.8-3-.8-4.7s.3-3.3.8-4.7c.5-1.4,1.2-2.6,2.2-3.6s2-1.8,3.3-2.3c1.3-.5,2.7-.8,4.2-.8s2.9.3,4.2.8c1.3.5,2.4,1.3,3.3,2.3.9,1,1.6,2.2,2.1,3.6.5,1.4.8,3,.8,4.7ZM1148.6,162.2c0-2.2-.5-3.9-1.4-5.1-.9-1.3-2.2-1.9-3.9-1.9s-3,.6-3.9,1.9c-.9,1.3-1.4,3-1.4,5.1s.5,3.9,1.4,5.2c.9,1.3,2.2,1.9,3.9,1.9s3-.6,3.9-1.9c.9-1.3,1.4-3,1.4-5.2Z" style="fill: #333374;"/>
</g>
</g>
<g style="isolation: isolate;">
<g style="isolation: isolate;">
<path d="M863.7,241.5c.6,1.1,1.3,2.3,2,3.9.8,1.5,1.5,3.1,2.3,4.8.8,1.7,1.5,3.4,2.3,5.1.8,1.7,1.5,3.3,2.1,4.8.6-1.5,1.3-3.1,2.1-4.8.8-1.7,1.5-3.4,2.3-5.1.8-1.7,1.5-3.3,2.3-4.8.8-1.5,1.4-2.8,2-3.9h4.7c.3,2.1.5,4.4.7,6.7.2,2.4.4,4.8.6,7.3s.4,5,.5,7.5c.2,2.5.3,5,.4,7.4h-5.2c-.1-3.4-.2-6.8-.4-10.4-.2-3.6-.4-7-.7-10.3-.3.6-.7,1.4-1.1,2.3-.4.9-.9,1.9-1.3,2.9-.5,1-1,2.1-1.4,3.2-.5,1.1-1,2.2-1.4,3.2-.5,1-.9,2-1.3,2.9-.4.9-.7,1.7-1,2.3h-3.9c-.3-.6-.6-1.4-1-2.3-.4-.9-.8-1.9-1.3-2.9-.5-1-.9-2.1-1.4-3.2-.5-1.1-1-2.2-1.4-3.2-.5-1-.9-2-1.3-2.9-.4-.9-.8-1.7-1.1-2.3-.3,3.3-.5,6.8-.7,10.3-.2,3.6-.3,7-.4,10.4h-5.2c.1-2.4.2-4.9.4-7.4.2-2.6.3-5.1.5-7.6.2-2.5.4-5,.6-7.3.2-2.4.5-4.5.7-6.5h4.9Z" style="fill: #333374;"/>
<path d="M901.2,248.1c1.7,0,3.1.2,4.2.6,1.1.4,2,1,2.7,1.8s1.2,1.7,1.5,2.7c.3,1.1.4,2.2.4,3.5v13.2c-.8.2-2,.4-3.5.6-1.6.2-3.3.4-5.3.4s-2.5-.1-3.6-.4c-1.1-.2-2-.7-2.8-1.2-.8-.6-1.4-1.3-1.8-2.2s-.6-2-.6-3.3.2-2.3.7-3.2c.5-.9,1.1-1.6,2-2.1.8-.5,1.8-.9,2.9-1.2,1.1-.2,2.2-.4,3.4-.4s1.1,0,1.8.1c.6,0,1.3.2,2,.4v-.8c0-.6,0-1.1-.2-1.7-.1-.5-.4-1-.7-1.4-.3-.4-.8-.7-1.4-.9-.6-.2-1.3-.3-2.1-.3s-2.2,0-3.2.2c-1,.2-1.8.4-2.4.6l-.6-4.1c.6-.2,1.6-.4,2.8-.7s2.5-.3,3.9-.3ZM901.6,266.9c1.6,0,2.7,0,3.5-.2v-5.6c-.3,0-.7-.2-1.2-.2-.5,0-1.1-.1-1.8-.1s-1.1,0-1.7.1c-.6,0-1.1.2-1.5.5-.5.2-.8.5-1.1.9-.3.4-.4.9-.4,1.5,0,1.2.4,2,1.1,2.5s1.8.7,3,.7Z" style="fill: #333374;"/>
<path d="M916.2,249.3c1-.3,2.2-.5,3.8-.8,1.6-.2,3.3-.4,5.2-.4s3.3.2,4.5.7c1.2.5,2.1,1.2,2.9,2,.7.9,1.2,1.9,1.5,3.2s.4,2.6.4,4.1v12.2h-5v-11.5c0-1.2,0-2.2-.2-3-.2-.8-.4-1.5-.7-2-.3-.5-.8-.9-1.4-1.1-.6-.2-1.3-.4-2.2-.4s-1.3,0-2,.1c-.7,0-1.2.2-1.5.2v17.6h-5v-21.1Z" style="fill: #333374;"/>
<path d="M947.8,248.1c1.7,0,3.1.2,4.2.6,1.1.4,2,1,2.7,1.8.7.8,1.2,1.7,1.5,2.7.3,1.1.4,2.2.4,3.5v13.2c-.8.2-2,.4-3.5.6-1.6.2-3.3.4-5.3.4s-2.5-.1-3.6-.4-2-.7-2.8-1.2c-.8-.6-1.4-1.3-1.8-2.2-.4-.9-.6-2-.6-3.3s.2-2.3.7-3.2c.5-.9,1.1-1.6,2-2.1.8-.5,1.8-.9,2.9-1.2,1.1-.2,2.2-.4,3.4-.4s1.1,0,1.8.1c.6,0,1.3.2,2,.4v-.8c0-.6,0-1.1-.2-1.7s-.4-1-.7-1.4c-.3-.4-.8-.7-1.4-.9-.6-.2-1.3-.3-2.1-.3s-2.2,0-3.2.2c-1,.2-1.8.4-2.4.6l-.6-4.1c.6-.2,1.6-.4,2.8-.7,1.2-.2,2.5-.3,3.9-.3ZM948.2,266.9c1.6,0,2.7,0,3.5-.2v-5.6c-.3,0-.7-.2-1.2-.2-.5,0-1.1-.1-1.7-.1s-1.1,0-1.7.1c-.6,0-1.1.2-1.5.5-.5.2-.8.5-1.1.9-.3.4-.4.9-.4,1.5,0,1.2.4,2,1.1,2.5s1.8.7,3,.7Z" style="fill: #333374;"/>
<path d="M981.2,269.7c-1,.3-2.3.6-3.8.8s-3.1.4-4.8.4-3.3-.3-4.6-.8c-1.4-.5-2.5-1.3-3.5-2.3-1-1-1.7-2.2-2.2-3.6-.5-1.4-.8-3-.8-4.7s.2-3.3.6-4.7c.4-1.4,1.1-2.6,1.9-3.6.8-1,1.8-1.8,3-2.3,1.2-.5,2.6-.8,4.1-.8s2,.1,2.8.4,1.5.5,2.1.8v-10.5l5-.8v31.7ZM966.8,259.5c0,2.2.5,4,1.6,5.2,1.1,1.3,2.5,1.9,4.4,1.9s1.5,0,2.1-.1,1-.1,1.4-.2v-12.5c-.4-.3-1-.6-1.8-.9s-1.5-.4-2.4-.4c-1.8,0-3.2.6-4,1.9-.8,1.2-1.3,2.9-1.3,5.1Z" style="fill: #333374;"/>
<path d="M1007.3,259.5c0,1.7-.2,3.3-.8,4.7-.5,1.4-1.2,2.6-2.1,3.6-.9,1-2,1.8-3.3,2.3-1.3.6-2.7.8-4.3.8s-3-.3-4.2-.8c-1.3-.6-2.4-1.3-3.3-2.3-.9-1-1.6-2.2-2.1-3.6-.5-1.4-.8-3-.8-4.7s.3-3.3.8-4.7c.5-1.4,1.2-2.6,2.2-3.6.9-1,2-1.8,3.3-2.3,1.3-.5,2.7-.8,4.2-.8s2.9.3,4.2.8c1.3.5,2.4,1.3,3.3,2.3.9,1,1.6,2.2,2.1,3.6s.8,3,.8,4.7ZM1002.2,259.5c0-2.2-.5-3.9-1.4-5.1-.9-1.3-2.2-1.9-3.9-1.9s-3,.6-3.9,1.9-1.4,3-1.4,5.1.5,3.9,1.4,5.2,2.2,1.9,3.9,1.9,3-.6,3.9-1.9c.9-1.3,1.4-3,1.4-5.2Z" style="fill: #333374;"/>
</g>
</g>
<g style="isolation: isolate;">
<g style="isolation: isolate;">
<path d="M236.7,605.4c-2.2,0-4.1-.3-5.8-1-1.7-.7-3.2-1.6-4.4-2.9-1.2-1.3-2.1-2.9-2.7-4.7-.6-1.9-1-4-1-6.4s.4-4.6,1.1-6.4c.7-1.9,1.7-3.4,3-4.7,1.3-1.3,2.8-2.3,4.5-2.9,1.7-.7,3.6-1,5.5-1s2.3,0,3.2.3c1,.2,1.8.4,2.5.6.7.2,1.3.5,1.8.7.5.2.8.4,1,.5l-1.5,4.3c-.7-.4-1.6-.8-2.9-1.2-1.2-.4-2.6-.6-4-.6s-2.4.2-3.5.6c-1.1.4-2,1.1-2.8,1.9-.8.9-1.4,1.9-1.9,3.2-.4,1.3-.7,2.8-.7,4.5s.2,2.9.5,4.2c.3,1.3.9,2.4,1.6,3.3.7.9,1.6,1.7,2.7,2.2,1.1.5,2.4.8,4,.8s3.4-.2,4.5-.6,2.1-.7,2.7-1.1l1.4,4.3c-.3.2-.8.4-1.4.7-.6.2-1.2.4-2,.6-.8.2-1.7.4-2.6.5-1,.1-2,.2-3.1.2Z" style="fill: #333374;"/>
<path d="M250.2,604.8v-31.5l5-.8v10.8c.6-.2,1.2-.4,1.9-.5.7-.1,1.5-.2,2.2-.2,1.7,0,3.2.2,4.4.7,1.2.5,2.1,1.2,2.8,2,.7.9,1.2,1.9,1.5,3.1.3,1.2.4,2.6.4,4.1v12.2h-5v-11.5c0-1.2,0-2.2-.2-3-.2-.8-.4-1.5-.7-2-.3-.5-.8-.9-1.4-1.1-.6-.2-1.3-.4-2.2-.4s-1.3,0-2,.2c-.7.1-1.2.3-1.5.4v17.3h-5Z" style="fill: #333374;"/>
<path d="M286.8,587.6c-.4-.1-1-.3-1.7-.4-.7-.2-1.6-.2-2.6-.2s-1.1,0-1.8.2c-.6.1-1.1.2-1.3.3v17.5h-5v-20.7c1-.4,2.2-.7,3.6-1,1.5-.3,3.1-.5,4.9-.5s.7,0,1.2,0c.4,0,.9,0,1.3.2.4,0,.9.2,1.3.2.4,0,.8.2,1,.3l-.9,4.2Z" style="fill: #333374;"/>
<path d="M296.8,576.6c0,.9-.3,1.7-.9,2.2-.6.6-1.3.8-2.2.8s-1.6-.3-2.2-.8c-.6-.6-.9-1.3-.9-2.2s.3-1.7.9-2.3c.6-.6,1.3-.8,2.2-.8s1.6.3,2.2.8c.6.6.9,1.3.9,2.3ZM296.3,604.8h-5v-21.8h5v21.8Z" style="fill: #333374;"/>
<path d="M308.2,601.2c1.3,0,2.3-.2,2.9-.5.6-.3.9-.9.9-1.6s-.3-1.3-1-1.8c-.7-.5-1.7-1-3.2-1.5-.9-.3-1.8-.7-2.5-1.1-.8-.4-1.4-.8-2-1.3-.6-.5-1-1.1-1.3-1.8-.3-.7-.5-1.6-.5-2.6,0-2,.7-3.6,2.2-4.7,1.5-1.2,3.5-1.7,6-1.7s2.5.1,3.7.4c1.2.2,2,.5,2.6.7l-.9,4.1c-.6-.2-1.3-.5-2.1-.7-.9-.2-1.9-.3-3-.3s-1.9.2-2.5.5c-.6.3-1,.9-1,1.6s0,.7.2,1c.1.3.3.5.6.8.3.2.7.5,1.2.7.5.2,1.1.5,1.8.7,1.2.4,2.2.9,3,1.3.8.4,1.5.9,2.1,1.5.5.5.9,1.2,1.2,1.9s.4,1.5.4,2.5c0,2.1-.8,3.7-2.3,4.7-1.5,1.1-3.7,1.6-6.6,1.6s-3.5-.2-4.6-.5-2-.6-2.5-.8l.9-4.2c.7.3,1.6.6,2.7.9,1,.3,2.2.4,3.6.4Z" style="fill: #333374;"/>
<path d="M321.5,577.3l5-.8v6.6h7.7v4.2h-7.7v8.9c0,1.8.3,3,.8,3.7.6.8,1.5,1.1,2.8,1.1s1.7,0,2.4-.3c.7-.2,1.3-.4,1.7-.5l.8,4c-.6.2-1.3.5-2.3.8-.9.3-2.1.4-3.3.4s-2.9-.2-3.9-.6-1.9-1-2.5-1.8c-.6-.8-1-1.7-1.3-2.9-.2-1.1-.4-2.4-.4-3.9v-18.9Z" style="fill: #333374;"/>
<path d="M351.6,593.3c0-2.3-.3-3.9-.9-4.9-.6-1-1.6-1.5-3.2-1.5s-1.2,0-1.8.1c-.7,0-1.2.2-1.5.2v17.6h-5v-21.1c1-.3,2.2-.5,3.8-.8,1.6-.2,3.2-.4,5-.4s2.7.2,3.7.6,1.8.9,2.4,1.5c.3-.2.7-.5,1.2-.7.5-.2,1-.5,1.6-.7.6-.2,1.2-.4,1.9-.5.7-.1,1.3-.2,2-.2,1.7,0,3.1.2,4.2.7,1.1.5,2,1.2,2.6,2,.6.9,1.1,1.9,1.3,3.2.2,1.2.4,2.6.4,4.1v12.2h-5v-11.5c0-2.3-.3-3.9-.8-4.9-.6-1-1.6-1.5-3.2-1.5s-1.6.1-2.3.4c-.7.3-1.3.5-1.6.8.2.7.4,1.4.5,2.2,0,.8.1,1.6.1,2.5v12h-5v-11.5Z" style="fill: #333374;"/>
<path d="M382.5,582.5c1.7,0,3.1.2,4.2.6,1.1.4,2,1,2.7,1.8.7.8,1.2,1.7,1.5,2.7.3,1.1.4,2.2.4,3.5v13.2c-.8.2-2,.4-3.5.6-1.6.2-3.3.4-5.3.4s-2.5-.1-3.6-.4c-1.1-.2-2-.7-2.8-1.2-.8-.6-1.4-1.3-1.8-2.2-.4-.9-.6-2-.6-3.3s.2-2.3.7-3.2c.5-.9,1.1-1.6,2-2.1.8-.5,1.8-.9,2.9-1.2,1.1-.2,2.2-.4,3.4-.4s1.1,0,1.8.1c.6,0,1.3.2,2,.4v-.8c0-.6,0-1.1-.2-1.7-.1-.5-.4-1-.7-1.4-.3-.4-.8-.7-1.4-.9-.6-.2-1.3-.3-2.1-.3s-2.2,0-3.2.2c-1,.2-1.8.4-2.4.6l-.6-4.1c.6-.2,1.6-.4,2.8-.7,1.2-.2,2.5-.3,3.9-.3ZM382.9,601.3c1.6,0,2.7,0,3.5-.2v-5.6c-.3,0-.7-.2-1.2-.2-.5,0-1.1-.1-1.7-.1s-1.1,0-1.7.1c-.6,0-1.1.2-1.5.5-.5.2-.8.5-1.1.9-.3.4-.4.9-.4,1.5,0,1.2.4,2,1.1,2.5s1.8.7,3,.7Z" style="fill: #333374;"/>
<path d="M402.9,601.2c1.3,0,2.3-.2,2.9-.5.6-.3.9-.9.9-1.6s-.3-1.3-1-1.8c-.7-.5-1.7-1-3.2-1.5-.9-.3-1.8-.7-2.5-1.1-.8-.4-1.4-.8-2-1.3-.6-.5-1-1.1-1.3-1.8-.3-.7-.5-1.6-.5-2.6,0-2,.7-3.6,2.2-4.7,1.5-1.2,3.5-1.7,6-1.7s2.5.1,3.7.4c1.2.2,2,.5,2.6.7l-.9,4.1c-.6-.2-1.3-.5-2.1-.7-.9-.2-1.9-.3-3-.3s-1.9.2-2.5.5c-.6.3-1,.9-1,1.6s0,.7.2,1c.1.3.3.5.6.8.3.2.7.5,1.2.7.5.2,1.1.5,1.8.7,1.2.4,2.2.9,3,1.3.8.4,1.5.9,2.1,1.5.5.5.9,1.2,1.2,1.9s.4,1.5.4,2.5c0,2.1-.8,3.7-2.3,4.7-1.5,1.1-3.7,1.6-6.6,1.6s-3.5-.2-4.6-.5-2-.6-2.5-.8l.9-4.2c.7.3,1.6.6,2.7.9,1,.3,2.2.4,3.6.4Z" style="fill: #333374;"/>
<path d="M426.4,575.9h5.2v28.9h-5.2v-28.9Z" style="fill: #333374;"/>
<path d="M443.8,601.2c1.3,0,2.3-.2,2.9-.5.6-.3.9-.9.9-1.6s-.3-1.3-1-1.8c-.7-.5-1.7-1-3.2-1.5-.9-.3-1.8-.7-2.5-1.1-.8-.4-1.4-.8-2-1.3-.6-.5-1-1.1-1.3-1.8-.3-.7-.5-1.6-.5-2.6,0-2,.7-3.6,2.2-4.7,1.5-1.2,3.5-1.7,6-1.7s2.5.1,3.7.4c1.2.2,2,.5,2.6.7l-.9,4.1c-.6-.2-1.3-.5-2.1-.7-.9-.2-1.9-.3-3-.3s-1.9.2-2.5.5c-.6.3-1,.9-1,1.6s0,.7.2,1c.1.3.3.5.6.8.3.2.7.5,1.2.7.5.2,1.1.5,1.8.7,1.2.4,2.2.9,3,1.3.8.4,1.5.9,2.1,1.5.5.5.9,1.2,1.2,1.9s.4,1.5.4,2.5c0,2.1-.8,3.7-2.3,4.7-1.5,1.1-3.7,1.6-6.6,1.6s-3.5-.2-4.6-.5-2-.6-2.5-.8l.9-4.2c.7.3,1.6.6,2.7.9,1,.3,2.2.4,3.6.4Z" style="fill: #333374;"/>
<path d="M465,605.2c-1.5,0-2.7-.2-3.7-.5-1-.3-1.8-.7-2.4-1.3-.6-.6-1-1.3-1.2-2.1-.2-.8-.4-1.8-.4-2.9v-25.1l5-.8v25c0,.6,0,1.1.1,1.5,0,.4.3.8.5,1.1.2.3.6.5,1,.7.4.2,1,.3,1.6.4l-.7,4.2Z" style="fill: #333374;"/>
<path d="M477,582.5c1.7,0,3.1.2,4.2.6,1.1.4,2,1,2.7,1.8.7.8,1.2,1.7,1.5,2.7.3,1.1.4,2.2.4,3.5v13.2c-.8.2-2,.4-3.5.6-1.6.2-3.3.4-5.3.4s-2.5-.1-3.6-.4c-1.1-.2-2-.7-2.8-1.2-.8-.6-1.4-1.3-1.8-2.2-.4-.9-.6-2-.6-3.3s.2-2.3.7-3.2c.5-.9,1.1-1.6,2-2.1.8-.5,1.8-.9,2.9-1.2,1.1-.2,2.2-.4,3.4-.4s1.1,0,1.8.1c.6,0,1.3.2,2,.4v-.8c0-.6,0-1.1-.2-1.7-.1-.5-.4-1-.7-1.4-.3-.4-.8-.7-1.4-.9-.6-.2-1.3-.3-2.1-.3s-2.2,0-3.2.2c-1,.2-1.8.4-2.4.6l-.6-4.1c.6-.2,1.6-.4,2.8-.7,1.2-.2,2.5-.3,3.9-.3ZM477.4,601.3c1.6,0,2.7,0,3.5-.2v-5.6c-.3,0-.7-.2-1.2-.2-.5,0-1.1-.1-1.7-.1s-1.1,0-1.7.1c-.6,0-1.1.2-1.5.5-.5.2-.8.5-1.1.9-.3.4-.4.9-.4,1.5,0,1.2.4,2,1.1,2.5s1.8.7,3,.7Z" style="fill: #333374;"/>
<path d="M492,583.7c1-.3,2.2-.5,3.8-.8,1.6-.2,3.3-.4,5.2-.4s3.3.2,4.5.7c1.2.5,2.1,1.2,2.9,2,.7.9,1.2,1.9,1.5,3.2.3,1.2.4,2.6.4,4.1v12.2h-5v-11.5c0-1.2,0-2.2-.2-3-.2-.8-.4-1.5-.7-2-.3-.5-.8-.9-1.4-1.1-.6-.2-1.3-.4-2.2-.4s-1.3,0-2,.1c-.7,0-1.2.2-1.5.2v17.6h-5v-21.1Z" style="fill: #333374;"/>
<path d="M534.8,604.1c-1,.3-2.3.6-3.8.8s-3.1.4-4.8.4-3.3-.3-4.6-.8c-1.4-.5-2.5-1.3-3.5-2.3-1-1-1.7-2.2-2.2-3.6-.5-1.4-.8-3-.8-4.7s.2-3.3.6-4.7c.4-1.4,1.1-2.6,1.9-3.6.8-1,1.8-1.8,3-2.3,1.2-.5,2.6-.8,4.1-.8s2,.1,2.8.4c.8.2,1.5.5,2.1.8v-10.5l5-.8v31.7ZM520.3,593.8c0,2.2.5,4,1.6,5.2,1.1,1.3,2.5,1.9,4.4,1.9s1.5,0,2.1-.1c.6,0,1-.1,1.4-.2v-12.5c-.4-.3-1-.6-1.8-.9-.7-.3-1.5-.4-2.4-.4-1.8,0-3.2.6-4,1.9s-1.3,2.9-1.3,5.1Z" style="fill: #333374;"/>
</g>
</g>
<g style="isolation: isolate;">
<g style="isolation: isolate;">
<path d="M1654.8,919.9c-1.5,0-3.1,0-4.6-.1-1.6,0-2.9-.3-4.1-.6v-28c.6-.1,1.3-.2,2-.3.7,0,1.4-.2,2.1-.2.7,0,1.4,0,2.1-.1s1.4,0,2,0c1.8,0,3.4.1,4.9.4,1.5.3,2.8.7,3.9,1.3,1.1.6,2,1.4,2.6,2.4.6,1,.9,2.2.9,3.7s-.3,2.5-1,3.5c-.7,1-1.6,1.7-2.7,2.3,1.8.6,3,1.4,3.9,2.6.8,1.1,1.2,2.6,1.2,4.3,0,3-1.1,5.2-3.2,6.7-2.2,1.5-5.5,2.2-10,2.2ZM1651.2,902.4h3.7c2,0,3.6-.3,4.7-.9,1.1-.6,1.7-1.6,1.7-3.1s-.6-2.4-1.8-3-2.7-.9-4.6-.9-1.5,0-2.1,0-1.2,0-1.6.1v7.6ZM1651.2,906.5v8.8c.6,0,1.2,0,1.9.1.7,0,1.3,0,1.8,0,1.1,0,2.1,0,3-.2.9-.1,1.7-.4,2.4-.7.7-.3,1.2-.8,1.6-1.4s.6-1.3.6-2.2c0-1.6-.6-2.8-1.8-3.4-1.2-.6-2.8-1-5-1h-4.6Z" style="fill: #333374;"/>
<path d="M1685.6,902.3c-.4-.1-1-.3-1.7-.4-.7-.2-1.6-.2-2.6-.2s-1.1,0-1.8.2c-.6.1-1.1.2-1.3.3v17.5h-5v-20.7c1-.4,2.2-.7,3.6-1,1.5-.3,3.1-.5,4.9-.5s.7,0,1.2,0c.4,0,.9,0,1.3.2.4,0,.9.2,1.3.2.4,0,.8.2,1,.3l-.9,4.2Z" style="fill: #333374;"/>
<path d="M1695.6,891.4c0,.9-.3,1.7-.9,2.2-.6.6-1.3.8-2.2.8s-1.6-.3-2.2-.8-.9-1.3-.9-2.2.3-1.7.9-2.3,1.3-.8,2.2-.8,1.6.3,2.2.8c.6.6.9,1.3.9,2.3ZM1695.1,919.5h-5v-21.8h5v21.8Z" style="fill: #333374;"/>
<path d="M1706.9,915.9c1.3,0,2.3-.2,2.9-.5.6-.3.9-.9.9-1.6s-.3-1.3-1-1.8c-.7-.5-1.7-1-3.2-1.5-.9-.3-1.8-.7-2.5-1.1s-1.4-.8-2-1.3c-.6-.5-1-1.1-1.3-1.8-.3-.7-.5-1.6-.5-2.6,0-2,.7-3.6,2.2-4.7,1.5-1.2,3.5-1.7,6-1.7s2.5.1,3.7.4c1.2.2,2,.5,2.6.7l-.9,4.1c-.6-.2-1.3-.5-2.1-.7-.9-.2-1.9-.3-3-.3s-1.9.2-2.5.5c-.6.3-1,.9-1,1.6s0,.7.2,1c.1.3.3.5.6.8.3.2.7.5,1.2.7.5.2,1.1.5,1.8.7,1.2.4,2.2.9,3,1.3.8.4,1.5.9,2.1,1.5.5.5.9,1.2,1.2,1.9s.4,1.5.4,2.5c0,2.1-.8,3.7-2.3,4.7-1.5,1.1-3.7,1.6-6.6,1.6s-3.5-.2-4.6-.5-2-.6-2.5-.8l.9-4.2c.8.3,1.6.6,2.7.9,1,.3,2.2.4,3.6.4Z" style="fill: #333374;"/>
<path d="M1740.1,908.7c0,1.7-.3,3.3-.8,4.7s-1.2,2.6-2.2,3.6c-1,1-2.1,1.8-3.5,2.3-1.4.5-2.9.8-4.6.8s-3.3-.1-4.8-.4c-1.5-.2-2.8-.5-3.8-.8v-30.8l5-.8v11.3c.6-.3,1.3-.6,2.1-.8.8-.2,1.8-.4,2.8-.4,1.5,0,2.9.3,4.1.8,1.2.5,2.2,1.3,3,2.3.8,1,1.4,2.2,1.9,3.6.4,1.4.6,3,.6,4.6ZM1735,908.6c0-2.1-.4-3.8-1.3-5.1-.8-1.2-2.2-1.9-4-1.9s-1.6.1-2.4.4c-.7.2-1.3.5-1.8.8v12.5c.4,0,.8.2,1.4.2.6,0,1.3.1,2.1.1,1.9,0,3.3-.6,4.4-1.9,1.1-1.3,1.6-3,1.6-5.2Z" style="fill: #333374;"/>
<path d="M1752.6,897.2c1.7,0,3.1.2,4.2.6,1.1.4,2,1,2.7,1.8.7.8,1.2,1.7,1.5,2.7.3,1.1.4,2.2.4,3.5v13.2c-.8.2-2,.4-3.5.6-1.6.2-3.3.4-5.3.4s-2.5-.1-3.6-.4c-1.1-.2-2-.7-2.8-1.2-.8-.6-1.4-1.3-1.8-2.2-.4-.9-.6-2-.6-3.3s.2-2.3.7-3.2c.5-.9,1.1-1.6,2-2.1.8-.5,1.8-.9,2.9-1.2,1.1-.2,2.2-.4,3.4-.4s1.1,0,1.8.1,1.3.2,2,.4v-.8c0-.6,0-1.1-.2-1.7s-.4-1-.7-1.4c-.3-.4-.8-.7-1.4-.9-.6-.2-1.3-.3-2.1-.3s-2.2,0-3.2.2c-1,.2-1.8.4-2.4.6l-.6-4.1c.6-.2,1.6-.4,2.8-.7,1.2-.2,2.5-.3,3.9-.3ZM1753,916c1.6,0,2.7,0,3.5-.2v-5.6c-.3,0-.7-.2-1.2-.2-.5,0-1.1-.1-1.8-.1s-1.1,0-1.7.1c-.6,0-1.1.2-1.5.5-.5.2-.8.5-1.1.9-.3.4-.4.9-.4,1.5,0,1.2.4,2,1.1,2.5s1.8.7,3,.7Z" style="fill: #333374;"/>
<path d="M1767.6,898.5c1-.3,2.2-.5,3.8-.8,1.6-.2,3.3-.4,5.2-.4s3.3.2,4.5.7c1.2.5,2.1,1.2,2.9,2,.7.9,1.2,1.9,1.5,3.2.3,1.2.4,2.6.4,4.1v12.2h-5v-11.5c0-1.2,0-2.2-.2-3-.2-.8-.4-1.5-.8-2s-.8-.9-1.4-1.1c-.6-.2-1.3-.4-2.2-.4s-1.3,0-2,.1c-.7,0-1.2.2-1.5.2v17.6h-5v-21.1Z" style="fill: #333374;"/>
<path d="M1790.8,908.8c0-1.9.3-3.6.9-5,.6-1.4,1.3-2.6,2.3-3.6.9-1,2-1.7,3.2-2.2,1.2-.5,2.5-.7,3.7-.7,3,0,5.3.9,7,2.8s2.5,4.6,2.5,8.3,0,.6,0,.9c0,.3,0,.7,0,.9h-14.4c.1,1.8.8,3.1,1.9,4.1,1.1,1,2.7,1.4,4.8,1.4s2.3-.1,3.4-.3c1-.2,1.8-.5,2.4-.7l.7,4.1c-.3.1-.7.3-1.1.4-.5.2-1,.3-1.7.4s-1.3.2-2,.3c-.7,0-1.5.1-2.2.1-1.9,0-3.6-.3-5-.9s-2.6-1.4-3.5-2.4c-.9-1-1.6-2.2-2-3.6-.4-1.4-.7-2.9-.7-4.5ZM1805.4,906.5c0-.7,0-1.4-.3-2-.2-.6-.5-1.2-.9-1.6-.4-.5-.8-.8-1.4-1.1-.5-.3-1.2-.4-1.9-.4s-1.5.1-2,.4c-.6.3-1.1.7-1.5,1.1-.4.5-.7,1-.9,1.6-.2.6-.4,1.2-.5,1.9h9.4Z" style="fill: #333374;"/>
</g>
</g>
</g>
<g>
<circle cx="569.6" cy="776.9" fill="#333374" r="17.2" stroke="#ffffff" style="stroke-width: 4px;"/>
<circle cx="785.5" cy="1072.8" fill="#333374" r="17.2" stroke="#ffffff" style="stroke-width: 4px;"/>
<circle cx="857.5" cy="790.6" fill="#333374" r="17.2" stroke="#ffffff" style="stroke-width: 4px;"/>
<circle cx="768" cy="999.5" fill="#333374" r="17.2" stroke="#ffffff" style="stroke-width: 4px;"/>
<circle cx="1582.9" cy="836.2" fill="#333374" r="17.2" stroke="#ffffff" style="stroke-width: 4px;"/>
<circle cx="392.2" cy="225.4" fill="#333374" r="17.2" stroke="#ffffff" style="stroke-width: 4px;"/>
<circle cx="531.4" cy="273" fill="#333374" r="17.2" stroke="#ffffff" style="stroke-width: 4px;"/>
<circle cx="1835.2" cy="73.1" fill="#333374" r="17.2" stroke="#ffffff" style="stroke-width: 4px;"/>
<circle cx="610.8" cy="459.8" fill="#333374" r="17.2" stroke="#ffffff" style="stroke-width: 4px;"/>
<circle cx="517.6" cy="322.3" fill="#333374" r="17.2" stroke="#ffffff" style="stroke-width: 4px;" transform="translate(116.6 781.6) rotate(-80.8)"/>
<circle cx="1052.4" cy="510.6" fill="#333374" r="17.2" stroke="#ffffff" style="stroke-width: 4px;"/>
<circle cx="1294.4" cy="1126.2" fill="#333374" r="17.2" stroke="#ffffff" style="stroke-width: 4px;"/>
<circle cx="886" cy="425.4" fill="#333374" r="17.2" stroke="#ffffff" style="stroke-width: 4px;"/>
<circle cx="1008.1" cy="158.5" fill="#333374" r="17.2" stroke="#ffffff" style="stroke-width: 4px;" transform="translate(622.2 1103.3) rotate(-76.7)"/>
<circle cx="981.7" cy="292.7" fill="#333374" r="17.2" stroke="#ffffff" style="stroke-width: 4px;"/>
<circle cx="1524" cy="536.5" fill="#333374" r="17.2" stroke="#ffffff" style="stroke-width: 4px;"/>
<circle cx="1745.1" cy="491.7" fill="#333374" r="17.2" stroke="#ffffff" style="stroke-width: 4px;"/>
<circle cx="19.2" cy="19.2" fill="#333374" r="17.2" stroke="#ffffff" style="stroke-width: 4px;"/>
<circle cx="556.6" cy="586.6" fill="#333374" r="17.2" stroke="#ffffff" style="stroke-width: 4px;"/>
<circle cx="1636" cy="944.7" fill="#333374" r="17.2" stroke="#ffffff" style="stroke-width: 4px;"/>
<circle cx="1590.6" cy="1121.1" fill="#333374" r="17.2" stroke="#ffffff" style="stroke-width: 4px;"/>
<circle cx="1462.9" cy="1236.5" fill="#333374" r="17.2" stroke="#ffffff" style="stroke-width: 4px;"/>
<circle cx="2170.4" cy="691.3" fill="#333374" r="17.2" stroke="#ffffff" style="stroke-width: 4px;"/>
</g>
<g>
<path d="M1152.4,610.9c0,13.4-10.9,24.3-24.3,24.3s-24.3-10.9-24.3-24.3,10.9-24.3,24.3-24.3,24.3,10.9,24.3,24.3" style="fill: #ee4023;"/>
<path d="M1152.4,610.9c0,13.4-10.9,24.3-24.3,24.3s-24.3-10.9-24.3-24.3,10.9-24.3,24.3-24.3,24.3,10.9,24.3,24.3Z" style="fill: none;        stroke-width: 8.2px;"/>
</g>
</g>
</g>
</svg>