<?xml version="1.0" encoding="utf-8"?>
<svg data-name="Layer 2" id="b" viewBox="0 0 206.97 142.09" xmlns="http://www.w3.org/2000/svg">
<g data-name="Layer 1" id="c">
<path d="M176.81,104.44s20.03-4.29,30.16-6.38c0,0-7.45,18.21-11.84,28.38-2.4,5.56-18.32-22-18.32-22" style="fill: #ee4023;"/>
<g>
<g>
<path d="M3.46,35.27V6.4h18.25v4.46h-13v7.37h11.54v4.46h-11.54v12.58H3.46Z" style="fill: #333374;"/>
<path d="M37.54,18.02c-.42-.14-.99-.28-1.73-.44-.74-.15-1.59-.23-2.56-.23-.56,0-1.15.06-1.77.17-.62.11-1.06.21-1.31.29v17.46h-5.04V14.52c.97-.36,2.19-.7,3.64-1.02,1.46-.32,3.08-.48,4.86-.48.33,0,.72.02,1.17.06.44.04.89.1,1.33.17.44.07.87.15,1.29.25.42.1.75.19,1,.27l-.88,4.25Z" style="fill: #333374;"/>
<path d="M40.71,24.48c0-1.92.29-3.6.86-5.04.57-1.44,1.32-2.65,2.27-3.6.94-.96,2.03-1.68,3.25-2.17s2.47-.73,3.75-.73c3,0,5.34.93,7.02,2.79,1.68,1.86,2.52,4.64,2.52,8.33,0,.28,0,.59-.02.94-.01.35-.04.66-.06.94h-14.37c.14,1.75.76,3.1,1.85,4.06s2.69,1.44,4.77,1.44c1.22,0,2.34-.11,3.35-.33,1.01-.22,1.81-.46,2.39-.71l.67,4.12c-.28.14-.66.29-1.15.44-.49.15-1.04.29-1.67.42s-1.3.23-2.02.31c-.72.08-1.46.12-2.21.12-1.92,0-3.58-.29-5-.85-1.42-.57-2.58-1.36-3.5-2.38-.92-1.01-1.6-2.21-2.04-3.58-.45-1.38-.67-2.88-.67-4.52ZM55.33,22.23c0-.69-.1-1.35-.29-1.98-.19-.62-.48-1.17-.85-1.62-.38-.46-.83-.82-1.38-1.08-.54-.26-1.19-.4-1.94-.4s-1.46.15-2.04.44-1.08.67-1.48,1.15c-.4.47-.72,1.01-.94,1.62-.22.61-.38,1.24-.46,1.88h9.38Z" style="fill: #333374;"/>
<path d="M65.7,14.19c.97-.28,2.24-.54,3.79-.79,1.55-.25,3.28-.38,5.17-.38,1.78,0,3.26.24,4.46.73,1.2.49,2.15,1.17,2.86,2.04.71.88,1.21,1.93,1.5,3.17.29,1.24.44,2.59.44,4.06v12.25h-5.04v-11.46c0-1.17-.08-2.16-.23-2.98s-.4-1.49-.75-2c-.35-.51-.82-.89-1.42-1.12-.6-.24-1.33-.35-2.19-.35-.64,0-1.31.04-2,.12-.7.08-1.21.15-1.54.21v17.58h-5.04V14.19Z" style="fill: #333374;"/>
<path d="M88.87,24.39c0-1.61.25-3.12.75-4.52s1.21-2.62,2.14-3.65c.93-1.03,2.06-1.83,3.4-2.42,1.33-.58,2.83-.88,4.5-.88,2.05,0,4,.38,5.83,1.12l-1.08,4.12c-.58-.25-1.24-.46-1.98-.62-.74-.17-1.52-.25-2.35-.25-1.97,0-3.47.62-4.5,1.85-1.03,1.24-1.54,2.98-1.54,5.23s.49,3.88,1.46,5.15c.97,1.26,2.61,1.9,4.92,1.9.86,0,1.71-.08,2.54-.25s1.55-.38,2.17-.62l.71,4.17c-.56.28-1.4.53-2.52.75-1.12.22-2.29.33-3.48.33-1.86,0-3.48-.29-4.85-.85s-2.51-1.36-3.42-2.38c-.9-1.01-1.58-2.22-2.02-3.62-.45-1.4-.67-2.92-.67-4.56Z" style="fill: #333374;"/>
<path d="M109.74,35.27V3.77l5.04-.83v10.79c.55-.19,1.2-.36,1.94-.5s1.46-.21,2.19-.21c1.75,0,3.2.24,4.35.73,1.15.49,2.08,1.17,2.77,2.04.69.88,1.19,1.92,1.48,3.15s.44,2.58.44,4.08v12.25h-5.04v-11.46c0-1.17-.08-2.16-.23-2.98s-.4-1.49-.75-2c-.35-.51-.81-.89-1.39-1.12-.58-.24-1.31-.35-2.17-.35-.67,0-1.35.07-2.04.21-.69.14-1.21.26-1.54.38v17.33h-5.04Z" style="fill: #333374;"/>
<path d="M11.62,56.1c4.2,0,7.41.76,9.65,2.29,2.23,1.53,3.35,3.92,3.35,7.17,0,1.69-.3,3.15-.9,4.35s-1.46,2.19-2.6,2.96c-1.14.76-2.53,1.33-4.17,1.69-1.64.36-3.51.54-5.62.54h-2.62v10.17H3.46v-28.46c1.22-.28,2.58-.46,4.06-.56,1.49-.1,2.85-.15,4.1-.15ZM12,60.64c-1.33,0-2.43.04-3.29.12v9.83h2.54c2.53,0,4.47-.35,5.83-1.06,1.36-.71,2.04-2.05,2.04-4.02,0-.94-.18-1.74-.54-2.38-.36-.64-.86-1.14-1.5-1.5-.64-.36-1.4-.62-2.27-.77-.88-.15-1.81-.23-2.81-.23Z" style="fill: #333374;"/>
<path d="M48.16,74.35c0,1.72-.25,3.29-.75,4.71s-1.21,2.62-2.12,3.62c-.92,1-2.02,1.78-3.31,2.33-1.29.56-2.72.83-4.27.83s-2.97-.28-4.25-.83-2.38-1.33-3.29-2.33-1.63-2.21-2.15-3.62-.77-2.99-.77-4.71.26-3.28.77-4.69c.51-1.4,1.24-2.6,2.17-3.6.93-1,2.03-1.77,3.31-2.31,1.28-.54,2.68-.81,4.21-.81s2.94.27,4.23.81c1.29.54,2.4,1.31,3.31,2.31s1.63,2.2,2.15,3.6c.51,1.4.77,2.97.77,4.69ZM43,74.35c0-2.17-.46-3.88-1.39-5.15-.93-1.26-2.23-1.9-3.9-1.9s-2.96.63-3.89,1.9c-.93,1.26-1.4,2.98-1.4,5.15s.46,3.93,1.4,5.21c.93,1.28,2.23,1.92,3.89,1.92s2.96-.64,3.9-1.92c.93-1.28,1.39-3.01,1.39-5.21Z" style="fill: #333374;"/>
<path d="M60.95,85.68c-1.5-.03-2.74-.2-3.73-.5-.99-.31-1.77-.74-2.35-1.31-.58-.57-.99-1.28-1.23-2.12-.24-.85-.35-1.81-.35-2.9v-25.08l5.04-.83v24.96c0,.61.05,1.12.15,1.54s.27.77.52,1.06.59.51,1.02.67c.43.15.98.27,1.65.35l-.71,4.17Z" style="fill: #333374;"/>
<path d="M83.54,63.48c-2.25,8.28-4.85,15.78-7.82,22.5-.56,1.25-1.13,2.32-1.71,3.21s-1.24,1.62-1.96,2.21c-.72.58-1.53,1.01-2.42,1.27-.89.26-1.92.4-3.09.4-.78,0-1.55-.08-2.31-.25-.77-.17-1.34-.35-1.73-.54l.92-4.04c1,.39,1.99.58,2.97.58,1.31,0,2.34-.31,3.08-.94.74-.62,1.39-1.59,1.95-2.9-1.59-3.05-3.12-6.39-4.58-10-1.46-3.61-2.77-7.44-3.91-11.5h5.38c.28,1.17.62,2.43,1.02,3.79.4,1.36.84,2.74,1.32,4.15.47,1.4.97,2.8,1.5,4.19.53,1.39,1.06,2.68,1.59,3.88.88-2.47,1.71-5.1,2.49-7.9.77-2.79,1.48-5.49,2.12-8.1h5.21Z" style="fill: #333374;"/>
<path d="M87.37,64.18c.97-.28,2.23-.54,3.79-.79,1.55-.25,3.28-.38,5.17-.38,1.78,0,3.26.24,4.46.73,1.19.49,2.14,1.17,2.85,2.04s1.21,1.93,1.5,3.17c.29,1.24.44,2.59.44,4.06v12.25h-5.04v-11.46c0-1.17-.08-2.16-.23-2.98s-.4-1.49-.75-2c-.35-.51-.82-.89-1.42-1.12-.6-.24-1.33-.35-2.19-.35-.64,0-1.3.04-2,.12-.69.08-1.21.15-1.54.21v17.58h-5.04v-21.08Z" style="fill: #333374;"/>
<path d="M110.53,74.47c0-1.92.29-3.6.86-5.04.57-1.44,1.32-2.65,2.27-3.6.94-.96,2.03-1.68,3.25-2.17s2.47-.73,3.75-.73c3,0,5.34.93,7.02,2.79,1.68,1.86,2.52,4.64,2.52,8.33,0,.28,0,.59-.02.94-.01.35-.04.66-.06.94h-14.37c.14,1.75.76,3.1,1.85,4.06s2.69,1.44,4.77,1.44c1.22,0,2.34-.11,3.35-.33,1.01-.22,1.81-.46,2.39-.71l.67,4.12c-.28.14-.66.29-1.15.44-.49.15-1.04.29-1.67.42s-1.3.23-2.02.31c-.72.08-1.46.12-2.21.12-1.92,0-3.58-.29-5-.85-1.42-.57-2.58-1.36-3.5-2.38-.92-1.01-1.6-2.21-2.04-3.58-.45-1.38-.67-2.88-.67-4.52ZM125.16,72.22c0-.69-.1-1.35-.29-1.98-.19-.62-.48-1.17-.85-1.62-.38-.46-.83-.82-1.38-1.08-.54-.26-1.19-.4-1.94-.4s-1.46.15-2.04.44-1.08.67-1.48,1.15c-.4.47-.72,1.01-.94,1.62-.22.61-.38,1.24-.46,1.88h9.38Z" style="fill: #333374;"/>
<path d="M140.99,81.64c1.33,0,2.3-.16,2.92-.48s.92-.87.92-1.65c0-.72-.33-1.32-.98-1.79s-1.73-.99-3.23-1.54c-.92-.33-1.76-.69-2.52-1.06s-1.42-.81-1.98-1.31c-.56-.5-.99-1.1-1.31-1.81-.32-.71-.48-1.58-.48-2.6,0-2,.73-3.58,2.21-4.73,1.47-1.15,3.47-1.73,6-1.73,1.28,0,2.5.12,3.67.35,1.17.24,2.04.46,2.62.69l-.92,4.08c-.56-.25-1.26-.48-2.12-.69-.86-.21-1.86-.31-3-.31-1.03,0-1.86.17-2.5.52-.64.35-.96.88-.96,1.6,0,.36.06.68.19.96s.34.54.64.77c.31.24.71.47,1.21.71.5.24,1.11.48,1.83.73,1.2.44,2.21.88,3.04,1.31.83.43,1.52.92,2.06,1.46.54.54.94,1.16,1.19,1.85s.38,1.53.38,2.5c0,2.08-.77,3.66-2.31,4.73-1.54,1.07-3.74,1.6-6.6,1.6-1.92,0-3.46-.16-4.62-.48-1.17-.32-1.99-.58-2.46-.77l.88-4.21c.75.31,1.65.6,2.69.88s2.23.42,3.56.42Z" style="fill: #333374;"/>
<path d="M160.2,57.1c0,.94-.31,1.69-.92,2.25s-1.33.83-2.17.83-1.6-.28-2.21-.83c-.61-.56-.92-1.31-.92-2.25s.31-1.74.92-2.29c.61-.55,1.35-.83,2.21-.83s1.55.28,2.17.83c.61.56.92,1.32.92,2.29ZM159.65,85.27h-5.04v-21.79h5.04v21.79Z" style="fill: #333374;"/>
<path d="M173.32,62.93c1.67,0,3.07.21,4.21.62,1.14.42,2.05,1,2.73,1.75.68.75,1.17,1.66,1.46,2.73.29,1.07.44,2.24.44,3.52v13.21c-.78.17-1.95.37-3.52.6-1.57.24-3.34.35-5.31.35-1.31,0-2.5-.12-3.58-.38-1.08-.25-2.01-.65-2.77-1.21s-1.36-1.28-1.79-2.17c-.43-.89-.65-1.99-.65-3.29s.24-2.31.73-3.17c.49-.86,1.15-1.56,1.98-2.1.83-.54,1.8-.93,2.89-1.17,1.1-.24,2.24-.35,3.44-.35.55,0,1.14.04,1.75.1.61.07,1.26.19,1.96.35v-.83c0-.58-.07-1.14-.21-1.67-.14-.53-.38-.99-.73-1.4-.35-.4-.81-.71-1.38-.94-.57-.22-1.29-.33-2.15-.33-1.17,0-2.24.08-3.21.25-.97.17-1.77.36-2.38.58l-.62-4.08c.64-.22,1.57-.44,2.79-.67,1.22-.22,2.53-.33,3.92-.33ZM173.74,81.72c1.56,0,2.74-.08,3.54-.25v-5.58c-.28-.08-.68-.17-1.21-.25-.53-.08-1.11-.12-1.75-.12-.56,0-1.12.04-1.69.12-.57.08-1.08.24-1.54.46-.46.22-.83.54-1.1.94-.28.4-.42.91-.42,1.52,0,1.19.38,2.02,1.12,2.48.75.46,1.76.69,3.04.69Z" style="fill: #333374;"/>
</g>
<path d="M188.11,130.81c-4.35,8.42-14.72,11.72-23.14,7.36-8.42-4.35-11.72-14.72-7.36-23.14,4.35-8.42,14.72-11.72,23.14-7.36,8.42,4.36,11.72,14.72,7.36,23.14Z" style="fill: #333374; stroke: #fff; stroke-miterlimit: 10; stroke-width: 4px;"/>
</g>
</g>
</svg>