<?xml version="1.0" encoding="UTF-8"?>
<svg id="b" xmlns="http://www.w3.org/2000/svg" version="1.1" viewBox="0 0 297.3 46.2">
  <!-- Generator: Adobe Illustrator 29.6.1, SVG Export Plug-In . SVG Version: 2.1.1 Build 9)  -->
  <defs>
    <style>
      .st0 {
        fill: #ee4023;
      }

      .st1 {
        isolation: isolate;
      }

      .st2, .st3 {
        fill: #333374;
      }

      .st3 {
        stroke: #fff;
        stroke-miterlimit: 10;
        stroke-width: 4px;
      }
    </style>
  </defs>
  <g id="c">
    <path class="st0" d="M31,3.4c15.8,7.4,15.7,4,27.9,9.8-11,8.7-10.2,9.6-26.6,18.8"/>
    <g>
      <g class="st1">
        <g class="st1">
          <path class="st2" d="M87.2,33.1v4.5h-18.2V8.7h5.2v24.3h13Z"/>
        </g>
        <g class="st1">
          <path class="st2" d="M110.3,26.7c0,1.7-.2,3.3-.8,4.7-.5,1.4-1.2,2.6-2.1,3.6s-2,1.8-3.3,2.3c-1.3.6-2.7.8-4.3.8s-3-.3-4.2-.8c-1.3-.6-2.4-1.3-3.3-2.3s-1.6-2.2-2.1-3.6c-.5-1.4-.8-3-.8-4.7s.3-3.3.8-4.7c.5-1.4,1.2-2.6,2.2-3.6.9-1,2-1.8,3.3-2.3,1.3-.5,2.7-.8,4.2-.8s2.9.3,4.2.8c1.3.5,2.4,1.3,3.3,2.3s1.6,2.2,2.1,3.6c.5,1.4.8,3,.8,4.7ZM105.1,26.7c0-2.2-.5-3.9-1.4-5.1-.9-1.3-2.2-1.9-3.9-1.9s-3,.6-3.9,1.9c-.9,1.3-1.4,3-1.4,5.1s.5,3.9,1.4,5.2c.9,1.3,2.2,1.9,3.9,1.9s3-.6,3.9-1.9c.9-1.3,1.4-3,1.4-5.2Z"/>
          <path class="st2" d="M121,34c1.3,0,2.3-.2,2.9-.5.6-.3.9-.9.9-1.6s-.3-1.3-1-1.8c-.7-.5-1.7-1-3.2-1.5-.9-.3-1.8-.7-2.5-1.1-.8-.4-1.4-.8-2-1.3-.6-.5-1-1.1-1.3-1.8-.3-.7-.5-1.6-.5-2.6,0-2,.7-3.6,2.2-4.7,1.5-1.2,3.5-1.7,6-1.7s2.5.1,3.7.4c1.2.2,2,.5,2.6.7l-.9,4.1c-.6-.2-1.3-.5-2.1-.7-.9-.2-1.9-.3-3-.3s-1.9.2-2.5.5c-.6.3-1,.9-1,1.6s0,.7.2,1c.1.3.3.5.6.8.3.2.7.5,1.2.7.5.2,1.1.5,1.8.7,1.2.4,2.2.9,3,1.3.8.4,1.5.9,2.1,1.5s.9,1.2,1.2,1.9c.2.7.4,1.5.4,2.5,0,2.1-.8,3.7-2.3,4.7-1.5,1.1-3.7,1.6-6.6,1.6s-3.5-.2-4.6-.5c-1.2-.3-2-.6-2.5-.8l.9-4.2c.7.3,1.6.6,2.7.9s2.2.4,3.6.4Z"/>
          <path class="st2" d="M163.7,37.6c-.4-1.1-.8-2.3-1.2-3.4s-.8-2.2-1.2-3.4h-12.2c-.4,1.2-.8,2.3-1.2,3.4-.4,1.1-.8,2.2-1.2,3.4h-5.5c1.1-3.1,2.1-5.9,3.1-8.5,1-2.6,1.9-5.1,2.9-7.4.9-2.3,1.9-4.6,2.8-6.7.9-2.1,1.9-4.2,2.8-6.2h5c1,2.1,1.9,4.1,2.8,6.2.9,2.1,1.8,4.3,2.8,6.7.9,2.3,1.9,4.8,2.9,7.4,1,2.6,2,5.5,3.1,8.5h-5.7ZM155.2,14.3c-.6,1.5-1.4,3.3-2.2,5.4-.8,2.1-1.7,4.4-2.6,6.9h9.5c-.9-2.5-1.8-4.8-2.6-6.9s-1.6-3.9-2.2-5.3Z"/>
          <path class="st2" d="M172.7,16.5c1-.3,2.2-.5,3.8-.8s3.3-.4,5.2-.4,3.3.2,4.5.7c1.2.5,2.1,1.2,2.9,2,.7.9,1.2,1.9,1.5,3.2.3,1.2.4,2.6.4,4.1v12.2h-5v-11.5c0-1.2,0-2.2-.2-3-.2-.8-.4-1.5-.8-2-.3-.5-.8-.9-1.4-1.1-.6-.2-1.3-.4-2.2-.4s-1.3,0-2,.1c-.7,0-1.2.2-1.5.2v17.6h-5v-21.1Z"/>
          <path class="st2" d="M215.1,35.4c0,3.5-.9,6-2.6,7.6-1.8,1.6-4.5,2.4-8.1,2.4s-2.6-.1-3.9-.3-2.4-.5-3.4-.9l.9-4.3c.9.4,1.8.7,2.9.9,1.1.2,2.3.3,3.6.3,2,0,3.5-.4,4.3-1.2.9-.8,1.3-2.1,1.3-3.7v-.8c-.5.2-1.2.5-2,.8-.8.2-1.8.4-2.8.4s-2.7-.2-3.8-.7c-1.2-.4-2.1-1.1-3-2s-1.5-1.9-1.9-3.2-.7-2.8-.7-4.5.2-3,.7-4.4c.5-1.3,1.2-2.5,2.1-3.4.9-.9,2.1-1.7,3.4-2.2,1.3-.5,2.8-.8,4.5-.8s3.2.1,4.7.4c1.5.2,2.7.5,3.7.8v18.9ZM201.1,26.1c0,2.1.5,3.7,1.4,4.7.9,1,2.1,1.5,3.6,1.5s1.6-.1,2.3-.3c.7-.2,1.3-.5,1.7-.8v-11.3c-.4,0-.8-.2-1.3-.2s-1.2-.1-2-.1c-1.8,0-3.2.6-4.2,1.8-1,1.2-1.5,2.8-1.5,4.8Z"/>
          <path class="st2" d="M220.3,26.8c0-1.9.3-3.6.9-5,.6-1.4,1.3-2.6,2.3-3.6.9-1,2-1.7,3.2-2.2,1.2-.5,2.5-.7,3.8-.7,3,0,5.3.9,7,2.8,1.7,1.9,2.5,4.6,2.5,8.3s0,.6,0,.9c0,.3,0,.7,0,.9h-14.4c.1,1.8.8,3.1,1.9,4.1,1.1,1,2.7,1.4,4.8,1.4s2.3-.1,3.4-.3c1-.2,1.8-.5,2.4-.7l.7,4.1c-.3.1-.7.3-1.1.4s-1,.3-1.7.4-1.3.2-2,.3c-.7,0-1.5.1-2.2.1-1.9,0-3.6-.3-5-.9-1.4-.6-2.6-1.4-3.5-2.4-.9-1-1.6-2.2-2-3.6-.4-1.4-.7-2.9-.7-4.5ZM234.9,24.6c0-.7,0-1.4-.3-2s-.5-1.2-.9-1.6c-.4-.5-.8-.8-1.4-1.1-.5-.3-1.2-.4-1.9-.4s-1.5.1-2,.4-1.1.7-1.5,1.1c-.4.5-.7,1-.9,1.6-.2.6-.4,1.2-.5,1.9h9.4Z"/>
          <path class="st2" d="M252.9,38c-1.5,0-2.7-.2-3.7-.5-1-.3-1.8-.7-2.4-1.3-.6-.6-1-1.3-1.2-2.1-.2-.8-.4-1.8-.4-2.9V6.1l5-.8v25c0,.6,0,1.1.1,1.5,0,.4.3.8.5,1.1.2.3.6.5,1,.7s1,.3,1.6.4l-.7,4.2Z"/>
          <path class="st2" d="M256.5,26.8c0-1.9.3-3.6.9-5,.6-1.4,1.3-2.6,2.3-3.6s2-1.7,3.2-2.2c1.2-.5,2.5-.7,3.7-.7,3,0,5.3.9,7,2.8s2.5,4.6,2.5,8.3,0,.6,0,.9c0,.3,0,.7,0,.9h-14.4c.1,1.8.8,3.1,1.9,4.1,1.1,1,2.7,1.4,4.8,1.4s2.3-.1,3.4-.3,1.8-.5,2.4-.7l.7,4.1c-.3.1-.7.3-1.1.4-.5.2-1,.3-1.7.4s-1.3.2-2,.3c-.7,0-1.5.1-2.2.1-1.9,0-3.6-.3-5-.9-1.4-.6-2.6-1.4-3.5-2.4-.9-1-1.6-2.2-2-3.6-.4-1.4-.7-2.9-.7-4.5ZM271.1,24.6c0-.7,0-1.4-.3-2s-.5-1.2-.9-1.6c-.4-.5-.8-.8-1.4-1.1-.5-.3-1.2-.4-1.9-.4s-1.5.1-2,.4c-.6.3-1.1.7-1.5,1.1-.4.5-.7,1-.9,1.6-.2.6-.4,1.2-.5,1.9h9.4Z"/>
          <path class="st2" d="M286.9,34c1.3,0,2.3-.2,2.9-.5.6-.3.9-.9.9-1.6s-.3-1.3-1-1.8c-.7-.5-1.7-1-3.2-1.5-.9-.3-1.8-.7-2.5-1.1-.8-.4-1.4-.8-2-1.3s-1-1.1-1.3-1.8c-.3-.7-.5-1.6-.5-2.6,0-2,.7-3.6,2.2-4.7,1.5-1.2,3.5-1.7,6-1.7s2.5.1,3.7.4c1.2.2,2,.5,2.6.7l-.9,4.1c-.6-.2-1.3-.5-2.1-.7-.9-.2-1.9-.3-3-.3s-1.9.2-2.5.5c-.6.3-1,.9-1,1.6s0,.7.2,1c.1.3.3.5.6.8s.7.5,1.2.7c.5.2,1.1.5,1.8.7,1.2.4,2.2.9,3,1.3.8.4,1.5.9,2.1,1.5.5.5.9,1.2,1.2,1.9.2.7.4,1.5.4,2.5,0,2.1-.8,3.7-2.3,4.7-1.5,1.1-3.7,1.6-6.6,1.6s-3.5-.2-4.6-.5c-1.2-.3-2-.6-2.5-.8l.9-4.2c.7.3,1.6.6,2.7.9,1,.3,2.2.4,3.6.4Z"/>
        </g>
      </g>
      <path class="st3" d="M34.4,27.1c-4.4,8.4-14.7,11.7-23.1,7.4C2.9,30.1-.4,19.7,3.9,11.3,8.3,2.9,18.6-.4,27.1,3.9c8.4,4.4,11.7,14.7,7.4,23.1Z"/>
    </g>
  </g>
</svg>