<?xml version="1.0" encoding="utf-8"?>
<svg data-name="Layer 2" id="b" viewBox="0 0 2944 1840" xmlns="http://www.w3.org/2000/svg">
<g data-name="Layer 1" id="c">
<g>
<path d="M140.66,211.72c-61.25-22.01-67.09-18.36-138.99-42.6" fill="none" stroke="#eb008b" style="fill: none; stroke: #cbca2e; stroke-miterlimit: 10; stroke-width: 10.42px;"/>
<path d="M130.61,233.92c-71.04,129.79,371.1,224.07,539.25,163.08" fill="none" stroke="#eb008b" style="fill: none; stroke: #cbca2e; stroke-miterlimit: 10; stroke-width: 10.42px;"/>
<path d="M220.2,403.49c31.46-6.49,50.78-2.96,81.33-20.93" fill="none" stroke="#eb008b" style="fill: none; stroke: #cbca2e; stroke-miterlimit: 10; stroke-width: 10.42px;"/>
<path d="M669.86,397c-1.92-4.05,54.89,109.04,64.47,146.93" fill="none" stroke="#eb008b" style="fill: none; stroke: #cbca2e; stroke-miterlimit: 10; stroke-width: 10.42px;"/>
<path d="M669.86,397c-4.09-410.58-211.21-73.07,757.63-380.19" fill="none" stroke="#eb008b" style="fill: none; stroke: #cbcb31; stroke-miterlimit: 10; stroke-width: 10.42px;"/>
<path d="M1445.8,6.81c71.9,24.23,236.26-6.99,300.66-.76" fill="none" stroke="#eb008b" style="fill: none; stroke: #cbca2e; stroke-miterlimit: 10; stroke-width: 10.42px;"/>
<path d="M604.3,411.38c30.23,30.1,26.93,26.64,57.55,42.92" fill="none" stroke="#eb008b" style="fill: none; stroke: #cbca2e; stroke-miterlimit: 10; stroke-width: 10.42px;"/>
<path d="M617.59,106c18.44,42.29,19.94,35.93,35.64,74.34" fill="none" stroke="#eb008b" style="fill: none; stroke: #cbca2e; stroke-miterlimit: 10; stroke-width: 10.42px;"/>
<path d="M453.38,411.05c0-24.73,21.04-32.26,42.07-32.26" fill="none" stroke="#eb008b" style="fill: none; stroke: #cbca2e; stroke-miterlimit: 10; stroke-width: 10.42px;"/>
<path d="M594.3,236.93c34.36,1.07,30.17-1.58,61.14,0" fill="none" stroke="#eb008b" style="fill: none; stroke: #cbca2e; stroke-miterlimit: 10; stroke-width: 10.42px;"/>
</g>
</g></svg>