<?xml version="1.0" encoding="utf-8"?>
<svg data-name="Layer 2" id="b" viewBox="0 0 2944 1840" xmlns="http://www.w3.org/2000/svg">
<g data-name="Layer 1" id="c">
<g>
<path d="M660.06,244.31s-2.93-2.39-8.85-5.46" fill="none" stroke="#eb008b" style="fill: none; stroke: #007e91; stroke-miterlimit: 10; stroke-width: 10.42px;"/>
<path d="M630.4,230.71c-29.82-8.91-58.81-8.32-77.61-6.32" fill="none" stroke="#eb008b" style="fill: none; stroke: #007e91; stroke-dasharray: 22.37 22.37; stroke-miterlimit: 10; stroke-width: 10.42px;"/>
<path d="M541.75,225.86c-6.48,1.05-10.21,1.99-10.21,1.99" fill="none" stroke="#eb008b" style="fill: none; stroke: #007e91; stroke-miterlimit: 10; stroke-width: 10.42px;"/>
</g>
<path d="M597.02,316.76c8.7-22.32,22.56-54.63,47.83-62.23,31.1-9.35,78.38-.95,110.75.62,65.49,3.2,194.81,29.53,257.23,47.98,236.08,69.74,321.12,324.32,46.74,526.44" fill="none" stroke="#eb008b" style="fill: none; stroke: #007e91; stroke-miterlimit: 10; stroke-width: 10.42px;"/>
<path d="M3.57,3.79c53.4,50.25,68.91,78.76,132.07,116,81.32,47.96,122.93,161.92,222.09,167.25,111.04,5.96,142.38-22.83,182.97-32.34,56.31-13.19,109.78-6.03,141.82-4.52" fill="none" stroke="#eb008b" style="fill: none; stroke: #007e91; stroke-miterlimit: 10; stroke-width: 10.42px;"/>
<line style="fill: none; stroke: #007e91; stroke-miterlimit: 10; stroke-width: 10.42px;" x1="72.72" x2="135.64" y1="183.44" y2="119.79"/>
<path d="M1189.92,417.3s3.75-2.49,7.77-6.89" fill="none" stroke="#eb008b" style="fill: none; stroke: #007e91; stroke-miterlimit: 10; stroke-width: 10.42px;"/>
<path d="M1206.91,393.26c.03-.13.05-.25.07-.38,7.04-41.4,3.78-112.53,1.57-147.23" fill="none" stroke="#eb008b" style="fill: none; stroke: #007e91; stroke-dasharray: 19.71 19.71; stroke-miterlimit: 10; stroke-width: 10.42px;"/>
<path d="M1207.89,235.81c-.47-6.56-.79-10.37-.79-10.37" fill="none" stroke="#eb008b" style="fill: none; stroke: #007e91; stroke-miterlimit: 10; stroke-width: 10.42px;"/>
<path d="M1025.08,306.98c-2.53-2.9-4.78-5.53-6.8-7.91" fill="none" stroke="#eb008b" style="fill: none; stroke: #007e91; stroke-miterlimit: 10; stroke-width: 10.42px;"/>
<path d="M1003.03,279.7c-2.79-3.94-3.98-5.89-6.31-8.25" fill="none" stroke="#eb008b" style="fill: none; stroke: #007e91; stroke-miterlimit: 10; stroke-width: 10.42px;"/>
<path d="M1198.25,671.84s-2.7-2.92-8.48-5.98" fill="none" stroke="#eb008b" style="fill: none; stroke: #007e91; stroke-miterlimit: 10; stroke-width: 10.42px;"/>
<path d="M1168.95,659.33c-12.05-2.09-23.52-2.07-32.76-1.35" fill="none" stroke="#eb008b" style="fill: none; stroke: #007e91; stroke-dasharray: 21.89 21.89; stroke-miterlimit: 10; stroke-width: 10.42px;"/>
<path d="M1125.31,659.24c-6.36.98-10.2,2.02-10.2,2.02" fill="none" stroke="#eb008b" style="fill: none; stroke: #007e91; stroke-miterlimit: 10; stroke-width: 10.42px;"/>
</g></svg>