<?xml version="1.0" encoding="UTF-8"?>
<svg id="b" xmlns="http://www.w3.org/2000/svg" version="1.1" viewBox="0 0 2944 1840">
  <g id="c">
    <path d="M26.4,1.5S-104.2,447.2,282.6,780.8" style="fill: none; stroke: #ee4023; stroke-miterlimit: 10; stroke-width: 10.4px;"/>
    <g>
      <path d="M712.2,527.4c6.2,7,108.3,125,420.9,125.2" style="fill: none; stroke: #ee4023; stroke-miterlimit: 10; stroke-width: 10.4px;"/>
      <path d="M625.3,325.2s-218.4-30.9-274.3,168.7" style="fill: none; stroke: #ee4023; stroke-linecap: round; stroke-miterlimit: 10; stroke-width: 10.4px;"/>
    </g>
    <path d="M351,493.9s-106.5-68.5-287.5-11.5" style="fill: none; stroke: #ee4023; stroke-linecap: round; stroke-miterlimit: 10; stroke-width: 10.4px;"/>
    <path d="M282.6,780.8l-17.6-73.3s-13.9-143,89.5-211" style="fill: none; stroke: #333374; stroke-dasharray: 19.7 19.7; stroke-linecap: square; stroke-miterlimit: 10; stroke-width: 10.4px;"/>
    <path d="M791.5,834.1c-64.9-339.4-166.2-515.3-166.2-515.3" style="fill: none; stroke: #de3c21; stroke-miterlimit: 10; stroke-width: 10.4px;"/>
    <path d="M829.3,602c5.2,3.9,177.5,23.1,253.4-57.9" style="fill: none; stroke: #ee4023; stroke-miterlimit: 10; stroke-width: 10.4px;"/>
    <path d="M536.7,328s30.8-30.4,16.8-91" style="fill: none; stroke: #ee4023; stroke-linecap: round; stroke-miterlimit: 10; stroke-width: 10.4px;"/>
    <path d="M1128.3,640.1s-291.2-27.6-354-148.6c-65-125.4-130.4-163.2-130.4-163.2" style="fill: none; stroke: #333374; stroke-dasharray: 19.7 19.7; stroke-linecap: square; stroke-miterlimit: 10; stroke-width: 10.4px;"/>
  </g>
</svg>
