<?xml version="1.0" encoding="utf-8"?>
<svg data-name="Layer 2" id="b" viewBox="0 0 2944 1840" xmlns="http://www.w3.org/2000/svg">
<g data-name="Layer 1" id="c">
<path d="M26.43,1.46S-104.18,447.15,282.63,780.75" fill="none" stroke="#eb008b" style="fill: none; stroke: #ee4023; stroke-miterlimit: 10; stroke-width: 10.42px;"/>
<g>
<path d="M712.22,527.43c6.19,7.05,108.26,125,420.87,125.22" fill="none" stroke="#eb008b" style="fill: none; stroke: #ee4023; stroke-miterlimit: 10; stroke-width: 10.42px;"/>
<path d="M625.27,325.22s-218.38-30.87-274.26,168.71" fill="none" stroke="#eb008b" style="fill: none; stroke: #ee4023; stroke-linecap: round; stroke-miterlimit: 10; stroke-width: 10.42px;"/>
</g>
<path d="M351.01,493.93s-106.46-68.46-287.46-11.46" fill="none" stroke="#eb008b" style="fill: none; stroke: #ee4023; stroke-linecap: round; stroke-miterlimit: 10; stroke-width: 10.42px;"/>
<line style="fill: none; stroke: #ee4023; stroke-miterlimit: 10; stroke-width: 10.42px;" x1="282.63" x2="265.07" y1="780.75" y2="707.49"/>
<path d="M265.07,707.49s-13.9-142.98,89.52-211.05" fill="none" stroke="#eb008b" style="fill: none; stroke: #ee4023; stroke-linecap: round; stroke-miterlimit: 10; stroke-width: 10.42px;"/>
<path d="M791.48,834.13c-64.92-339.39-166.21-515.33-166.21-515.33" fill="none" stroke="#eb008b" style="fill: none; stroke: #de3c21; stroke-miterlimit: 10; stroke-width: 10.42px;"/>
<path d="M829.27,601.96c5.21,3.92,177.46,23.09,253.42-57.86" fill="none" stroke="#eb008b" style="fill: none; stroke: #ee4023; stroke-miterlimit: 10; stroke-width: 10.42px;"/>
<path d="M536.65,327.96s30.75-30.39,16.82-91.04" fill="none" stroke="#eb008b" style="fill: none; stroke: #ee4023; stroke-linecap: round; stroke-miterlimit: 10; stroke-width: 10.42px;"/>
<path d="M1128.27,640.14s-291.2-27.56-353.96-148.65c-64.98-125.38-130.36-163.25-130.36-163.25" fill="none" stroke="#eb008b" style="fill: none; stroke: #ee4023; stroke-linecap: round; stroke-miterlimit: 10; stroke-width: 10.42px;"/>
</g></svg>